<svg xmlns="http://www.w3.org/2000/svg" id="Layer_1" x="0" y="0" version="1.1" viewBox="0 0 52 52" xml:space="preserve"><path fill="#0393df" d="M26 2C16.94 2 9.58 9.43 9.58 18.56a16.654 16.654 0 0 0 7.14 13.67c.13.09.26.17.39.26 2.38 1.55 5.1 2.44 7.94 2.6.23.02.46.02.7.03H26c.16 0 .32 0 .39-.01h.18l.67-.03.63-.06c2.8-.33 5.44-1.35 7.73-3.02.14-.1.28-.21.41-.31.42-.33.82-.67 1.2-1.03 3.33-3.13 5.21-7.45 5.21-12.1C42.42 9.43 35.05 2 26 2zm8.78 28.11c-2.39 1.86-5.25 2.9-8.24 3l-.22.01H26c-2.93 0-5.75-.87-8.14-2.53a14.627 14.627 0 0 1-6.28-12.03C11.58 10.53 18.05 4 26 4s14.42 6.53 14.42 14.56c0 4.56-2.06 8.77-5.64 11.55z"/><path fill="#fff" d="M26 4c-7.95 0-14.42 6.53-14.42 14.56 0 4.8 2.34 9.3 6.28 12.03 2.39 1.66 5.21 2.53 8.14 2.53h.32l.22-.01c2.99-.1 5.85-1.14 8.24-3 3.58-2.78 5.64-6.99 5.64-11.55C40.42 10.53 33.95 4 26 4zm11.35 11.39l-6.07 4.41 2.32 7.13c.13.41-.01.86-.36 1.11a.99.99 0 0 1-1.18 0L26 23.64l-6.06 4.4a1.01 1.01 0 0 1-1.18 0c-.35-.25-.5-.7-.36-1.11l2.31-7.13-6.06-4.41c-.35-.25-.5-.7-.36-1.11.13-.42.51-.7.95-.7h7.49l2.32-7.12a1 1 0 0 1 1.9 0l2.32 7.12h7.49c.43 0 .82.28.95.7.13.41-.01.86-.36 1.11z"/><path fill="#d0e8f9" d="M25.05 35.09l-5.02 11.1-1.53-4.89a.98.98 0 0 0-.54-.62c-.26-.11-.56-.12-.82 0l-4.66 2.05 4.63-10.24c2.38 1.55 5.1 2.44 7.94 2.6z"/><path fill="#0393df" d="M27.41 34.71l-.17.37-.8 1.77-5.67 12.56c-.17.36-.53.59-.92.59h-.06c-.41-.03-.77-.31-.89-.7l-1.98-6.34-6.02 2.65c-.38.17-.82.09-1.11-.21a.996.996 0 0 1-.2-1.11l5.88-13.02.22-.49c.23-.5.82-.72 1.32-.49.5.22.73.81.5 1.32l-.4.88-4.63 10.24 4.66-2.05c.26-.12.56-.11.82 0 .26.12.46.34.54.62l1.53 4.89 5.02-11.1.49-1.08c.01-.01.01-.03.02-.04l.03-.08c.02-.05.04-.09.07-.13.02-.05.05-.08.09-.12.03-.03.06-.07.1-.1.03-.03.07-.06.11-.08.04-.03.08-.05.13-.07a.3.3 0 0 1 .1-.04.985.985 0 0 1 .55-.02h.01c.05.02.11.04.16.06.02.01.04.02.06.04.07.04.14.09.2.14a1.063 1.063 0 0 1 .24.32c.01.01.01.03.02.04l.03.09c.06.22.05.47-.05.69z"/><path fill="#d0e8f9" d="M39.6 41.91l-4.59-2.24a.957.957 0 0 0-.81-.03c-.27.11-.47.32-.57.59l-1.72 4.82-4.04-10.03c2.8-.33 5.44-1.35 7.73-3.02l4 9.91z"/><path fill="#0393df" d="M42.18 44.69c-.3.28-.75.34-1.12.16l-5.92-2.89-2.23 6.24c-.14.4-.51.66-.93.67h-.01a1 1 0 0 1-.93-.63l-4.6-11.39-.69-1.73-.18-.44a.97.97 0 0 1-.03-.67c.01-.01.01-.03.02-.04l.03-.08c.02-.05.04-.09.07-.13.02-.05.05-.08.09-.12.03-.03.06-.07.1-.1.03-.03.07-.06.11-.08.04-.03.08-.05.13-.07.01-.01.02-.02.03-.02.02-.01.04-.02.07-.02.44-.14.91.04 1.15.42.03.04.05.08.07.12.01.01.01.03.02.04l.03.09.41 1 4.04 10.03 1.72-4.82c.1-.27.3-.48.57-.59.26-.11.56-.1.81.03l4.59 2.24-4-9.91-.39-.97c-.21-.52.04-1.1.55-1.31.51-.2 1.09.05 1.3.56l.15.38 5.22 12.92c.15.38.05.82-.25 1.11z"/><g><path fill="#0393df" d="M37.71 14.28a.996.996 0 0 0-.95-.7h-7.49l-2.32-7.12a1 1 0 0 0-1.9 0l-2.32 7.12h-7.49c-.44 0-.82.28-.95.7-.14.41.01.86.36 1.11l6.06 4.41-2.31 7.13c-.14.41.01.86.36 1.11a1.01 1.01 0 0 0 1.18 0l6.06-4.4 6.06 4.4c.35.26.82.26 1.18 0 .35-.25.49-.7.36-1.11l-2.32-7.13 6.07-4.41c.35-.25.49-.7.36-1.11zm-8.19 4.33c-.35.25-.5.7-.36 1.12l1.59 4.89-4.16-3.03c-.36-.25-.83-.25-1.18 0l-4.16 3.03 1.59-4.89c.13-.42-.01-.87-.36-1.12l-4.17-3.03h5.15c.43 0 .82-.27.95-.69L26 10l1.59 4.89c.13.42.51.69.95.69h5.14l-4.16 3.03z"/><path fill="#fff" d="M29.16 19.73l1.59 4.89-4.16-3.03c-.36-.25-.83-.25-1.18 0l-4.16 3.03 1.59-4.89c.13-.42-.01-.87-.36-1.12l-4.17-3.03h5.15c.43 0 .82-.27.95-.69L26 10l1.59 4.89c.13.42.51.69.95.69h5.14l-4.16 3.03c-.35.25-.5.7-.36 1.12z"/></g></svg>