<svg xmlns="http://www.w3.org/2000/svg" id="Layer_1" x="0" y="0" version="1.1" viewBox="0 0 52 52" xml:space="preserve"><path fill="#0096e6" d="M17.2 24.038l-.49-.47c-1.35-1.29-3.71-1.3-5.07-.02l-3.1 2.93v.01l-1.13 1.06c-.12.11-.22.23-.32.35v.01c-.5.6-.76 1.34-.76 2.12-.01.94.37 1.83 1.06 2.49l.48.47c.68.65 1.59 1.01 2.55 1.01.47 0 .94-.09 1.37-.25.42-.17.82-.42 1.15-.74l4.24-4c.35-.34.63-.73.81-1.16.18-.41.27-.86.27-1.32 0-.94-.37-1.83-1.06-2.49zm-5.63 7.52c-.3.28-.71.44-1.15.44s-.85-.16-1.16-.45l-.49-.47c-.29-.28-.45-.65-.44-1.04 0-.39.16-.76.45-1.03l4.23-4c.31-.29.72-.45 1.15-.45.45 0 .86.16 1.16.46l.49.47c.29.27.45.64.45 1.03s-.16.76-.46 1.03l-4.23 4.01z"/><path fill="#fff" d="M16.26 26.518c0 .39-.16.76-.46 1.03l-4.23 4.01c-.3.28-.71.44-1.15.44s-.85-.16-1.16-.45l-.49-.47c-.29-.28-.45-.65-.44-1.04 0-.39.16-.76.45-1.03l4.23-4c.31-.29.72-.45 1.15-.45.45 0 .86.16 1.16.46l.49.47c.29.27.45.64.45 1.03z"/><path fill="#0096e6" d="M22.4 29.048l-.49-.48c-1.01-.98-2.61-1.22-3.92-.72-.42.16-.81.4-1.14.71l-4.24 4c-.36.34-.64.74-.82 1.19-.17.4-.26.83-.26 1.28 0 .94.37 1.83 1.06 2.49l.49.47c.68.65 1.58 1.01 2.55 1.01h.06a3.66 3.66 0 0 0 2.46-.99l4.23-4c.68-.64 1.06-1.5 1.08-2.41v-.07c.01-.94-.37-1.82-1.06-2.48zm-5.62 7.51c-.31.28-.72.44-1.15.44-.45 0-.86-.16-1.16-.45l-.49-.47c-.29-.28-.45-.65-.45-1.04s.16-.76.46-1.03l4.23-4c.3-.29.71-.45 1.15-.45s.85.16 1.16.46l.49.47c.29.28.45.64.44 1.03 0 .39-.16.76-.45 1.04l-4.23 4z"/><path fill="#fff" d="M21.46 31.518c0 .39-.16.76-.45 1.04l-4.23 4c-.31.28-.72.44-1.15.44-.45 0-.86-.16-1.16-.45l-.49-.47c-.29-.28-.45-.65-.45-1.04s.16-.76.46-1.03l4.23-4c.3-.29.71-.45 1.15-.45s.85.16 1.16.46l.49.47c.29.28.45.64.44 1.03z"/><path fill="#0096e6" d="M26.57 33.038l-.49-.47c-.7-.67-1.66-.99-2.62-.97-.9.02-1.79.34-2.45.96l-4.23 4c-.69.64-1.07 1.51-1.09 2.44v.03c0 .95.38 1.83 1.07 2.49l.49.47c.67.65 1.58 1.01 2.54 1.01h.07c.92-.02 1.8-.37 2.45-.99l4.24-4c.67-.64 1.05-1.5 1.08-2.41v-.07c0-.94-.37-1.82-1.06-2.49zm-5.63 7.52c-.3.28-.71.44-1.15.44s-.86-.16-1.16-.45l-.49-.47a1.44 1.44 0 0 1-.45-1.04c.01-.39.17-.75.46-1.03l4.23-4c.31-.29.71-.45 1.15-.45.45 0 .86.17 1.16.46l.49.47c.29.28.45.64.45 1.03s-.16.76-.46 1.04l-4.23 4z"/><path fill="#fff" d="M25.63 35.518c0 .39-.16.76-.46 1.04l-4.23 4c-.3.28-.71.44-1.15.44s-.86-.16-1.16-.45l-.49-.47a1.44 1.44 0 0 1-.45-1.04c.01-.39.17-.75.46-1.03l4.23-4c.31-.29.71-.45 1.15-.45.45 0 .86.17 1.16.46l.49.47c.29.28.45.64.45 1.03z"/><path fill="#0096e6" d="M31.61 38.448c-.16-.52-.46-1-.88-1.4l-.49-.47c-.69-.67-1.65-1-2.61-.98-.9.02-1.8.34-2.46.96l-4.23 4a3.37 3.37 0 0 0-1.08 2.44v.04c0 .94.37 1.82 1.06 2.48l.49.47c.68.65 1.58 1.01 2.54 1.01s1.85-.35 2.53-.99l4.23-4c.46-.43.79-.96.95-1.55.09-.3.13-.61.13-.93 0-.37-.05-.74-.18-1.08zm-2.27 2.11l-4.23 4c-.31.28-.72.44-1.16.44s-.85-.16-1.16-.45l-.48-.47c-.29-.28-.45-.65-.45-1.04s.16-.75.45-1.03l4.24-4c.3-.29.71-.44 1.15-.44s.85.16 1.16.45l.49.47c.29.28.44.64.44 1.03s-.16.76-.45 1.04z"/><path fill="#fff" d="M29.79 39.518c0 .39-.16.76-.45 1.04l-4.23 4c-.31.28-.72.44-1.16.44s-.85-.16-1.16-.45l-.48-.47c-.29-.28-.45-.65-.45-1.04s.16-.75.45-1.03l4.24-4c.3-.29.71-.44 1.15-.44s.85.16 1.16.45l.49.47c.29.28.44.64.44 1.03z"/><path fill="#0096e6" d="M45.57 27.908c-.16.92-.64 2.84-2.13 3.72-.48.28-1.19.52-2.14.39-.13.8-.45 1.8-1.2 2.63-.73.8-1.71 1.29-2.93 1.45-.11.78-.43 1.86-1.3 2.76-.99 1.02-2.4 1.56-4.21 1.6-.09.01-.18.01-.28.01-.22 0-.43-.01-.65-.02-.55-.03-.97-.51-.94-1.06.03-.55.5-.96 1.05-.94.27.01.53.02.77 0 1.26-.03 2.2-.35 2.8-.97.62-.62.77-1.44.8-1.89v-.01c.03-.2.02-.33.02-.34l-.08-1.07 1.07-.01c.13 0 .26 0 .39-.01.88-.06 1.54-.34 2-.84.63-.68.76-1.64.77-2.16.01-.22 0-.35 0-.36l-.15-1.69 1.55.69c.04.02.09.04.13.05.96.4 1.38.15 1.52.06.64-.38 1-1.46 1.14-2.2.03-.16.05-.31.06-.43l.04-.47.39-.27c.23-.16.45-.32.65-.5 4.86-4 3.04-10.55 2.74-11.53-.57-.85-4.76-6.94-9.32-7.45-4.97-.58-11.66 4.14-11.72 4.18l-.38.27-.24.17-.58-.47c-.32-.25-.64-.49-.94-.72-4.65-3.34-8.02-3.42-8.06-3.42-.1-.01-6.3-.21-9.81 4.09-3.18 3.91-2.33 8.19-2.14 8.99l4.28 6.34v.01l.2.3a1 1 0 0 1-.27 1.39.987.987 0 0 1-1.38-.27v-.01l-4.71-7.05c-.07-.24-1.7-5.84 2.47-10.96 4.16-5.1 11.12-4.84 11.41-4.83.09 0 1.15.02 2.86.55 1.71.52 4.06 1.56 6.75 3.58 1.88-1.23 7.66-4.66 12.49-4.13 5.83.66 10.64 8.16 10.84 8.47l.1.21c.03.09 3.04 9.08-3.73 14.17z"/><path fill="#0096e6" d="M36.95 35.848c-.19.21-.46.31-.73.31-.24 0-.49-.09-.68-.27l-.33-.3v-.01l-10.07-9.42c-.4-.38-.42-1.01-.04-1.42a.996.996 0 011.41-.04l10.1 9.45.3.28c.4.38.42 1.01.04 1.42zM41.12 31.368a1.002 1.002 0 01-1.42.07l-.32-.29-9.89-8.94c-.41-.37-.45-1-.08-1.41a1.01 1.01 0 011.42-.07l10.08 9.11.13.12c.41.37.45 1 .08 1.41z"/><path fill="#d0e8f9" d="M44.71 26.028l-14.68-14.51-.69.95c-.01.02-1.31 1.8-4.87 5.13-1.3 1.2-2.53 1.75-3.67 1.64-.81-.08-1.47-.5-1.9-.87l6.94-6.62c.08-.07.14-.16.19-.25l.38-.27c.06-.04 6.75-4.76 11.72-4.18 4.56.51 8.75 6.6 9.32 7.45.3.98 2.12 7.53-2.74 11.53z"/><path fill="#fff" d="M43.57 27.698c-.14.74-.5 1.82-1.14 2.2-.14.09-.56.34-1.52-.06l-10.08-9.11a1.01 1.01 0 0 0-1.42.07.998.998 0 0 0 .08 1.41l9.89 8.94c-.01.52-.14 1.48-.77 2.16-.46.5-1.12.78-2 .84l-10.1-9.45a.996.996 0 0 0-1.41.04c-.38.41-.36 1.04.04 1.42l10.07 9.42v.01c-.03.45-.18 1.27-.8 1.89-.6.62-1.54.94-2.8.97-.16-.52-.46-1-.88-1.4l-.49-.47c-.69-.67-1.65-1-2.61-.98v-.07c0-.94-.37-1.82-1.06-2.49l-.49-.47c-.7-.67-1.66-.99-2.62-.97v-.07c.01-.94-.37-1.82-1.06-2.48l-.49-.48c-1.01-.98-2.61-1.22-3.92-.72.18-.41.27-.86.27-1.32 0-.94-.37-1.83-1.06-2.49l-.49-.47c-1.35-1.29-3.71-1.3-5.07-.02l-3.1 2.93-4.28-6.34c-.19-.8-1.04-5.08 2.14-8.99 3.51-4.3 9.71-4.1 9.81-4.09.04 0 3.41.08 8.06 3.42l-8.08 7.72.49.7c.05.08 1.45 2.06 3.89 2.33 1.74.19 3.51-.54 5.26-2.17 2.27-2.12 3.66-3.63 4.41-4.52l13.33 13.16z"/><path fill="#0096e6" d="M45.34 28.058c-.19.19-.45.29-.71.29a.96.96 0 0 1-.7-.29l-.36-.36-13.33-13.16c-.75.89-2.14 2.4-4.41 4.52-1.75 1.63-3.52 2.36-5.26 2.17-2.44-.27-3.84-2.25-3.89-2.33l-.49-.7 8.08-7.72.19-.18a.996.996 0 0 1 1.41.04c.31.32.36.79.16 1.16-.05.09-.11.18-.19.25l-6.94 6.62c.43.37 1.09.79 1.9.87 1.14.11 2.37-.44 3.67-1.64 3.56-3.33 4.86-5.11 4.87-5.13l.69-.95 14.68 14.51.62.61c.4.39.4 1.02.01 1.42z"/></svg>