<?xml version="1.0" encoding="UTF-8" standalone="no"?><!DOCTYPE svg PUBLIC "-//W3C//DTD SVG 1.1//EN" "http://www.w3.org/Graphics/SVG/1.1/DTD/svg11.dtd"><svg width="100%" height="100%" viewBox="0 0 217 217" version="1.1" xmlns="http://www.w3.org/2000/svg" xmlns:xlink="http://www.w3.org/1999/xlink" xml:space="preserve" xmlns:serif="http://www.serif.com/" style="fill-rule:evenodd;clip-rule:evenodd;stroke-linecap:round;stroke-linejoin:round;stroke-miterlimit:1.5;"><circle cx="111.698" cy="108.333" r="70.901" style="fill:#d0e8f9;"/><path d="M175.845,194.745c3.292,3.375 20.083,-68.333 -2.417,-45.125l-2.458,2.584c-0.833,0.916 -1.5,1.875 -2.208,2.791c-0.292,-0.666 -0.667,-1.375 -1.084,-2.125c-0.25,-0.5 -0.5,-0.916 -0.791,-1.375c9.75,-12.708 15.125,-28.333 15.125,-44.375c-0,-40.333 -32.792,-73.125 -73.125,-73.125c-40.292,0 -73.084,32.792 -73.084,73.125c0,40.292 32.792,73.084 73.084,73.084c8.791,-0 17.291,-1.584 25.375,-4.625c3.916,6.25 9.916,10.125 16,10.125c2.291,-0 4.458,-0.542 6.416,-1.667l7.084,-3.958c0.833,2.208 2,4.25 3.666,5.958l8.417,8.708Zm-88.708,-148.583c-5.334,6.667 -9.709,15.75 -12.667,26.5c-10.75,3 -19.833,7.333 -26.5,12.667c6.542,-18.209 20.958,-32.625 39.167,-39.167Zm-14.834,35.917c-1.25,6.541 -2,13.541 -2.208,20.875l-25.25,-0c2.583,-8.542 12.917,-16.084 27.458,-20.875Zm-2.208,29.208c0.208,7.292 0.958,14.292 2.208,20.833c-14.541,-4.791 -24.875,-12.333 -27.458,-20.833l25.25,-0Zm-22.125,17.583c6.667,5.334 15.75,9.709 26.5,12.667c2.958,10.75 7.333,19.833 12.667,26.5c-18.226,-6.567 -32.6,-20.941 -39.167,-39.167Zm56.75,42.292c-8.5,-2.583 -16.042,-12.917 -20.833,-27.458c6.541,1.25 13.541,2 20.833,2.208l-0,25.25Zm-0,-33.583c-7.856,-0.221 -15.671,-1.212 -23.333,-2.959c-1.667,-7.208 -2.709,-15.083 -2.959,-23.333l26.292,-0l-0,26.292Zm-0,-34.625l-26.292,-0c0.25,-8.292 1.292,-16.167 2.959,-23.375c7.208,-1.667 15.083,-2.667 23.333,-2.959l-0,26.334Zm-0,-34.667c-7.292,0.208 -14.292,1 -20.833,2.208c4.791,-14.541 12.333,-24.875 20.833,-27.458l-0,25.25Zm68.292,43c-2.5,7.792 -11.75,15.208 -25.5,20.167c-0.584,-0.375 -1.125,-0.75 -1.709,-1.084c1.084,-6.166 1.709,-12.541 1.917,-19.083l25.292,-0Zm-25.292,-8.333c-0.178,-7.007 -0.917,-13.987 -2.208,-20.875c14.541,4.791 24.875,12.333 27.458,20.875l-25.25,-0Zm22.125,-17.625c-6.667,-5.334 -15.75,-9.667 -26.5,-12.667c-3,-10.75 -7.333,-19.833 -12.667,-26.5c18.209,6.542 32.625,20.958 39.167,39.167Zm-56.792,-42.292c8.542,2.583 16.084,12.917 20.875,27.458c-6.891,-1.271 -13.87,-2.009 -20.875,-2.208l0,-25.25Zm0,33.583c8.292,0.292 16.167,1.292 23.375,2.959c1.667,7.208 2.667,15.083 2.959,23.375l-26.334,-0l0,-26.334Zm0,94.542l0,-25.292c4.459,-0.166 8.834,-0.5 13.125,-1.041c0,4.083 0.375,8.541 1.292,13.166c-4.25,7.042 -9.25,11.584 -14.417,13.167Zm25.042,-45c-0.409,2.792 0.866,6.343 -1.952,9.315c-1.707,1.802 -5.06,0.325 -9.631,0.935c-4.375,0.583 -8.875,0.958 -13.459,1.125l0,-26.25l26.334,-0c-0.167,5.083 -0.584,10.042 -1.292,14.875Zm21.833,46.5l-0.541,0.292c-4.042,-5.417 -10.125,-15.25 -9.75,-22.459c0.004,-0.077 0.006,-0.154 0.006,-0.231c0,-2.191 -1.735,-4.024 -3.923,-4.144c-2.458,-0.125 -4.292,1.625 -4.375,3.917c-0.542,9.917 6.375,21.083 10.625,26.958c-3.333,1.292 -8.292,-1.583 -11.042,-6.5c-0.375,-0.583 -0.708,-1.25 -1.083,-2c-6.5,-12.333 -4.567,-24.511 -3.526,-31.928c6.584,3.167 17.609,7.928 23.984,20.137c0.375,0.75 0.709,1.416 1.042,2.041c2.708,5.584 2.042,11.959 -1.417,13.917Zm2,-28.375c-2.083,-2.583 -4.333,-4.917 -6.625,-6.917c5.709,-2.5 10.625,-5.375 14.625,-8.625c-1.916,5.5 -4.625,10.709 -8,15.542Zm17.5,11.125c15.459,-15.917 4.625,35.792 2.417,33.542l-0.917,-0.959c2.042,-1.166 3.5,-2.416 5.75,-4.375c0,0 2.667,-13.333 -4.083,-7.5l-1.417,1.25c-2.75,2.375 -3.791,3.292 -6.333,4.375l-1.417,-1.5c-4.791,-4.875 -3.125,-14.958 3.709,-22.416c0.666,-0.75 1.458,-1.584 2.291,-2.417Z" style="fill:#0096e6;fill-rule:nonzero;"/><path d="M163.544,132.304l-19.454,-16.453l-0,16.453l-4.477,-0c-5.922,-0 -10.73,4.808 -10.73,10.73l-0,45.597c-0,5.923 4.808,10.731 10.73,10.731l48.749,-0c5.922,-0 10.731,-4.808 10.731,-10.731l-0,-45.597c-0,-5.922 -4.809,-10.73 -10.731,-10.73l-24.818,-0Z" style="fill:#fff;stroke:#0096e6;stroke-width:8.33px;"/><path d="M178.626,171.764l-27.545,0" style="fill:none;stroke:#0095e5;stroke-width:8.33px;"/><path d="M164.854,152.026l-0,21.438" style="fill:none;stroke:#0095e5;stroke-width:8.33px;"/><path d="M151.872,157.092l-3.778,-3.779" style="fill:none;stroke:#0095e5;stroke-width:8.33px;"/><path d="M164.854,171.764c-2.362,5.097 -5.728,9.247 -12.059,11.865" style="fill:none;stroke:#0095e5;stroke-width:8.33px;"/><path d="M164.854,171.764c2.361,5.097 5.727,9.247 12.058,11.865" style="fill:none;stroke:#0095e5;stroke-width:8.33px;"/><path d="M33.099,84.235l19.453,16.453l0,-16.453l24.375,0c5.922,0 10.73,-4.808 10.73,-10.731l0,-45.597c0,-5.922 -4.808,-10.73 -10.73,-10.73l-48.749,-0c-5.922,-0 -10.731,4.808 -10.731,10.73l0,45.597c0,5.923 4.809,10.731 10.731,10.731l4.921,0Z" style="fill:#fff;stroke:#0096e6;stroke-width:8.33px;"/><path d="M40.797,65.431l-0,-23.136c-0,-5.483 4.451,-9.934 9.934,-9.934c5.482,-0 9.933,4.451 9.933,9.934l0,23.136l0,-12.171l-19.867,-0" style="fill:none;stroke:#0095e5;stroke-width:8.33px;"/></svg>