<svg xmlns="http://www.w3.org/2000/svg" id="Layer_1" x="0" y="0" version="1.1" viewBox="0 0 52 52" xml:space="preserve"><path fill="none" d="M9.184 31.422c.219.49.54.955.94 1.31a19.09 19.09 0 0 1-1.234-2.13c.082.279.175.554.294.82z"/><path fill="#0096e6" d="M9.365 31.48c-.01.01-.02.01-.03.02-.03.01-.06.03-.09.03-.11.05-.23.07-.35.07-.37 0-.73-.2-.9-.55-.83-1.66-1.41-3.42-1.75-5.24a.993.993 0 0 1 .8-1.17c.54-.09 1.06.26 1.16.8.31 1.64.84 3.23 1.58 4.72a.99.99 0 0 1-.42 1.32z"/><path fill="#fff" d="M23.155 21.69v-.15c-.04-.49-.43-.88-.92-.92-.42-.05-.82.2-.99.58h-.01c-2.29.29-4.62.39-6.96.3-.38-.02-.85-.04-1.33.11-1.08.33-1.8 1.29-2.15 2.87-.17.79.21 1.6.94 1.97l3.4 1.7.01.63c0 .26.11.52.3.7-.28.45-.71.89-1.19 1.35-.88.86-1.89 1.7-2.8 1.52-.19-.04-.39-.14-.58-.29-.39-.6-.76-1.24-1.09-1.9a18.22 18.22 0 0 1-1.58-4.72c-.21-1.11-.31-2.23-.31-3.34 0-6.73 3.67-12.83 9.6-15.98l-.02 2.97c-.01.56.24 1.08.68 1.42.45.34 1.02.46 1.56.31a7.27 7.27 0 0 1 3.28-.09 8.93 8.93 0 0 1-.85 2.57c-.08-.06-.15-.12-.23-.19-.63-.58-1.59-.63-2.27-.12l-.6.46c-.47.35-.74.91-.71 1.5.02.59.34 1.13.85 1.45 1.24.77 2.56 1.41 3.95 1.9.06.02.15.05.2.07.01.03.02.06.02.09.3 1.04.21 2.2-.2 3.23z"/><path fill="#0096e6" d="M22.475 25.68c-.29.2-.67.24-.99.09a1.01 1.01 0 0 1-.57-.82c-.05-.56-.06-1.13-.02-1.69-2.21.24-4.45.33-6.67.24-.29-.02-.54-.03-.7.02-.31.1-.56.51-.74 1.22l3.36 1.69c.55.27.91.79.98 1.38.14.06.27.15.38.26.19.22.29.51.25.8-.18 1.53-1.34 2.65-2.1 3.39-.61.6-1.7 1.66-3.06 2.01-.28.07-.57.11-.87.11-.22 0-.45-.03-.68-.07-.57-.12-1.1-.4-1.58-.83a.22.22 0 0 0-.05-.04.175.175 0 0 1-.04-.05.703.703 0 0 1-.08-.1.916.916 0 0 1-.08-.13c-.44-.66-.85-1.38-1.22-2.11-.25-.5-.05-1.1.45-1.34a.99.99 0 0 1 1.34.45c.33.66.7 1.3 1.09 1.9.19.15.39.25.58.29.91.18 1.92-.66 2.8-1.52.48-.46.91-.9 1.19-1.35a.977.977 0 0 1-.3-.7l-.01-.63-3.4-1.7a1.785 1.785 0 0 1-.94-1.97c.35-1.58 1.07-2.54 2.15-2.87.48-.15.95-.13 1.33-.11 2.34.09 4.67-.01 6.96-.3h.01c.17-.38.57-.63.99-.58.49.04.88.43.92.92v.15c.41-1.03.5-2.19.2-3.23 0-.03-.01-.06-.02-.09a20.239 20.239 0 0 1-4.15-1.97c-.51-.32-.83-.86-.85-1.45-.03-.59.24-1.15.71-1.5l.6-.46c.68-.51 1.64-.46 2.27.12.08.07.15.13.23.19.41-.8.7-1.68.85-2.57a7.27 7.27 0 0 0-3.28.09c-.54.15-1.11.03-1.56-.31-.44-.34-.69-.86-.68-1.42l.02-2.97c-5.93 3.15-9.6 9.25-9.6 15.98 0 1.11.1 2.23.31 3.34a.998.998 0 0 1-1.96.37c-.23-1.23-.35-2.48-.35-3.71 0-7.6 4.21-14.47 10.99-17.92.07-.03.13-.07.2-.09.52-.19 1.09-.13 1.57.16.37.23.64.58.76.99.06.17.08.35.08.54l-.02 3.04c1.38-.32 2.83-.32 4.21.02.85.2 1.44 1.06 1.32 1.94-.17 1.29-.58 2.53-1.21 3.68-.24.44-.66.77-1.16.9-.47.11-.96.04-1.37-.23-.2-.13-.39-.27-.57-.43l-.2.16c1.04.63 2.15 1.15 3.3 1.55.29.1.73.26 1.07.65.23.28.34.59.42.85.8 2.84-.38 6.11-2.81 7.77z"/><path fill="#0096e6" d="M46.105 22.1c0 5.55-2.33 10.9-6.39 14.69-.07.07-.15.13-.24.18-.27.19-.59.28-.92.28-.06 0-.12 0-.18-.01-.52-.06-.9-.5-.9-1.01v-.09c.06-.5.47-.87.96-.89a18.164 18.164 0 005.67-13.15c0-.12-.01-.24-.01-.35-1.25-.1-2.45-.27-3.59-.49-.48-.1-.9-.4-1.16-.82-.26-.44-.34-.96-.19-1.45.15-.56.34-1.09.57-1.61-.3 0-.62 0-.93-.03-.34-.03-.69-.11-1.01-.25-.33.57-.94.93-1.65.9-2.29-.07-4.57-1.01-6.23-2.58-.49-.46-1.14-1.18-1.32-2.16-.22-1.19.39-2.37 1.43-2.74.59-.21 1.28-.09 1.81.31.23-.3.42-.61.57-.94-.28-.05-.56-.11-.85-.16-.88-.16-1.51-.95-1.46-1.84.04-1.03.09-2.07.15-3.11l.01-.28a18.3 18.3 0 00-4.25-.5c-2.22 0-4.5.44-6.58 1.24-.56.21-1.1.45-1.62.72-.49.25-1.1.06-1.35-.44a.998.998 0 01.44-1.34c.07-.03.13-.07.2-.09 2.71-1.35 5.86-2.09 8.91-2.09 1.67 0 3.32.21 4.92.61.12.03.23.07.34.13.63.31 1.03.97 1 1.7l-.03.44c0 .07-.01.15-.01.22l-.12 2.7c.3.06.6.11.9.16.55.1 1 .43 1.26.9.25.46.3.99.12 1.47-.27.7-.66 1.36-1.16 1.96-.32.37-.76.59-1.24.62-.5.03-.98-.14-1.35-.48-.01 0-.09.16-.09.35 0 .04 0 .07.01.11.06.31.3.66.73 1.08a7.602 7.602 0 004.75 2.02c.02-.33.05-.67.07-1.03.04-.5.45-.9.96-.92.48-.05.95.34 1.03.85.03.18.42.42.91.47.23.02.44.03.67.02.14-.02.29 0 .43.01.61.01 1.17.32 1.49.85.32.51.35 1.14.09 1.69-.22.46-.4.92-.54 1.41.88.17 1.82.3 2.79.39.39.03.78.06 1.18.08.51.03.91.43.94.93v.07c.04.43.06.85.06 1.29zM34.885 33.8c0 .15-.03.29-.1.43-.23.5-.82.72-1.32.48-.22-.1-.42-.26-.58-.46-.07-.08-.13-.17-.18-.26-.05-.09-.1-.18-.15-.26-.56.26-1.16.51-1.79.75.1.14.19.3.26.45.14.29.13.63-.03.91s-.44.47-.76.51c-1.68.19-3.42.21-5.17.05-.56-.06-1.04-.36-1.34-.83-.24-.37-.33-.8-.26-1.21-.4.07-.79.15-1.17.24.36.38.73.75 1.11 1.11 1.12 1.1 2.21 2.16 3.31 3.23.25.25.55.55.81.9.07.09.13.18.18.27.13.2.24.42.34.61.15.3.13.66-.04.95-.16.27-.42.45-.73.48-.03.02-.05.02-.08.02-.45.02-.82.04-1.2.04-6.67 0-12.87-3.3-16.62-8.82a.703.703 0 01-.08-.1.916.916 0 01-.08-.13.998.998 0 01.27-1.19.5.5 0 01.08-.07c.01-.01.02-.01.03-.02.46-.28 1.06-.15 1.36.3.5.74 1.04 1.44 1.64 2.09 3.21 3.54 7.71 5.68 12.53 5.92-1.04-1.01-2.07-2.01-3.09-3.02-.52-.51-1.01-.99-1.47-1.49-.43-.46-.58-1.11-.39-1.72.18-.62.67-1.08 1.29-1.23.66-.15 1.31-.28 1.96-.4.61-.13 1.27.1 1.69.59.36.42.5.98.39 1.51 1.05.08 2.09.1 3.12.04-.01-.17 0-.35.05-.52.14-.57.55-1.03 1.11-1.24.74-.27 1.44-.56 2.09-.87.33-.15.68-.19 1.01-.15.52.07.99.37 1.27.84.08.11.17.27.27.43.29.19.46.51.46.84z"/><path fill="#fff" d="M41.675 17.93c.26-.55.23-1.18-.09-1.69a1.76 1.76 0 0 0-1.49-.85c-.14-.01-.29-.03-.43-.01-.23.01-.44 0-.67-.02-.49-.05-.88-.29-.91-.47-.08-.51-.55-.9-1.03-.85-.51.02-.92.42-.96.92-.02.36-.05.7-.07 1.03a7.602 7.602 0 0 1-4.75-2.02c-.43-.42-.67-.77-.73-1.08-.01-.04-.01-.07-.01-.11 0-.19.08-.35.09-.35.37.34.85.51 1.35.48.48-.03.92-.25 1.24-.62.5-.6.89-1.26 1.16-1.96.18-.48.13-1.01-.12-1.47-.26-.47-.71-.8-1.26-.9-.3-.05-.6-.1-.9-.16l.12-2.7c6.31 2.31 10.85 7.97 11.71 14.63-.97-.09-1.91-.22-2.79-.39.14-.49.32-.95.54-1.41z"/><path fill="#0096e6" d="M46.045 20.74v.07c0 .52-.4.96-.93 1h-.07c-.52 0-.96-.41-1-.94-.03-.38-.06-.76-.12-1.14-.86-6.66-5.4-12.32-11.71-14.63-.39-.14-.8-.27-1.21-.39-.53-.16-.84-.71-.69-1.24.13-.43.51-.72.94-.73.1 0 .2.01.3.04 8.11 2.33 13.93 9.55 14.49 17.96zM32.335 40.94c-.01.01-.02.03-.03.04-.13.17-.31.31-.52.37-.65.2-1.32.36-1.99.48-.83.17-1.67.27-2.52.32-.01.01-.03.01-.04.01h-.09a.996.996 0 01-.06-1.99c.21-.01.41-.03.62-.06 1.08-.09 2.16-.29 3.2-.59.1-.02.21-.05.31-.08a.993.993 0 011.24.67c.09.29.04.59-.12.83z"/><path fill="#0096e6" d="M39.475 37.74V24.39c0-.87-.34-1.7-.97-2.32-.62-.63-1.45-.97-2.32-.97-1.82 0-3.3 1.48-3.3 3.29v13.35c-.78.44-1.45 1.05-1.98 1.78-.09.11-.17.22-.24.33-.4.61-.69 1.28-.87 1.98-.13.52-.2 1.06-.2 1.6 0 3.62 2.95 6.57 6.58 6.57.47 0 .95-.05 1.42-.15 2.46-.51 4.47-2.5 5-4.95.64-2.88-.63-5.73-3.12-7.16zm1.17 6.73c-.37 1.7-1.76 3.07-3.46 3.43-.34.07-.68.1-1.01.1-2.52 0-4.58-2.05-4.58-4.57 0-.86.25-1.71.71-2.45.01-.01.02-.03.03-.04.49-.74 1.17-1.32 1.96-1.68.35-.16.59-.52.59-.91V24.39c0-.71.58-1.29 1.3-1.29.34 0 .66.14.91.38.24.25.38.57.38.91v13.96c0 .39.23.75.59.91 2 .9 3.06 3.04 2.58 5.21z"/><path fill="#fff" d="M38.065 39.26a.998.998 0 0 1-.59-.91V24.39c0-.34-.14-.66-.38-.91-.25-.24-.57-.38-.91-.38-.72 0-1.3.58-1.3 1.29v13.96c0 .39-.24.75-.59.91-.79.36-1.47.94-1.96 1.68-.01.01-.02.03-.03.04-.46.74-.71 1.59-.71 2.45 0 2.52 2.06 4.57 4.58 4.57.33 0 .67-.03 1.01-.1 1.7-.36 3.09-1.73 3.46-3.43.48-2.17-.58-4.31-2.58-5.21zm-1.18 5.12c-.19.19-.44.3-.7.3-.27 0-.53-.11-.71-.3a.994.994 0 0 1-.3-.7 1 1 0 0 1 .3-.71c.37-.37 1.04-.37 1.41 0a.982.982 0 0 1 0 1.41z"/><path fill="#d0e8f9" d="M39.475 34.18v-9.79c0-.87-.34-1.7-.97-2.32-.62-.63-1.45-.97-2.32-.97-1.82 0-3.3 1.48-3.3 3.29v7.3c-.33-.04-.68 0-1.01.15-.65.31-1.35.6-2.09.87-.56.21-.97.67-1.11 1.24-.05.17-.06.35-.05.52-1.03.06-2.07.04-3.12-.04a1.77 1.77 0 0 0-.39-1.51 1.77 1.77 0 0 0-1.69-.59c-.65.12-1.3.25-1.96.4-.62.15-1.11.61-1.29 1.23-.19.61-.04 1.26.39 1.72.46.5.95.98 1.47 1.49 1.02 1.01 2.05 2.01 3.09 3.02-4.82-.24-9.32-2.38-12.53-5.92 1.36-.35 2.45-1.41 3.06-2.01.76-.74 1.92-1.86 2.1-3.39.04-.29-.06-.58-.25-.8-.11-.11-.24-.2-.38-.26-.07-.59-.43-1.11-.98-1.38l-3.36-1.69c.18-.71.43-1.12.74-1.22.16-.05.41-.04.7-.02 2.22.09 4.46 0 6.67-.24-.04.56-.03 1.13.02 1.69.03.36.25.66.57.82.32.15.7.11.99-.09 2.43-1.66 3.61-4.93 2.81-7.77-.08-.26-.19-.57-.42-.85-.34-.39-.78-.55-1.07-.65-1.15-.4-2.26-.92-3.3-1.55l.2-.16c.18.16.37.3.57.43.41.27.9.34 1.37.23.5-.13.92-.46 1.16-.9.63-1.15 1.04-2.39 1.21-3.68.12-.88-.47-1.74-1.32-1.94a9.075 9.075 0 0 0-4.21-.02l.02-3.04c0-.19-.02-.37-.08-.54 2.08-.8 4.36-1.24 6.58-1.24 1.44 0 2.87.17 4.25.5l-.01.28c-.06 1.04-.11 2.08-.15 3.11-.05.89.58 1.68 1.46 1.84.29.05.57.11.85.16-.15.33-.34.64-.57.94-.53-.4-1.22-.52-1.81-.31-1.04.37-1.65 1.55-1.43 2.74.18.98.83 1.7 1.32 2.16 1.66 1.57 3.94 2.51 6.23 2.58.71.03 1.32-.33 1.65-.9.32.14.67.22 1.01.25.31.03.63.03.93.03-.23.52-.42 1.05-.57 1.61-.15.49-.07 1.01.19 1.45.26.42.68.72 1.16.82 1.14.22 2.34.39 3.59.49 0 .11.01.23.01.35 0 4.45-1.67 8.78-4.63 12.08z"/><path fill="#0096e6" d="M37.185 43.68c0 .26-.11.52-.3.7-.19.19-.44.3-.7.3-.27 0-.53-.11-.71-.3a.994.994 0 0 1-.3-.7 1 1 0 0 1 .3-.71c.37-.37 1.04-.37 1.41 0 .19.18.3.44.3.71z"/></svg>