<svg xmlns="http://www.w3.org/2000/svg" id="Layer_1" x="0" y="0" version="1.1" viewBox="0 0 52 52" xml:space="preserve"><path fill="#0393df" d="M30.56 20.31c-.47-.48-1.01-.9-1.61-1.23a7.625 7.625 0 0 0-3.86-1.03c-1.74 0-3.35.57-4.63 1.54-.55.4-1.03.87-1.43 1.4a7.137 7.137 0 0 0-1.57 4.48c0 3.68 2.77 6.75 6.4 7.31.4.08.81.11 1.23.11a7.61 7.61 0 0 0 4.62-1.54c.55-.39 1.04-.86 1.44-1.39.99-1.24 1.57-2.8 1.57-4.49 0-2.01-.82-3.83-2.16-5.16zm-5.47 10.58c-3.1 0-5.63-2.43-5.63-5.42 0-2.99 2.53-5.42 5.63-5.42s5.63 2.43 5.63 5.42c0 2.99-2.53 5.42-5.63 5.42z"/><path fill="#fff" d="M30.72 25.47c0 2.99-2.53 5.42-5.63 5.42s-5.63-2.43-5.63-5.42c0-2.99 2.53-5.42 5.63-5.42s5.63 2.43 5.63 5.42z"/><path fill="#0393df" d="M7.42 3.07C4.43 3.07 2 5.44 2 8.35s2.43 5.28 5.42 5.28c1.13 0 2.19-.34 3.06-.92.56-.38 1.04-.85 1.43-1.4v-.01c.59-.85.93-1.86.93-2.95 0-2.91-2.44-5.28-5.42-5.28zm0 8.56C5.53 11.63 4 10.16 4 8.35s1.53-3.28 3.42-3.28c1.88 0 3.42 1.47 3.42 3.28s-1.54 3.28-3.42 3.28z"/><path fill="#d0e8f9" d="M10.84 8.35c0 1.81-1.54 3.28-3.42 3.28C5.53 11.63 4 10.16 4 8.35s1.53-3.28 3.42-3.28c1.88 0 3.42 1.47 3.42 3.28z"/><path fill="#0393df" d="M44.58 39.45c-1.13 0-2.18.34-3.05.91-.56.38-1.05.85-1.43 1.4-.59.85-.94 1.86-.94 2.96 0 2.92 2.43 5.28 5.42 5.28S50 47.64 50 44.72c0-2.91-2.43-5.27-5.42-5.27zm0 8.55c-1.89 0-3.42-1.47-3.42-3.28 0-1.8 1.53-3.27 3.42-3.27 1.88 0 3.42 1.47 3.42 3.27 0 1.81-1.54 3.28-3.42 3.28z"/><path fill="#d0e8f9" d="M48 44.72c0 1.81-1.54 3.28-3.42 3.28-1.89 0-3.42-1.47-3.42-3.28 0-1.8 1.53-3.27 3.42-3.27 1.88 0 3.42 1.47 3.42 3.27z"/><path fill="#0393df" d="M24.53 38.63c-.52-.16-1.08-.25-1.65-.25-.12 0-.24 0-.35.02-2.83.17-5.07 2.46-5.07 5.25 0 2.92 2.43 5.28 5.42 5.28s5.42-2.36 5.42-5.28c0-2.35-1.58-4.34-3.77-5.02zm-1.65 8.3c-1.88 0-3.42-1.47-3.42-3.28 0-1.8 1.54-3.27 3.42-3.27 1.89 0 3.42 1.47 3.42 3.27 0 1.81-1.53 3.28-3.42 3.28z"/><path fill="#fff" d="M26.3 43.65c0 1.81-1.53 3.28-3.42 3.28-1.88 0-3.42-1.47-3.42-3.28 0-1.8 1.54-3.27 3.42-3.27 1.89 0 3.42 1.47 3.42 3.27z"/><path fill="#0393df" d="M36.14 2c-2.99 0-5.42 2.37-5.42 5.28 0 1.86.99 3.5 2.49 4.44a5.518 5.518 0 0 0 2.93.84c2.99 0 5.42-2.37 5.42-5.28S39.13 2 36.14 2zm0 8.56c-1.89 0-3.42-1.47-3.42-3.28S34.25 4 36.14 4c1.88 0 3.42 1.47 3.42 3.28s-1.54 3.28-3.42 3.28z"/><path fill="#d0e8f9" d="M39.56 7.28c0 1.81-1.54 3.28-3.42 3.28-1.89 0-3.42-1.47-3.42-3.28S34.25 4 36.14 4c1.88 0 3.42 1.47 3.42 3.28z"/><path fill="#0393df" d="M14.473 9.289h2v13.73h-2z" transform="rotate(-45.916 15.473 16.154)"/><path fill="#0393df" d="M26.962 14.706h10.193v2H26.962z" transform="rotate(-60.005 32.058 15.706)"/><path fill="#0393df" d="M20.35 34.642h7.715v2h-7.714z" transform="rotate(-76.764 24.208 35.642)"/><path fill="#0393df" d="M34.616 27.59h2v16.525h-2z" transform="rotate(-44.964 35.616 35.853)"/></svg>