<svg xmlns="http://www.w3.org/2000/svg" id="Layer_1" x="0" y="0" version="1.1" viewBox="0 0 52 52" xml:space="preserve"><path fill="#0096e6" d="M19.962 3.998c-1.84-1.26-4.07-2-6.46-2-6.34 0-11.5 5.16-11.5 11.5v30.5c0 .56.44 1 1 1h21c.55 0 1-.44 1-1v-30.5c0-3.95-2-7.43-5.04-9.5zm-15.96 39v-29.5c0-5.23 4.26-9.5 9.5-9.5s9.5 4.27 9.5 9.5v29.5h-19z"/><path fill="#fff" d="M13.502 3.998c-5.24 0-9.5 4.27-9.5 9.5v29.5h19v-29.5c0-5.23-4.26-9.5-9.5-9.5zm7.5 26c0 .56-.45 1-1 1h-13c-.56 0-1-.44-1-1v-8c0-.55.44-1 1-1h13c.55 0 1 .45 1 1v8z"/><path fill="#0096e6" d="M20.002 20.998h-13c-.56 0-1 .45-1 1v8c0 .56.44 1 1 1h13c.55 0 1-.44 1-1v-8c0-.55-.45-1-1-1zm-1 8h-11v-6h11v6z"/><path fill="#d0e8f9" d="M16.472 22.998l-2.97 1.83-2.97-1.83z"/><path fill="#d0e8f9" d="M19.002 23.798v5.2h-11v-5.2l4.97 3.06c.16.09.35.14.53.14s.36-.05.52-.14l4.98-3.06z"/><path fill="#0096e6" d="M20.522 22.858l-1.52.94-4.98 3.06c-.16.09-.34.14-.52.14s-.37-.05-.53-.14l-4.97-3.06-1.53-.94 1.05-1.71 3.01 1.85 2.97 1.83 2.97-1.83 3-1.85 1.05 1.71z"/><path fill="#0096e6" d="M50.002 13.498v30.5c0 .56-.45 1-1 1h-26v-2h25v-29.5c0-5.23-4.26-9.5-9.5-9.5h-25v-2h25.08c6.3.05 11.42 5.19 11.42 11.5zM2.998 50.002a1 1 0 01-1-1v-5a1 1 0 112 0v5a1 1 0 01-1 1z"/><path fill="#0096e6" d="M23.998 50.002a1 1 0 01-1-1v-5a1 1 0 112 0v5a1 1 0 01-1 1zM48.998 50.002a1 1 0 01-1-1v-5a1 1 0 112 0v5a1 1 0 01-1 1zM44.002 21.998h-15c-.56 0-1 .45-1 1v10c0 .56.44 1 1 1h15c.55 0 1-.44 1-1v-10c0-.55-.45-1-1-1zm-1 10h-13v-8h13v8z"/><path fill="#d0e8f9" d="M38.502 3.998h-18.54c3.04 2.07 5.04 5.55 5.04 9.5v29.5h23v-29.5c0-5.23-4.26-9.5-9.5-9.5zm6.5 29c0 .56-.45 1-1 1h-15c-.56 0-1-.44-1-1v-10c0-.55.44-1 1-1h15c.55 0 1 .45 1 1v10zm-1-14h-15c-.56 0-1-.44-1-1 0-.55.44-1 1-1h15c.55 0 1 .45 1 1 0 .56-.45 1-1 1z"/><path fill="#fff" d="M30.002 23.998h13v8h-13z"/><path fill="#0096e6" d="M45.002 17.998c0 .56-.45 1-1 1h-15c-.56 0-1-.44-1-1 0-.55.44-1 1-1h15c.55 0 1 .45 1 1z"/></svg>