<svg xmlns="http://www.w3.org/2000/svg" id="Layer_1" x="0" y="0" version="1.1" viewBox="0 0 52 52" xml:space="preserve"><path fill="#0096e6" d="M36.874 15.69L30.47 4.571A5.082 5.082 0 0026.023 2h-.002a5.08 5.08 0 00-4.446 2.567l-4.308 7.458L16.041 7.6a1.001 1.001 0 00-1.928.534l1.864 6.724a.991.991 0 00.157.319c.018.025.043.043.064.066a.99.99 0 00.206.182c.014.009.022.024.037.032.022.013.047.013.07.023a.98.98 0 00.233.08c.043.008.083.017.126.02.024.002.046.012.07.012.081 0 .163-.013.245-.034.005-.001.011 0 .016-.002h.008l6.724-1.865a1 1 0 00-.535-1.928l-4.368 1.211 4.277-7.406A3.102 3.102 0 0126.021 4h.001c1.135 0 2.15.588 2.716 1.57l6.403 11.117a.999.999 0 101.733-.998zM49.293 37.34L40.6 22.464l4.698 1.054a.999.999 0 10.438-1.951l-6.94-1.558c-.05-.011-.1 0-.15-.003-.074-.005-.145-.016-.218-.005-.068.01-.13.042-.194.066-.054.02-.11.025-.161.055-.007.004-.01.01-.017.014-.006.004-.013.004-.02.008-.049.032-.08.081-.123.12-.05.047-.107.087-.146.142-.03.043-.045.095-.069.142-.034.07-.072.135-.09.21-.001.008-.007.015-.009.023l-1.42 6.802a1 1 0 101.957.408l.89-4.258 8.54 14.618c.573.981.578 2.156.012 3.142a3.1 3.1 0 01-2.718 1.574h-5.954a1 1 0 100 2h5.954a5.08 5.08 0 004.452-2.579 5.08 5.08 0 00-.02-5.146zM33.786 43.681a1 1 0 00-.216-.323l-4.934-4.934a1 1 0 10-1.414 1.414l3.228 3.228H7.14A3.105 3.105 0 014.426 41.5a3.107 3.107 0 01-.003-3.133l9.252-16.063a1 1 0 10-1.732-.998L2.69 37.37a5.086 5.086 0 00.004 5.132 5.084 5.084 0 004.445 2.565h23.31l-3.228 3.227a1 1 0 101.414 1.414l4.934-4.933a1 1 0 00.216-1.093z"/></svg>