<svg xmlns="http://www.w3.org/2000/svg" id="Layer_1" x="0" y="0" version="1.1" viewBox="0 0 52 52" xml:space="preserve"><path fill="#0393df" d="M34.108 27.272c-7.109 0-12.892-5.667-12.892-12.632h2c0 5.863 4.886 10.632 10.892 10.632s10.891-4.77 10.891-10.632h2c0 6.965-5.783 12.632-12.891 12.632z"/><path fill="#0393df" d="M47 14.64h-2V6.71c0-.615-.522-1.115-1.163-1.115h-3.243v-2h3.243C45.581 3.594 47 4.992 47 6.71v7.931zM22.216 49.479c-7.108 0-12.891-5.666-12.891-12.632h2c0 5.862 4.885 10.632 10.891 10.632s10.892-4.77 10.892-10.632h2c0 6.965-5.783 12.632-12.892 12.632zM33.108 26.801h2v10.046h-2zM9.325 28.916h2v7.931h-2zM23.216 14.64h-2V6.71c0-1.717 1.42-3.115 3.162-3.115h3.244v2h-3.244c-.64 0-1.162.5-1.162 1.115v7.931z"/><path fill="#0393df" d="M27 2.521h2v4.093h-2zM39 2.604h2v4.01h-2zM10.32 19.454c-2.93 0-5.32 2.35-5.32 5.23 0 2.55 1.86 4.68 4.32 5.13.32.07.66.1 1 .1.34 0 .68-.03 1-.1 2.47-.45 4.33-2.58 4.33-5.13 0-2.88-2.39-5.23-5.33-5.23zm0 8.46c-1.83 0-3.32-1.45-3.32-3.23s1.49-3.23 3.32-3.23c1.84 0 3.33 1.45 3.33 3.23s-1.49 3.23-3.33 3.23z"/><path fill="#d0e8f9" d="M13.65 24.684c0 1.78-1.49 3.23-3.33 3.23-1.83 0-3.32-1.45-3.32-3.23s1.49-3.23 3.32-3.23c1.84 0 3.33 1.45 3.33 3.23z"/></svg>