<svg viewBox="0 0 366 171" fill="none" xmlns="http://www.w3.org/2000/svg">
<circle cx="3.94606" cy="3.94606" r="3.94606" fill="#DBE2ED"/>
<circle cx="101.611" cy="3.94606" r="3.94606" fill="#DBE2ED"/>
<circle cx="69.0574" cy="3.94606" r="3.94606" fill="#DBE2ED"/>
<circle cx="166.72" cy="3.94606" r="3.94606" fill="#DBE2ED"/>
<circle cx="36.4968" cy="3.94606" r="3.94606" fill="#DBE2ED"/>
<circle cx="134.169" cy="3.94606" r="3.94606" fill="#DBE2ED"/>
<circle cx="3.94606" cy="134.165" r="3.94606" fill="#DBE2ED"/>
<circle cx="101.611" cy="134.165" r="3.94606" fill="#DBE2ED"/>
<circle cx="69.0574" cy="134.165" r="3.94606" fill="#DBE2ED"/>
<circle cx="166.72" cy="134.165" r="3.94606" fill="#DBE2ED"/>
<circle cx="36.4968" cy="134.165" r="3.94606" fill="#DBE2ED"/>
<circle cx="134.169" cy="134.165" r="3.94606" fill="#DBE2ED"/>
<circle cx="3.94606" cy="69.0545" r="3.94606" fill="#DBE2ED"/>
<circle cx="101.611" cy="69.0545" r="3.94606" fill="#DBE2ED"/>
<circle cx="69.0574" cy="69.0545" r="3.94606" fill="#DBE2ED"/>
<circle cx="166.72" cy="69.0545" r="3.94606" fill="#DBE2ED"/>
<circle cx="36.4968" cy="69.0545" r="3.94606" fill="#DBE2ED"/>
<circle cx="134.169" cy="69.0545" r="3.94606" fill="#DBE2ED"/>
<circle cx="3.94606" cy="36.5008" r="3.94606" fill="#DBE2ED"/>
<circle cx="101.611" cy="36.5012" r="3.94606" fill="#DBE2ED"/>
<circle cx="69.0574" cy="36.5012" r="3.94606" fill="#DBE2ED"/>
<circle cx="166.72" cy="36.5012" r="3.94606" fill="#DBE2ED"/>
<circle cx="36.4968" cy="36.5012" r="3.94606" fill="#DBE2ED"/>
<circle cx="134.169" cy="36.5012" r="3.94606" fill="#DBE2ED"/>
<circle cx="3.94606" cy="166.721" r="3.94606" fill="#DBE2ED"/>
<circle cx="101.611" cy="166.721" r="3.94606" fill="#DBE2ED"/>
<circle cx="69.0574" cy="166.721" r="3.94606" fill="#DBE2ED"/>
<circle cx="166.72" cy="166.721" r="3.94606" fill="#DBE2ED"/>
<circle cx="36.4968" cy="166.721" r="3.94606" fill="#DBE2ED"/>
<circle cx="134.169" cy="166.721" r="3.94606" fill="#DBE2ED"/>
<circle cx="3.94606" cy="101.609" r="3.94606" fill="#DBE2ED"/>
<circle cx="101.611" cy="101.609" r="3.94606" fill="#DBE2ED"/>
<circle cx="69.0574" cy="101.609" r="3.94606" fill="#DBE2ED"/>
<circle cx="166.72" cy="101.609" r="3.94606" fill="#DBE2ED"/>
<circle cx="36.4968" cy="101.609" r="3.94606" fill="#DBE2ED"/>
<circle cx="134.169" cy="101.609" r="3.94606" fill="#DBE2ED"/>
<circle cx="199.28" cy="3.94606" r="3.94606" fill="#DBE2ED"/>
<circle cx="296.946" cy="3.94606" r="3.94606" fill="#DBE2ED"/>
<circle cx="264.39" cy="3.94606" r="3.94606" fill="#DBE2ED"/>
<circle cx="362.053" cy="3.94606" r="3.94606" fill="#DBE2ED"/>
<circle cx="231.83" cy="3.94606" r="3.94606" fill="#DBE2ED"/>
<circle cx="329.503" cy="3.94606" r="3.94606" fill="#DBE2ED"/>
<circle cx="199.28" cy="134.165" r="3.94606" fill="#DBE2ED"/>
<circle cx="296.946" cy="134.165" r="3.94606" fill="#DBE2ED"/>
<circle cx="264.39" cy="134.165" r="3.94606" fill="#DBE2ED"/>
<circle cx="362.053" cy="134.165" r="3.94606" fill="#DBE2ED"/>
<circle cx="231.83" cy="134.165" r="3.94606" fill="#DBE2ED"/>
<circle cx="329.503" cy="134.165" r="3.94606" fill="#DBE2ED"/>
<circle cx="199.28" cy="69.0545" r="3.94606" fill="#DBE2ED"/>
<circle cx="296.946" cy="69.0545" r="3.94606" fill="#DBE2ED"/>
<circle cx="264.39" cy="69.0545" r="3.94606" fill="#DBE2ED"/>
<circle cx="362.053" cy="69.0545" r="3.94606" fill="#DBE2ED"/>
<circle cx="231.83" cy="69.0545" r="3.94606" fill="#DBE2ED"/>
<circle cx="329.503" cy="69.0545" r="3.94606" fill="#DBE2ED"/>
<circle cx="199.28" cy="36.4993" r="3.94606" fill="#DBE2ED"/>
<circle cx="296.946" cy="36.4993" r="3.94606" fill="#DBE2ED"/>
<circle cx="264.39" cy="36.4993" r="3.94606" fill="#DBE2ED"/>
<circle cx="362.053" cy="36.4993" r="3.94606" fill="#DBE2ED"/>
<circle cx="231.83" cy="36.4993" r="3.94606" fill="#DBE2ED"/>
<circle cx="329.503" cy="36.4993" r="3.94606" fill="#DBE2ED"/>
<circle cx="199.28" cy="166.721" r="3.94606" fill="#DBE2ED"/>
<circle cx="296.946" cy="166.721" r="3.94606" fill="#DBE2ED"/>
<circle cx="264.39" cy="166.721" r="3.94606" fill="#DBE2ED"/>
<circle cx="362.053" cy="166.721" r="3.94606" fill="#DBE2ED"/>
<circle cx="231.83" cy="166.721" r="3.94606" fill="#DBE2ED"/>
<circle cx="329.503" cy="166.721" r="3.94606" fill="#DBE2ED"/>
<circle cx="199.28" cy="101.61" r="3.94606" fill="#DBE2ED"/>
<circle cx="296.946" cy="101.61" r="3.94606" fill="#DBE2ED"/>
<circle cx="264.39" cy="101.61" r="3.94606" fill="#DBE2ED"/>
<circle cx="362.053" cy="101.61" r="3.94606" fill="#DBE2ED"/>
<circle cx="231.83" cy="101.61" r="3.94606" fill="#DBE2ED"/>
<circle cx="329.503" cy="101.61" r="3.94606" fill="#DBE2ED"/>
</svg>
