<?xml version="1.0" encoding="UTF-8" standalone="no"?><!DOCTYPE svg PUBLIC "-//W3C//DTD SVG 1.1//EN" "http://www.w3.org/Graphics/SVG/1.1/DTD/svg11.dtd"><svg width="100%" height="100%" viewBox="0 0 1349 712" version="1.1" xmlns="http://www.w3.org/2000/svg" xmlns:xlink="http://www.w3.org/1999/xlink" xml:space="preserve" xmlns:serif="http://www.serif.com/" style="fill-rule:evenodd;clip-rule:evenodd;stroke-linecap:round;stroke-linejoin:round;"><g><path d="M1053.88,112.775c-15.077,-15.914 -32.667,-24.29 -51.932,-24.29c-9.213,-0 -18.427,1.675 -27.641,5.863c-18.427,8.376 -39.367,18.427 -56.119,35.179c-23.453,22.615 -45.231,46.068 -66.171,69.521c-10.888,11.727 -20.94,23.453 -32.666,34.342c-7.538,-12.564 -20.94,-20.94 -40.205,-24.291c-12.564,-2.512 -25.128,-3.35 -38.53,-3.35l-0.837,-0c-28.479,-0 -46.068,10.051 -55.282,30.154c-11.726,-7.539 -26.803,-10.889 -39.367,-12.564c-6.701,-0.838 -10.889,-1.676 -15.915,-1.676c-35.179,0 -45.23,27.641 -50.256,42.718l0,0.838c-10.889,33.504 -22.615,66.17 -34.342,99.674c-3.35,-21.777 -14.239,-42.717 -51.093,-42.717c-7.539,-0 -16.752,0.837 -24.291,1.675c-30.153,3.35 -50.256,18.427 -61.982,45.23c-4.188,10.052 -9.214,20.103 -13.402,30.992c-4.188,10.051 -9.214,20.94 -13.402,30.991c0.838,-10.051 0.838,-20.103 0.838,-29.316c0.838,-34.342 -18.427,-54.444 -51.931,-55.282l-6.701,0c-20.103,0 -37.692,2.513 -51.932,6.701c-29.316,8.376 -57.794,18.427 -87.11,27.641c-5.863,1.675 -11.727,4.188 -16.752,5.863l-17.59,5.863c-20.102,6.701 -41.042,14.239 -61.982,20.94c-7.539,2.513 -15.077,5.026 -21.778,7.539c-5.026,1.675 -10.051,2.512 -15.077,1.675c-5.863,-0.838 -10.051,-5.026 -10.051,-10.889l-0,-19.265c-31.829,10.051 -41.88,80.41 -40.205,85.436c7.538,30.991 37.692,54.444 69.521,54.444c5.026,-0 10.051,-0.838 15.077,-1.675c7.538,-1.676 15.077,-3.351 22.615,-5.864l0,72.872c0,58.632 9.214,70.358 68.683,78.734c6.701,0.838 12.564,1.676 17.59,1.676c12.564,-0 25.966,-21.778 36.855,-37.693l20.94,-31.828c0.837,-5.026 -17.59,8.376 -17.59,1.675c0.838,-39.368 2.513,-75.384 7.538,-128.153l3.351,-1.676l14.239,130.666c3.35,22.616 17.59,38.53 38.53,41.88l14.239,2.513c15.077,2.513 30.991,5.026 46.906,7.539c2.513,0.837 5.025,0.837 6.701,0.837c18.427,0 32.666,-10.051 42.717,-26.803l24.291,-41.88l-0,-0.838l0.837,4.188c6.701,36.855 31.829,45.231 42.718,47.744c17.59,3.35 36.017,5.863 59.47,8.376c2.513,0.837 4.188,0.837 6.701,0.837c12.564,0 54.444,-30.991 67.845,-61.982c26.804,-61.983 34.342,-100.513 58.633,-170.871c-0.838,15.077 -2.513,30.154 -3.351,44.393l-5.863,76.222l-0,20.102c-2.513,64.495 13.402,82.085 77.897,87.948l11.726,0c16.752,0 29.316,-27.641 39.368,-37.692c0.837,-1.675 5.025,-9.213 5.025,-10.889l8.376,-15.914l-5.863,-43.555c3.35,-25.966 5.863,-51.932 9.214,-77.897c1.675,41.042 2.513,80.409 -2.513,119.777c-3.351,25.128 9.214,46.905 32.666,54.444c15.077,5.025 30.992,8.376 47.744,10.051c2.513,0.838 5.025,0.838 8.376,0.838c14.239,-0 51.931,-32.667 72.871,-72.872l-26.803,-56.957c54.444,-33.504 97.999,-77.059 130.666,-128.99c20.94,-33.504 46.068,-79.573 48.581,-139.88l-0,-1.675c-5.026,-51.094 -25.128,-97.162 -62.82,-137.367Zm-82.923,178.409c-6.701,16.752 -14.239,30.992 -23.453,44.393l3.35,-43.555c1.676,-1.675 4.189,-3.35 6.701,-5.026l0.838,-0.837l0.838,-0c6.7,-5.026 12.564,-10.052 18.427,-14.24c-2.513,6.701 -4.188,12.565 -6.701,19.265Z" style="fill-rule:nonzero;"/><g><path d="M1262.45,72.693c-20.941,-7.539 -43.556,-2.513 -59.47,10.889l15.914,-56.12l-73.709,126.478c0,0 -73.503,220.226 -73.503,272.157c-0,42.718 36.854,65.333 56.957,74.547c20.102,18.427 49.418,21.777 73.709,7.538c25.128,-15.077 30.991,-35.179 51.931,-66.17c0,-5.864 -20.94,-21.778 -18.427,-35.18c5.025,-26.803 13.401,-62.82 24.29,-103.862c21.778,-80.41 23.248,-87.885 43.35,-148.192c10.051,-34.342 -7.538,-70.359 -41.042,-82.085Z" style="fill-rule:nonzero;"/><path d="M1294.27,14.061c33.505,11.726 51.094,47.743 40.205,82.085c-19.265,61.145 -21.572,67.782 -43.349,148.192c-10.889,40.204 -19.265,76.221 -24.291,103.862c-0.838,2.513 -0.838,5.863 -1.675,8.376c-1.675,10.889 -1.675,21.778 -0.838,32.667c1.675,23.453 -9.213,47.743 -30.991,60.307c-30.154,17.59 -68.683,7.539 -86.273,-23.453c-8.376,-14.239 -10.051,-27.641 -10.889,-34.341c-0.837,-8.376 -0.837,-15.915 0,-22.616c0.838,-13.401 3.351,-29.316 5.863,-45.23c5.864,-31.829 15.915,-72.034 26.804,-113.914c21.777,-83.76 24.922,-92.91 45.025,-154.893c11.726,-34.342 47.743,-52.769 80.409,-41.042Z" style="fill:#fff;stroke:#000;stroke-width:21.06px;"/></g><g><path d="M1151.8,559.024c-22.615,-5.863 -43.555,-36.017 -66.17,-28.479c-20.941,6.701 -37.693,60.308 -36.855,81.248l0,5.025c0,2.513 0.838,5.864 0.838,10.052c0.837,7.538 2.512,18.427 5.863,29.316c2.513,9.213 9.213,26.803 24.29,40.205c9.214,7.538 21.778,14.239 37.692,15.076c15.915,0.838 29.317,-4.188 38.53,-10.051c15.915,-9.213 28.479,-22.615 36.017,-36.854c7.538,-13.402 35.179,-49.419 30.154,-70.359c-4.188,-25.966 -43.556,-28.478 -70.359,-35.179Z" style="fill-rule:nonzero;"/><path d="M1090.65,552.323l0,3.35c0,2.513 0.838,5.864 0.838,9.214c0.837,7.538 2.513,17.59 5.863,27.641c2.513,8.376 8.376,24.29 21.778,35.179c7.538,6.701 18.427,11.727 31.829,12.564c13.401,0.838 24.29,-3.35 32.666,-8.376c14.239,-8.376 25.128,-20.102 32.666,-32.666c6.701,-11.727 12.565,-29.316 8.377,-46.906c-4.189,-20.94 -20.103,-36.854 -43.556,-42.718c-19.265,-5.025 -41.88,-1.675 -63.658,5.026c-16.752,5.863 -27.64,20.94 -26.803,37.692Zm0,0l0,0Z" style="fill:#fff;fill-rule:nonzero;stroke:#000;stroke-width:21.06px;stroke-miterlimit:10;"/></g><g><path d="M223.816,619.524c-5.026,0 -10.889,-0.837 -17.59,-1.675c-59.47,-8.376 -68.683,-20.102 -68.683,-78.734l-0,-72.872c-7.539,2.513 -15.077,4.188 -22.616,5.863c-5.025,0.838 -10.051,1.676 -15.076,1.676c-32.667,-0 -61.983,-23.453 -69.521,-54.445c-0.838,-5.025 -6.701,-32.666 25.965,-42.717l0.838,-0.838l31.829,-10.889c30.153,-10.051 60.307,-20.94 91.298,-30.991l17.59,-5.863c34.342,-10.889 68.683,-23.453 103.863,-33.504c15.077,-4.188 31.829,-6.701 51.931,-6.701l6.701,-0c32.666,0.838 51.931,20.94 51.931,55.282c0,10.051 0,20.102 -0.837,29.316c9.213,-20.103 18.427,-41.043 26.803,-61.983c11.726,-27.641 31.829,-42.718 61.983,-45.23c8.376,-0.838 16.752,-1.676 24.29,-1.676c36.854,0 47.743,21.778 51.094,42.718c11.726,-33.504 22.615,-66.17 34.341,-99.674c5.026,-15.077 15.077,-43.556 50.257,-43.556c5.025,0 9.213,0.838 15.914,1.675c19.265,2.513 42.718,8.376 55.282,29.316c12.564,20.103 7.538,43.556 1.675,61.983c-34.342,112.239 -71.196,212.751 -111.401,304.887c-13.402,30.992 -37.692,36.017 -50.256,36.017c-2.513,0 -4.188,0 -6.701,-0.837c-22.615,-2.513 -41.88,-5.026 -59.47,-8.376c-10.889,-2.513 -36.017,-10.889 -42.718,-47.744l-0.837,-4.188l-0,0.838c-8.376,14.239 -15.915,27.641 -24.291,41.88c-9.213,16.752 -24.29,26.803 -42.717,26.803c-2.513,0 -5.026,0 -6.701,-0.837c-15.915,-2.513 -31.829,-5.026 -46.906,-7.539l-14.239,-2.513c-20.94,-3.35 -35.179,-19.265 -38.53,-41.88l-14.239,-130.666c-0.838,0.838 -2.513,0.838 -3.351,1.675c-5.025,52.769 -6.7,88.786 -7.538,128.154c0,6.7 -0.838,12.564 -2.513,17.589c-0.837,1.675 -0.837,3.351 -0.837,5.026c1.675,16.752 -2.513,45.23 -36.017,45.23Z" style="fill-rule:nonzero;"/><path d="M929.914,592.721c-2.512,0 -5.025,0 -8.376,-0.837c-16.752,-1.676 -32.666,-5.026 -47.743,-10.052c-22.615,-6.701 -36.017,-29.316 -32.666,-54.444c5.863,-45.23 4.188,-89.623 2.512,-136.529c-0.837,-17.59 -1.675,-36.017 -1.675,-54.444c-0.837,-19.265 -0.837,-38.53 -0.837,-57.795c-0,-17.589 -0.838,-35.179 -0.838,-53.606c-0.838,-20.103 6.701,-36.855 19.265,-50.256c10.889,-10.889 21.778,-23.453 32.666,-35.18c20.94,-23.453 43.556,-46.905 66.171,-69.521c16.752,-15.914 37.692,-26.803 56.119,-35.179c9.214,-4.188 18.428,-5.863 27.641,-5.863c18.427,-0 36.855,8.376 51.931,24.29c37.693,40.205 57.795,86.273 60.308,138.205l-0,1.675c-2.513,59.47 -26.803,105.538 -48.581,139.879c-32.667,51.094 -76.222,94.649 -130.666,128.991c-0.838,19.265 -2.513,39.367 -3.35,57.795c-0.838,10.051 -0.838,18.427 -1.676,28.478c-1.675,38.53 -25.965,44.393 -40.205,44.393Zm61.983,-359.331c-0.838,14.239 -2.513,29.316 -3.35,43.555c9.213,-13.402 16.752,-27.641 23.452,-44.393c2.513,-6.701 4.188,-12.564 5.864,-19.265c-5.864,5.026 -11.727,10.052 -18.428,14.24c-2.512,2.512 -5.025,3.35 -7.538,5.863Z" style="fill-rule:nonzero;"/><path d="M787.522,593.559c-3.35,-0 -7.538,-0.838 -12.564,-0.838c-64.495,-5.863 -79.572,-23.453 -77.897,-87.948l0,-20.103l5.863,-76.221c5.026,-67.009 10.051,-134.854 15.077,-202.7c3.35,-39.367 22.615,-57.795 61.145,-57.795l0.838,0c14.239,0 26.803,0.838 38.529,3.351c35.18,6.701 51.932,29.316 47.744,65.333c-2.513,15.914 -3.351,31.829 -5.864,48.581c-1.675,14.239 -3.35,27.641 -5.025,42.717c-6.701,59.47 -14.239,118.94 -20.94,178.41l-6.701,59.469l-0,0.838c-0,1.675 -0,2.513 -0.838,4.188c-0.837,11.726 -5.025,42.718 -39.367,42.718Z" style="fill-rule:nonzero;"/><path d="M673.608,192.347c-24.29,-3.35 -30.154,0.838 -37.692,24.291c-25.966,77.059 -52.769,153.281 -79.572,229.503c-1.675,4.188 -3.351,8.376 -5.026,12.564l0,-123.128c0,-42.717 -4.188,-45.23 -47.743,-41.042c-20.103,2.513 -31.829,10.889 -40.205,29.316c-20.94,48.581 -42.718,96.324 -64.495,144.067c-3.351,6.701 -8.376,13.402 -12.564,20.103c-0.838,-0.838 -2.513,-0.838 -3.351,-1.675l0,-14.24c0.838,-42.717 1.675,-84.597 2.513,-127.315c-0,-19.265 -6.701,-27.641 -25.966,-28.479c-16.752,-0.837 -35.179,0.838 -51.093,5.026c-40.205,11.726 -80.41,25.128 -120.615,38.53c-41.043,14.239 -82.085,28.478 -123.128,42.717c-4.188,0.838 -10.888,1.676 -8.376,10.889c5.026,21.778 30.992,37.692 52.769,32.667c18.428,-4.188 36.855,-10.051 55.282,-15.077l0,108.051c0,45.23 0,45.23 46.068,52.769c22.615,3.35 24.291,2.512 26.803,-20.103c0.838,-6.701 2.513,-13.402 2.513,-20.102c0.838,-40.205 2.513,-78.735 8.376,-134.854c0.838,-10.889 2.513,-10.052 6.701,-12.564c14.239,-6.701 28.479,-14.24 44.393,-21.778l18.427,168.358c0.838,9.214 5.863,16.752 15.915,18.427c20.102,3.351 40.205,6.701 60.307,10.051c10.051,0.838 17.59,-3.35 22.615,-12.564c12.564,-22.615 25.966,-45.23 38.53,-67.008c6.701,-12.564 14.239,-25.128 21.778,-39.367c5.025,27.641 9.213,51.931 14.239,77.059c2.513,12.564 8.376,23.453 21.778,25.966c18.427,3.35 37.692,5.863 56.119,8.376c14.239,1.675 23.453,-5.026 29.316,-19.265c42.718,-98.837 78.735,-199.349 110.563,-302.374c11.727,-38.53 2.513,-51.932 -35.179,-57.795Z" style="fill:#fff;fill-rule:nonzero;"/><path d="M1128.43,193.185c-2.513,47.743 -20.102,87.948 -44.393,126.478c-31.829,50.256 -72.871,89.623 -122.29,120.615c-8.376,5.025 -11.726,10.888 -12.564,20.102c-0.837,29.316 -3.35,57.795 -5.025,87.111c-0.838,15.914 -5.026,20.102 -20.103,18.427c-14.239,-1.675 -28.478,-4.188 -42.717,-9.214c-10.889,-3.35 -15.077,-13.401 -14.24,-24.29c8.376,-64.496 1.675,-130.666 0.838,-195.162c-0.838,-36.854 -0.838,-73.709 -1.675,-111.401c-0,-12.564 3.35,-22.615 12.564,-31.829c32.666,-34.341 64.495,-70.358 98.837,-103.862c13.401,-12.564 30.991,-21.778 48.581,-29.316c18.427,-8.376 35.179,-3.351 49.418,11.726c31.829,35.179 50.256,74.547 52.769,120.615Zm-170.871,151.606c38.53,-25.966 64.496,-60.307 79.573,-103.025c5.863,-15.915 9.213,-32.667 10.888,-49.419c0.838,-17.589 -9.213,-24.29 -24.29,-15.914c-19.265,11.726 -36.017,26.803 -53.607,41.042c-1.675,1.676 -2.512,5.026 -3.35,6.701c-3.35,40.205 -6.701,80.41 -9.214,120.615Z" style="fill:#fff;fill-rule:nonzero;"/><path d="M723.864,484.67c6.701,-90.461 14.24,-184.272 20.94,-278.083c2.513,-25.966 10.052,-33.505 35.18,-33.505c11.726,0 22.615,0.838 34.341,3.351c20.94,3.35 28.479,14.239 25.966,36.017c-3.35,30.153 -7.538,60.307 -10.889,90.461c-9.213,79.572 -18.427,159.144 -28.478,237.879c-0,1.675 -0,3.35 -0.838,5.025c-2.513,20.103 -3.35,20.94 -23.453,18.428c-50.256,-5.026 -55.282,-10.052 -53.606,-60.308c0.837,-4.188 0.837,-10.051 0.837,-19.265Z" style="fill:#fff;fill-rule:nonzero;"/></g></g></svg>