<svg width="540" height="500" viewBox="0 0 540 500" fill="none" xmlns="http://www.w3.org/2000/svg">
<g clip-path="url(#clip0_280_1539)">
<rect width="540" height="500" fill="white"/>
<path d="M90 225C90 100.736 190.736 0 315 0V0C439.264 0 540 100.736 540 225V225C540 349.264 439.264 450 315 450V450C190.736 450 90 349.264 90 225V225Z" fill="url(#paint0_radial_280_1539)"/>
<g opacity="0.3" filter="url(#filter0_f_280_1539)">
<circle cx="234.5" cy="315.5" r="134.5" fill="url(#paint1_radial_280_1539)"/>
</g>
<g opacity="0.3">
<circle cx="38.2479" cy="206.248" r="2.24792" fill="#51CFA2"/>
<circle cx="93.8846" cy="206.248" r="2.24792" fill="#51CFA2"/>
<circle cx="75.3397" cy="206.248" r="2.24792" fill="#51CFA2"/>
<circle cx="130.974" cy="206.248" r="2.24792" fill="#51CFA2"/>
<circle cx="56.7909" cy="206.248" r="2.24792" fill="#51CFA2"/>
<circle cx="112.431" cy="206.248" r="2.24792" fill="#51CFA2"/>
<circle cx="38.2479" cy="280.429" r="2.24792" fill="#51CFA2"/>
<circle cx="93.8846" cy="280.429" r="2.24792" fill="#51CFA2"/>
<circle cx="75.3397" cy="280.429" r="2.24792" fill="#51CFA2"/>
<circle cx="130.974" cy="280.429" r="2.24792" fill="#51CFA2"/>
<circle cx="56.7909" cy="280.429" r="2.24792" fill="#51CFA2"/>
<circle cx="112.431" cy="280.429" r="2.24792" fill="#51CFA2"/>
<circle cx="38.2479" cy="243.338" r="2.24792" fill="#51CFA2"/>
<circle cx="93.8846" cy="243.338" r="2.24792" fill="#51CFA2"/>
<circle cx="75.3397" cy="243.338" r="2.24792" fill="#51CFA2"/>
<circle cx="130.974" cy="243.338" r="2.24792" fill="#51CFA2"/>
<circle cx="56.7909" cy="243.338" r="2.24792" fill="#51CFA2"/>
<circle cx="112.431" cy="243.338" r="2.24792" fill="#51CFA2"/>
<circle cx="38.2479" cy="224.793" r="2.24792" fill="#51CFA2"/>
<circle cx="93.8846" cy="224.793" r="2.24792" fill="#51CFA2"/>
<circle cx="75.3397" cy="224.793" r="2.24792" fill="#51CFA2"/>
<circle cx="130.974" cy="224.793" r="2.24792" fill="#51CFA2"/>
<circle cx="56.7909" cy="224.793" r="2.24792" fill="#51CFA2"/>
<circle cx="112.431" cy="224.793" r="2.24792" fill="#51CFA2"/>
<circle cx="38.2479" cy="298.975" r="2.24792" fill="#51CFA2"/>
<circle cx="93.8846" cy="298.975" r="2.24792" fill="#51CFA2"/>
<circle cx="75.3397" cy="298.975" r="2.24792" fill="#51CFA2"/>
<circle cx="130.974" cy="298.975" r="2.24792" fill="#51CFA2"/>
<circle cx="56.7909" cy="298.975" r="2.24792" fill="#51CFA2"/>
<circle cx="112.431" cy="298.975" r="2.24792" fill="#51CFA2"/>
<circle cx="38.2479" cy="261.883" r="2.24792" fill="#51CFA2"/>
<circle cx="93.8846" cy="261.883" r="2.24792" fill="#51CFA2"/>
<circle cx="75.3397" cy="261.883" r="2.24792" fill="#51CFA2"/>
<circle cx="130.974" cy="261.883" r="2.24792" fill="#51CFA2"/>
<circle cx="56.7909" cy="261.883" r="2.24792" fill="#51CFA2"/>
<circle cx="112.431" cy="261.883" r="2.24792" fill="#51CFA2"/>
<circle cx="149.522" cy="206.248" r="2.24792" fill="#51CFA2"/>
<circle cx="205.159" cy="206.248" r="2.24792" fill="#51CFA2"/>
<circle cx="186.613" cy="206.248" r="2.24792" fill="#51CFA2"/>
<circle cx="242.248" cy="206.248" r="2.24792" fill="#51CFA2"/>
<circle cx="168.064" cy="206.248" r="2.24792" fill="#51CFA2"/>
<circle cx="223.705" cy="206.248" r="2.24792" fill="#51CFA2"/>
<circle cx="149.522" cy="280.429" r="2.24792" fill="#51CFA2"/>
<circle cx="205.159" cy="280.429" r="2.24792" fill="#51CFA2"/>
<circle cx="186.613" cy="280.429" r="2.24792" fill="#51CFA2"/>
<circle cx="242.248" cy="280.429" r="2.24792" fill="#51CFA2"/>
<circle cx="168.064" cy="280.429" r="2.24792" fill="#51CFA2"/>
<circle cx="223.705" cy="280.429" r="2.24792" fill="#51CFA2"/>
<circle cx="149.522" cy="243.338" r="2.24792" fill="#51CFA2"/>
<circle cx="205.159" cy="243.338" r="2.24792" fill="#51CFA2"/>
<circle cx="186.613" cy="243.338" r="2.24792" fill="#51CFA2"/>
<circle cx="242.248" cy="243.338" r="2.24792" fill="#51CFA2"/>
<circle cx="168.064" cy="243.338" r="2.24792" fill="#51CFA2"/>
<circle cx="223.705" cy="243.338" r="2.24792" fill="#51CFA2"/>
<circle cx="149.522" cy="224.792" r="2.24792" fill="#51CFA2"/>
<circle cx="205.159" cy="224.792" r="2.24792" fill="#51CFA2"/>
<circle cx="186.613" cy="224.792" r="2.24792" fill="#51CFA2"/>
<circle cx="242.248" cy="224.792" r="2.24792" fill="#51CFA2"/>
<circle cx="168.064" cy="224.792" r="2.24792" fill="#51CFA2"/>
<circle cx="223.705" cy="224.792" r="2.24792" fill="#51CFA2"/>
<circle cx="149.522" cy="298.975" r="2.24792" fill="#51CFA2"/>
<circle cx="205.159" cy="298.975" r="2.24792" fill="#51CFA2"/>
<circle cx="186.613" cy="298.975" r="2.24792" fill="#51CFA2"/>
<circle cx="242.248" cy="298.975" r="2.24792" fill="#51CFA2"/>
<circle cx="168.064" cy="298.975" r="2.24792" fill="#51CFA2"/>
<circle cx="223.705" cy="298.975" r="2.24792" fill="#51CFA2"/>
<circle cx="149.522" cy="261.884" r="2.24792" fill="#51CFA2"/>
<circle cx="205.159" cy="261.884" r="2.24792" fill="#51CFA2"/>
<circle cx="186.613" cy="261.884" r="2.24792" fill="#51CFA2"/>
<circle cx="242.248" cy="261.884" r="2.24792" fill="#51CFA2"/>
<circle cx="168.064" cy="261.884" r="2.24792" fill="#51CFA2"/>
<circle cx="223.705" cy="261.884" r="2.24792" fill="#51CFA2"/>
</g>
<path d="M338.165 209.887L315.697 238.013C307.281 248.549 298.541 250.886 289.266 243.476C279.991 236.067 280.34 227.027 288.921 216.285L311.224 188.366L281.34 164.493L258.027 193.676C240.014 216.224 236.276 244.658 267.412 269.531C298.549 294.405 325.585 283.892 343.097 261.97L366.574 232.581L338.165 209.887Z" fill="url(#paint2_radial_280_1539)"/>
<path d="M340.486 120.451L355.75 132.645L331.841 162.575L301.948 138.696L314.16 123.408C320.613 115.33 332.413 114.002 340.486 120.451Z" fill="url(#paint3_radial_280_1539)"/>
<path d="M426.038 188.793L381.207 152.981L357.297 182.911L402.128 218.724C410.382 225.317 422.429 223.961 429.033 215.694C435.637 207.427 434.292 195.387 426.038 188.793Z" fill="url(#paint4_radial_280_1539)"/>
<path d="M425.178 70.4891V70.4958C408.977 68.0659 392.417 69.1406 376.733 73.9871C360.527 78.9955 346.444 87.8824 333.792 99.0104C320.126 111.031 307.36 124.205 294.916 137.447C283.001 150.127 271.277 163.1 260.644 176.896C249.301 191.615 239.544 207.604 233.86 225.407H233.86C233.416 226.798 233.627 228.011 234.239 228.952C234.847 229.886 235.838 230.533 236.928 230.832C239.103 231.427 241.764 230.645 242.655 227.85C252.438 197.197 275.027 172.385 296.49 149.128C308.141 136.505 320.183 124.221 332.656 112.408C344.309 101.373 356.764 91.2707 371.819 85.3455C388.02 78.9698 405.849 76.7023 423.095 79.3366C425.496 79.7052 427.941 78.7301 428.682 76.1497L428.682 76.1493C428.993 75.061 428.8 73.7589 428.237 72.6858C427.673 71.6112 426.716 70.7271 425.466 70.5337L425.178 70.4891Z" fill="#A9F27D" stroke="#A9F27D" stroke-width="0.5"/>
<path d="M420.36 73.8179L420.277 73.7346L420.371 74.4648C422.357 89.7492 420.751 105.103 418.738 120.33L418.693 120.671C416.855 134.559 414.995 148.608 410.094 161.774C405.126 175.117 396.798 187.064 388.399 198.497C379.925 210.031 370.818 221.09 361.427 231.893C350.61 244.332 339.396 256.427 328.184 268.519L328.165 268.539L328.165 268.539C326.168 270.694 326.797 273.391 328.391 274.985C329.189 275.783 330.242 276.324 331.357 276.391C332.479 276.458 333.641 276.043 334.635 274.971L334.636 274.971C355.113 252.889 375.59 230.721 393.69 206.598C402.274 195.159 410.711 183.299 416.488 170.121C422.509 156.386 424.974 141.719 426.982 126.995L426.753 126.963L426.982 126.995L427.031 126.638C429.384 109.368 431.769 91.8668 429.502 74.4062C429.502 74.4062 429.502 74.4062 429.502 74.4062L429.254 74.4384L420.36 73.8179Z" fill="#A9F27D" stroke="#A9F27D" stroke-width="0.5"/>
<path d="M344.977 109.061C343.621 111.318 344.605 113.793 346.489 115.208V115.215L346.593 115.29C373.273 134.454 398.24 155.914 421.263 179.326C422.287 180.367 423.469 180.758 424.604 180.677C425.731 180.596 426.792 180.051 427.591 179.253C428.39 178.455 428.94 177.393 429.031 176.259C429.122 175.119 428.746 173.924 427.723 172.883L427.723 172.883C404.156 148.928 378.541 127.059 351.24 107.442L351.24 107.442C350.21 106.703 348.929 106.627 347.776 106.967C346.626 107.307 345.571 108.071 344.977 109.061Z" fill="#A9F27D" stroke="#A9F27D" stroke-width="0.5"/>
<path d="M263.029 180.073C252.85 168.406 238.953 160.595 223.952 157.65C249.317 134.883 279.939 118.475 312.909 110.008C314.36 109.636 315.311 108.784 315.814 107.731C316.315 106.684 316.367 105.457 316.06 104.331C315.753 103.206 315.082 102.165 314.115 101.498C313.142 100.826 311.882 100.542 310.427 100.916L310.128 100.993L310.134 101.005C272.555 110.711 237.829 130.453 210.111 157.79L210.111 157.79C208.607 159.273 208.448 161.254 209.155 162.871C209.859 164.483 211.431 165.755 213.408 165.837C229.947 166.531 245.477 174.219 256.383 186.718L256.383 186.718C257.373 187.852 258.544 188.303 259.684 188.245C260.815 188.188 261.889 187.633 262.706 186.806C264.339 185.156 265.011 182.348 263.029 180.073L263.029 180.073Z" fill="#A9F27D" stroke="#A9F27D" stroke-width="0.5"/>
<path d="M410.275 184.488C409.41 185.21 408.815 186.283 408.747 187.69L408.74 187.696L408.737 187.796C407.76 220.759 398.759 253.143 382.75 281.919C376.769 268.283 366.335 256.746 353.164 249.552L353.164 249.552C351.883 248.854 350.623 248.813 349.538 249.202C348.458 249.588 347.565 250.394 346.994 251.367C346.424 252.34 346.166 253.497 346.381 254.596C346.597 255.702 347.288 256.727 348.569 257.427L348.689 257.207L348.569 257.427C362.718 265.152 373.144 278.343 377.308 293.901C377.827 295.842 379.412 296.935 381.108 297.133C382.8 297.33 384.628 296.639 385.649 294.996L385.649 294.996C405.605 262.831 416.748 225.608 417.872 187.805C417.915 186.347 417.379 185.235 416.532 184.491C415.691 183.751 414.562 183.389 413.432 183.39C412.303 183.39 411.155 183.753 410.275 184.488Z" fill="#A9F27D" stroke="#A9F27D" stroke-width="0.5"/>
<path d="M315.081 281.272L315.175 281.179L314.265 281.422C300.166 285.199 287.48 280.916 276.225 273.308C264.965 265.697 255.165 254.775 246.851 245.316L246.851 245.316C245.834 244.158 244.631 243.698 243.459 243.755C242.296 243.811 241.19 244.374 240.346 245.214C238.661 246.893 237.962 249.754 239.999 252.073C249.982 263.439 260.273 275.015 273.411 282.974C286.277 290.771 301.98 294.643 316.823 290.671C318.312 290.273 319.287 289.392 319.804 288.312C320.317 287.238 320.37 285.983 320.053 284.838C319.737 283.693 319.046 282.639 318.05 281.971C317.237 281.425 316.231 281.144 315.081 281.272Z" fill="#A9F27D" stroke="#A9F27D" stroke-width="0.5"/>
<path d="M429.01 69.2866C412.527 66.7057 395.372 68.0366 379.45 73.0189C371.469 75.5187 363.724 78.8576 356.529 83.1223C348.849 87.6763 341.81 93.1331 335.159 99.0759C328.311 105.192 321.764 111.668 315.257 118.149C308.826 124.554 302.504 131.076 296.293 137.696C284.511 150.258 272.875 163.087 262.371 176.749C252.302 189.839 243.251 204.016 237.444 219.547C236.732 221.457 236.067 223.383 235.46 225.328C235.13 226.375 235.055 227.37 235.72 228.319C236.339 229.205 237.583 229.795 238.624 229.917C240.845 230.171 244.367 229.211 245.148 226.74C247.559 219.084 250.787 211.712 254.604 204.658C255.57 202.87 256.576 201.105 257.611 199.352C257.831 198.981 258.051 198.617 258.271 198.247C258.814 197.338 257.912 198.819 258.271 198.247C258.41 198.021 258.554 197.789 258.693 197.564C259.231 196.696 259.775 195.834 260.324 194.977C262.51 191.58 264.806 188.265 267.189 185.001C277.056 171.501 288.253 158.967 299.56 146.671C305.627 140.074 311.804 133.581 318.085 127.199C319.635 125.625 321.191 124.057 322.753 122.494C323.51 121.736 324.274 120.978 325.037 120.22C325.205 120.052 325.379 119.885 325.546 119.717C324.777 120.469 325.384 119.879 325.575 119.688C326.044 119.225 326.512 118.768 326.981 118.305C330.081 115.261 333.198 112.235 336.362 109.255C342.62 103.352 349.092 97.6466 356.171 92.7454C357.009 92.1609 357.86 91.5939 358.716 91.0326C358.895 90.9168 359.068 90.8069 359.248 90.6912C360.162 90.0951 358.467 91.1714 359.08 90.7953C359.572 90.4886 360.063 90.1819 360.561 89.8868C362.232 88.8799 363.932 87.9252 365.662 87.0225C369.167 85.1823 372.776 83.5736 376.46 82.1386C377.293 81.8145 376.124 82.2601 376.043 82.2948C376.24 82.2138 376.437 82.1501 376.639 82.0749C377.137 81.8955 377.628 81.7161 378.126 81.5426C379.068 81.2127 380.023 80.8945 380.977 80.5878C382.833 79.9975 384.713 79.4594 386.599 78.9675C388.484 78.4757 390.491 78.0243 392.458 77.6366C393.389 77.4514 394.32 77.2836 395.257 77.1216C396.136 76.9711 394.904 77.1795 394.823 77.191C395.083 77.1447 395.344 77.11 395.604 77.0695C396.176 76.9827 396.749 76.9017 397.327 76.8207C401.191 76.2999 405.089 75.9874 408.987 75.9064C409.936 75.8833 410.884 75.8775 411.833 75.8833C412.845 75.8891 413.99 76.08 414.991 75.9527C414.898 75.9643 413.776 75.8948 414.638 75.9411C414.846 75.9527 415.06 75.9585 415.268 75.9701C415.795 75.999 416.321 76.0279 416.847 76.0627C417.848 76.1321 418.843 76.2131 419.843 76.3115C421.786 76.5024 423.718 76.7513 425.644 77.0522C427.963 77.4167 431.295 76.271 432.168 73.8753C433.041 71.4797 431.335 69.6511 429.004 69.2866H429.01Z" fill="#1E063A"/>
<path d="M422.96 74.0084C424.996 89.2503 423.267 104.625 421.26 119.792C419.322 134.409 417.46 149.269 412.191 163.133C409.889 169.198 406.46 175.719 402.856 181.616C399.091 187.773 394.944 193.692 390.682 199.52C386.321 205.486 381.792 211.33 377.154 217.082C375.985 218.534 374.806 219.975 373.62 221.416C373.608 221.428 373.215 221.902 373.464 221.607C373.736 221.277 373.244 221.873 373.186 221.943C372.909 222.278 372.631 222.614 372.353 222.944C371.717 223.708 371.081 224.471 370.439 225.229C368.079 228.036 365.696 230.825 363.29 233.591C353.632 244.724 343.661 255.58 333.655 266.401C332.388 267.772 331.122 269.138 329.855 270.509C329.288 271.123 328.664 271.956 328.906 272.859C329.132 273.709 330.115 274.248 330.902 274.421C333.152 274.919 336.385 274.277 338.01 272.517C348.149 261.563 358.282 250.604 368.131 239.389C378.108 228.03 387.807 216.411 396.888 204.322C405.58 192.755 414.152 180.765 420.022 167.468C426.124 153.649 428.605 138.836 430.624 123.964C432.729 108.45 434.823 92.7917 433.614 77.11C433.463 75.1715 433.261 73.2388 433.001 71.3118C432.885 70.4554 431.676 69.9288 431.005 69.7495C429.854 69.4486 428.362 69.5585 427.234 69.8941C425.436 70.4265 422.636 71.6995 422.949 74.0084H422.96Z" fill="#1E063A"/>
<path d="M347.669 112.732C355.015 118.015 362.238 123.466 369.329 129.079C376.42 134.692 383.314 140.421 390.104 146.335C393.968 149.703 397.791 153.117 401.567 156.583L400.844 155.923C408.392 162.856 415.76 169.991 422.938 177.311C424.667 179.075 427.623 179.081 429.745 177.982C430.752 177.461 431.885 176.732 432.342 175.644C432.689 174.811 432.874 173.665 432.163 172.936C422.822 163.411 413.158 154.205 403.204 145.322C393.459 136.631 383.424 128.263 373.118 120.243C367.317 115.73 361.423 111.326 355.454 107.032C354.54 106.379 353.112 106.222 352.036 106.303C350.787 106.402 349.248 106.888 348.254 107.681C347.461 108.311 346.536 109.208 346.478 110.296C346.42 111.32 346.831 112.125 347.675 112.732H347.669Z" fill="#1E063A"/>
<path d="M313.985 103.74C299.092 107.513 284.552 112.825 270.746 119.572C257.126 126.227 244.211 134.247 232.221 143.534C225.726 148.569 219.532 153.979 213.673 159.743C213.349 160.061 213.026 160.437 213.332 160.859C213.639 161.282 214.495 161.334 214.946 161.351C215.79 161.38 216.635 161.426 217.479 161.49C217.861 161.519 218.242 161.554 218.624 161.588C218.682 161.588 219.445 161.669 218.879 161.612C218.312 161.554 219.266 161.658 219.359 161.669C220.995 161.872 222.626 162.138 224.246 162.468C225.865 162.798 227.467 163.197 229.058 163.654C229.833 163.88 230.602 164.117 231.371 164.366C231.77 164.499 232.175 164.632 232.569 164.777C232.713 164.829 232.858 164.881 233.002 164.933C233.274 165.031 233.291 165.037 233.049 164.95C233.193 165.003 233.338 165.06 233.482 165.112C239.659 167.462 245.472 170.766 250.642 174.886C253.586 177.235 256.31 179.851 258.78 182.692C259.185 183.161 260.903 183.005 261.331 182.97C262.626 182.866 264.032 182.542 265.246 182.085C266.195 181.726 267.357 181.338 268.069 180.592C268.497 180.14 268.722 179.828 268.265 179.301C259.283 168.961 246.889 161.82 233.54 158.851C229.584 157.972 225.536 157.474 221.487 157.33L222.759 158.938C227.93 153.858 233.361 149.043 239.029 144.524C240.417 143.419 241.817 142.331 243.228 141.266C243.933 140.734 244.645 140.201 245.356 139.675C245.483 139.576 245.616 139.484 245.744 139.391C246.415 138.893 245.142 139.825 245.819 139.333C246.212 139.05 246.6 138.766 246.993 138.483C249.937 136.37 252.939 134.339 255.992 132.384C259.046 130.428 262.146 128.547 265.292 126.747C266.831 125.868 268.381 125.006 269.943 124.167C270.214 124.022 271.475 123.368 270.266 123.993C270.694 123.773 271.122 123.542 271.55 123.316C272.337 122.905 273.124 122.5 273.916 122.101C277.149 120.463 280.428 118.912 283.742 117.443C285.362 116.725 286.993 116.025 288.63 115.354C288.855 115.261 289.075 115.168 289.3 115.076C287.947 115.637 288.601 115.359 288.924 115.232C289.335 115.064 289.746 114.902 290.156 114.74C291.018 114.399 291.88 114.063 292.747 113.733C296.507 112.298 300.313 110.967 304.147 109.746C304.338 109.683 304.529 109.625 304.725 109.567C305.587 109.295 303.274 110.013 304.558 109.619C305.02 109.474 305.483 109.336 305.946 109.197C306.912 108.907 307.878 108.624 308.843 108.352C310.821 107.791 312.805 107.258 314.795 106.755C315.934 106.465 317.23 106.002 318.23 105.36C318.566 105.146 319.578 104.504 319.416 103.902C319.254 103.3 318.091 103.242 317.658 103.236C316.414 103.213 315.182 103.445 313.985 103.751V103.74Z" fill="#1E063A"/>
<path d="M411.261 188.253C411.191 190.805 411.076 193.363 410.914 195.909L410.949 195.33C410.075 208.761 407.918 222.105 404.517 235.124C401.139 248.063 396.541 260.684 390.798 272.76C387.542 279.606 383.91 286.272 379.931 292.724L380.312 292.111C380.179 292.331 380.041 292.545 379.908 292.765L389.549 291.26C386.119 278.136 378.277 266.152 367.75 257.623C364.778 255.215 361.585 253.086 358.219 251.269C356.264 250.216 353.638 250.713 351.66 251.529C350.712 251.923 349.526 252.403 348.901 253.254C348.595 253.676 348.103 254.55 348.809 254.932C355.871 258.745 362.146 263.942 367.27 270.116C368.728 271.869 370.087 273.704 371.354 275.602L371.03 275.121C374.853 280.896 377.745 287.256 379.497 293.957C379.861 295.351 382.776 295.05 383.702 294.894C384.627 294.738 385.512 294.501 386.374 294.177C387.131 293.893 388.658 293.216 389.133 292.452C396.935 279.901 403.464 266.615 408.525 252.727C413.586 238.839 417.12 224.761 419.208 210.3C420.393 202.1 421.087 193.831 421.319 185.545C421.336 184.856 419.821 184.573 419.468 184.526C418.294 184.37 416.877 184.573 415.755 184.897C414.176 185.348 411.319 186.228 411.261 188.241V188.253Z" fill="#1E063A"/>
<path d="M315.182 280.578C314.401 280.798 313.615 280.995 312.816 281.162C312.388 281.255 310.833 281.458 312.753 281.191C312.273 281.261 311.798 281.348 311.318 281.411C310.561 281.51 309.797 281.591 309.034 281.643C308.635 281.672 308.23 281.695 307.831 281.712C307.409 281.73 305.795 281.701 307.547 281.735C305.847 281.701 304.164 281.637 302.475 281.44C301.752 281.353 301.029 281.255 300.306 281.134C300.069 281.093 299.826 281.041 299.583 281.006C300.821 281.174 300.301 281.145 300.011 281.087C299.531 280.989 299.051 280.891 298.577 280.781C296.94 280.41 295.327 279.953 293.736 279.427C292.996 279.183 292.261 278.923 291.533 278.645C290.705 278.333 289.867 277.858 289.017 277.627C289.884 277.864 289.566 277.876 289.294 277.748C289.069 277.644 288.843 277.546 288.618 277.442C288.242 277.268 287.871 277.095 287.501 276.915C286.761 276.556 286.032 276.18 285.309 275.793C283.794 274.977 282.313 274.097 280.867 273.165C277.611 271.059 274.54 268.692 271.602 266.158L272.308 266.765C265.003 260.441 258.635 253.155 252.302 245.887C250.729 244.082 247.473 244.395 245.535 245.367C244.043 246.113 241.406 248.254 243.054 250.146C250.422 258.606 257.877 267.037 266.686 274.051C275.564 281.122 285.888 286.214 297.154 287.956C303.678 288.963 310.486 288.604 316.848 286.816C318.027 286.486 319.317 285.873 320.156 284.947C320.723 284.328 321.347 283.24 321.035 282.349C320.254 280.092 317.056 280.046 315.17 280.578H315.182Z" fill="#1E063A"/>
<path d="M223.997 255.401C221.348 257.686 218.67 259.943 215.906 262.084C214.529 263.155 213.13 264.19 211.701 265.192C211.007 265.678 210.307 266.152 209.602 266.615C209.231 266.858 208.861 267.095 208.485 267.333C208.352 267.419 208.214 267.5 208.081 267.587C207.352 268.044 209.272 266.87 208.161 267.535C206.733 268.386 205.275 269.184 203.783 269.913C203.008 270.289 202.227 270.648 201.435 270.978C201.076 271.129 200.718 271.273 200.359 271.418C200.168 271.493 199.393 271.782 200.359 271.418C201.377 271.042 200.348 271.418 200.14 271.487C198.584 272.025 196.987 272.471 195.374 272.801C195.189 272.841 194.998 272.876 194.813 272.911C193.876 273.096 196.218 272.691 195.275 272.836C194.894 272.893 194.518 272.946 194.136 272.992C193.297 273.09 192.453 273.16 191.603 273.189C191.14 273.206 190.672 273.206 190.209 273.206C189.278 273.206 191.505 273.264 190.568 273.218C190.33 273.206 190.099 273.194 189.862 273.183C188.942 273.125 188.023 273.021 187.109 272.859C186.883 272.818 186.658 272.778 186.432 272.731C186.282 272.702 186.132 272.668 185.981 272.633L186.698 272.807C186.259 272.76 185.79 272.564 185.374 272.425C184.431 272.118 183.517 271.736 182.632 271.285L183.61 271.788C182.401 271.146 181.291 270.371 180.296 269.433L181.03 270.139C180.053 269.178 179.261 268.091 178.653 266.864L179.081 267.755C178.48 266.47 178.104 265.116 177.994 263.704L178.063 264.688C178.005 263.646 178.092 262.628 178.358 261.615L178.075 262.593C178.306 261.801 178.63 261.054 179.075 260.36L178.48 261.286C178.717 260.938 178.977 260.626 179.261 260.319C179.77 259.764 178.347 261.1 178.914 260.661C179.099 260.516 179.289 260.371 179.48 260.232C180.082 259.787 178.277 260.898 178.983 260.533C179.139 260.452 179.295 260.365 179.457 260.29C179.931 260.065 180.77 259.926 178.983 260.435C179.156 260.389 179.324 260.325 179.498 260.279C179.671 260.232 179.845 260.198 180.018 260.157C180.828 259.966 178.457 260.325 179.434 260.267C179.636 260.256 179.845 260.244 180.047 260.227C180.816 260.175 178.688 260.122 179.451 260.209C179.654 260.232 179.856 260.256 180.053 260.279C180.944 260.377 178.937 259.937 179.642 260.163C180.024 260.284 180.394 260.418 180.753 260.597L179.775 260.094C180.238 260.337 180.654 260.632 181.036 260.985L180.302 260.279C180.863 260.823 181.291 261.453 181.638 262.154L181.21 261.262C181.753 262.443 182.002 263.699 182.106 264.983L182.037 263.999C182.245 267.107 181.765 270.237 180.926 273.229L181.21 272.251C179.66 277.61 176.912 282.511 173.911 287.181L174.506 286.255C170.521 292.429 166.166 298.36 161.476 304.014C156.774 309.685 151.701 314.968 146.438 320.118C147.572 319.007 146.282 320.262 146.016 320.511C145.646 320.859 145.276 321.2 144.9 321.541C144.154 322.224 143.402 322.907 142.644 323.578C141.065 324.979 139.463 326.356 137.838 327.704C137.022 328.381 136.207 329.319 136.091 330.43C135.993 331.413 136.496 332.472 137.329 333.01C139.405 334.364 142.656 334 144.547 332.432C154.431 324.221 163.541 315.043 171.603 305.032C175.547 300.131 179.249 295.033 182.679 289.756C186.386 284.044 189.7 278.188 191.383 271.539C192.187 268.363 192.47 265.099 192.123 261.829C191.8 258.792 190.255 255.707 187.502 254.203C181.192 250.76 171.852 253.474 168.85 260.198C166.155 266.239 169.081 273.171 174.31 276.747C179.81 280.509 187.138 281.319 193.61 280.474C206.611 278.778 217.589 271.152 227.404 262.923C228.503 262.003 229.596 261.066 230.683 260.128C231.499 259.428 232.314 258.531 232.43 257.403C232.528 256.419 232.025 255.36 231.192 254.822C229.145 253.485 225.825 253.804 223.974 255.401H223.997Z" fill="#1E063A"/>
<path d="M290.289 300.64C286.871 301.693 283.476 302.856 280.284 304.482C277.455 305.923 274.558 307.74 272.557 310.263C270.556 312.786 269.584 315.645 269.885 318.862C270.22 322.415 271.978 325.644 273.187 328.948C274.621 332.883 275.142 337.078 274.743 341.245L274.795 340.724C274.361 344.861 272.973 348.756 270.96 352.378C270.018 354.079 268.959 355.711 267.843 357.302C268.132 356.886 267.727 357.459 267.635 357.592C267.502 357.777 267.363 357.968 267.23 358.153C266.935 358.558 266.634 358.963 266.333 359.362C265.732 360.167 265.119 360.965 264.506 361.764C261.99 365.039 259.445 368.308 257.265 371.827C255.084 375.345 253.216 379.506 252.03 383.678C250.66 388.498 250.047 393.555 250.197 398.561C250.214 399.209 251.683 399.388 252.007 399.417C253.187 399.527 254.575 399.301 255.703 398.983C256.831 398.665 258.132 398.248 259.121 397.513C259.688 397.091 260.284 396.645 260.261 395.87C260.197 393.746 260.278 391.623 260.492 389.505L260.44 390.026C261.041 384.441 262.609 378.979 265.119 373.95C266.299 371.589 267.693 369.35 269.202 367.186C268.89 367.637 269.405 366.902 269.48 366.798C269.659 366.549 269.844 366.295 270.023 366.046C270.411 365.514 270.804 364.987 271.203 364.46C271.973 363.436 272.753 362.423 273.534 361.411C276.692 357.302 279.89 353.119 282.105 348.403C284.488 343.328 285.443 337.616 284.685 332.044C284.257 328.879 283.164 325.974 281.967 323.034C280.787 320.141 279.647 317.132 279.948 313.949L279.896 314.47C280.006 313.556 280.214 312.67 280.555 311.814C280.688 311.478 280.845 311.148 281.018 310.824C281.116 310.639 281.221 310.454 281.33 310.275C281.44 310.095 281.654 309.528 281.388 310.153C281.666 309.505 282.453 308.845 282.956 308.365C283.112 308.215 283.28 308.07 283.436 307.925C284.043 307.37 282.869 308.354 283.401 307.954C283.731 307.705 284.06 307.457 284.407 307.219C284.754 306.982 285.113 306.756 285.472 306.537C286.119 306.137 284.581 307.034 285.211 306.693C285.443 306.566 285.674 306.438 285.911 306.317C286.264 306.132 286.623 305.952 286.987 305.784C287.23 305.669 287.473 305.559 287.721 305.449C288.433 305.125 286.542 305.941 287.311 305.628C288.12 305.298 288.93 304.98 289.757 304.685C290.197 304.529 290.636 304.378 291.076 304.234C291.168 304.205 291.261 304.17 291.359 304.141C291.77 304.008 291.481 304.1 290.509 304.413C290.758 304.338 291.001 304.257 291.249 304.181C292.418 303.823 293.655 303.429 294.668 302.712C295.078 302.422 295.986 301.734 295.807 301.068C295.628 300.403 294.529 300.247 293.997 300.212C292.776 300.131 291.469 300.287 290.301 300.646L290.289 300.64Z" fill="#1E063A"/>
<path d="M254.645 290.074C249.694 291.741 246.126 295.705 244.946 300.768C244.35 303.337 244.246 305.987 243.974 308.603C243.749 310.813 243.355 312.983 242.638 315.084C241.921 317.184 240.868 319.308 239.613 321.223L240.001 320.639C239.255 321.756 238.445 322.82 237.548 323.822C237.08 324.348 236.588 324.857 236.079 325.343C235.848 325.563 235.617 325.777 235.38 325.992C234.957 326.368 235.264 326.009 235.507 325.887C235.362 325.963 235.229 326.119 235.102 326.223C234.581 326.645 234.049 327.05 233.5 327.432C233.24 327.612 232.979 327.791 232.713 327.965C232.569 328.057 232.424 328.179 232.268 328.248C232.465 328.161 233.176 327.71 232.574 328.063C231.973 328.416 231.406 328.711 230.805 329.001C230.649 329.076 230.487 329.151 230.325 329.226C229.856 329.446 231.58 328.694 230.799 329.012C230.475 329.145 230.145 329.278 229.816 329.4C228.913 329.735 227.693 330.308 227.045 331.072C226.675 331.512 226.345 332.206 226.93 332.663C227.624 333.196 228.728 333.219 229.544 333.173C230.886 333.092 232.21 332.797 233.471 332.322C239.341 330.112 244.755 326.362 248.474 321.264C250.192 318.909 251.626 316.351 252.58 313.591C253.592 310.663 253.905 307.631 254.176 304.564C254.489 301.034 254.934 297.481 256.895 294.437L256.507 295.022C256.762 294.646 257.028 294.275 257.323 293.928C257.6 293.598 258.011 293.309 258.26 292.967C257.855 293.309 257.762 293.396 257.971 293.228C258.052 293.164 258.132 293.101 258.213 293.043C258.375 292.921 258.56 292.823 258.722 292.701C257.71 293.471 258.196 293.06 258.503 292.875C257.664 293.234 257.467 293.326 257.918 293.141C258.046 293.089 258.179 293.043 258.312 293.002C259.197 292.707 260.458 292.071 261.082 291.33C261.452 290.89 261.782 290.196 261.198 289.739C260.504 289.206 259.399 289.183 258.584 289.229C257.224 289.31 255.946 289.646 254.656 290.08L254.645 290.074Z" fill="#1E063A"/>
<path d="M229.069 277.095C228.543 279.45 227.756 281.73 226.756 283.929L227.097 283.182C226.015 285.514 224.703 287.736 223.181 289.814C222.811 290.317 222.43 290.815 222.042 291.301C221.845 291.544 221.649 291.787 221.446 292.024C221.348 292.146 221.244 292.261 221.146 292.383C221.059 292.487 220.579 293.002 221.007 292.551C221.435 292.099 220.706 292.875 220.619 292.967C220.405 293.199 220.191 293.424 219.971 293.65C219.509 294.125 219.035 294.593 218.555 295.05C217.583 295.971 216.565 296.844 215.518 297.678C215.293 297.857 215.061 298.036 214.83 298.216C214.697 298.32 214.564 298.418 214.431 298.517C213.858 298.956 214.697 298.326 214.737 298.291C214.176 298.771 213.505 299.171 212.892 299.581C211.782 300.322 210.648 301.028 209.492 301.688C208.913 302.018 208.329 302.342 207.739 302.66C207.589 302.741 207.444 302.816 207.294 302.891C206.611 303.256 207.727 302.66 207.756 302.654C207.404 302.712 206.958 303.053 206.634 303.21C203.847 304.564 200.978 305.727 198.057 306.745C197.143 307.063 195.906 307.885 195.368 308.73C194.975 309.355 194.789 310.252 195.391 310.842C197.08 312.491 200.174 311.635 202.054 310.975C215.073 306.421 227.965 298.615 234.974 286.342C236.842 283.072 238.3 279.537 239.127 275.856C239.312 275.029 238.786 274.381 238.092 274.016C237.166 273.536 235.761 273.501 234.772 273.646C233.459 273.837 232.082 274.201 230.966 274.942C230.191 275.457 229.283 276.123 229.063 277.095H229.069Z" fill="#1E063A"/>
<path d="M349.484 391.002C346.284 375.802 333.151 378.335 326.984 381.502C326.151 380.835 324.584 379.302 324.984 378.502C325.484 377.502 332.484 371.502 334.984 370.502C337.484 369.502 347.484 371.502 358.484 375.002C369.484 378.502 371.484 392.002 373.984 399.002C376.484 406.002 368.984 422.002 367.484 428.002C366.284 432.802 352.651 437.669 345.984 439.502L294.484 437.502C322.484 436.002 353.484 410.002 349.484 391.002Z" fill="url(#paint5_radial_280_1539)"/>
<path d="M33.9838 381.5C35.4838 362.004 63.5 351 78.4844 353.502L65.9838 335.502C57.8171 334.002 39.9838 331.802 33.9838 335.002C26.4838 339.002 7.48376 351.502 6.48376 369.502C5.48376 387.502 2.98376 394.002 9.98376 407.502C16.9838 421.002 26.4844 433.002 38.4844 435.502C48.0844 437.502 119.985 440.669 129.984 441.002C48 436.589 32.4838 400.996 33.9838 381.5Z" fill="url(#paint6_radial_280_1539)"/>
<path d="M242.239 441.33C247.635 441.474 253.031 441.573 258.422 441.665C265.432 441.787 272.441 441.897 279.451 442.001C286.877 442.111 294.304 442.221 301.736 442.336C308.381 442.441 315.026 442.545 321.678 442.672C324.355 442.724 327.033 442.776 329.711 442.84C333.974 442.938 338.242 443.123 342.505 442.886C347.849 442.591 353.291 441.48 358.08 439.021C362.198 436.903 365.923 434.038 368.936 430.509C374.673 423.796 378.063 415.192 378.456 406.367C378.866 397.085 376.304 387.653 370.526 380.281C364.749 372.909 356.634 368.343 347.658 366.706C343.199 365.89 338.537 366.069 334.159 367.273C329.821 368.465 325.327 370.704 322.447 374.269C321.001 376.063 320.018 377.932 319.416 380.16C319.179 381.051 319.89 382 320.573 382.445C321.487 383.041 322.91 383.209 323.962 383.082C326.276 382.81 328.907 381.67 329.561 379.228C329.642 378.921 329.734 378.626 329.838 378.325L329.532 379.211C329.734 378.661 329.966 378.128 330.249 377.613C330.382 377.376 330.521 377.139 330.671 376.907C330.752 376.78 331.128 376.259 330.671 376.884C330.191 377.538 330.7 376.855 330.804 376.728C331.151 376.306 331.527 375.906 331.926 375.53C332.69 374.813 331.076 376.19 331.805 375.629C332.077 375.42 332.343 375.212 332.62 375.015C332.875 374.836 333.141 374.668 333.407 374.5C333.517 374.437 333.627 374.373 333.731 374.309C332.366 375.16 332.794 374.836 333.112 374.668C333.679 374.373 334.251 374.095 334.847 373.852C335.021 373.783 335.217 373.725 335.385 373.638C335.449 373.603 333.922 374.147 334.627 373.91C334.934 373.806 335.246 373.708 335.558 373.615C336.189 373.436 336.825 373.285 337.467 373.158C337.849 373.077 338.427 373.036 336.68 373.297C336.808 373.279 336.941 373.256 337.068 373.233C337.392 373.187 337.716 373.14 338.04 373.111C338.687 373.042 339.335 373.007 339.983 372.99C340.793 372.967 338.78 372.967 339.376 372.99C339.538 372.996 339.694 372.99 339.856 373.002C340.122 373.013 340.388 373.025 340.648 373.042C341.417 373.094 342.186 373.175 342.95 373.291C343.274 373.337 343.603 373.401 343.927 373.453C342.348 373.198 343.725 373.418 344.072 373.499C344.789 373.661 345.495 373.846 346.2 374.06C346.831 374.251 347.455 374.46 348.074 374.691C348.415 374.819 348.763 374.952 349.098 375.09C349.231 375.148 349.37 375.206 349.503 375.258C350.266 375.577 348.606 374.836 349.352 375.189C352.296 376.572 355.026 378.308 357.49 380.437L356.784 379.824C360.087 382.706 362.794 386.16 364.789 390.06L364.384 389.273C366.761 393.995 368.068 399.174 368.346 404.446L368.3 403.561C368.531 408.485 367.872 413.421 366.281 418.091L366.588 417.205C365.755 419.612 364.685 421.927 363.378 424.114C363.065 424.635 362.742 425.15 362.4 425.654C362.238 425.891 362.077 426.122 361.915 426.36C361.475 427.002 362.418 425.688 362.094 426.122C361.984 426.267 361.88 426.406 361.77 426.551C360.995 427.569 360.156 428.535 359.271 429.456C358.878 429.861 358.473 430.26 358.057 430.642C357.924 430.763 357.022 431.556 357.71 430.966C358.398 430.376 357.426 431.191 357.259 431.325C356.299 432.088 355.286 432.8 354.228 433.431C354.107 433.5 353.985 433.57 353.864 433.645L354.616 433.217C354.523 433.269 354.43 433.321 354.338 433.367C354.089 433.5 353.841 433.633 353.592 433.761C352.99 434.062 352.383 434.339 351.764 434.594C351.504 434.704 351.238 434.802 350.972 434.901C352.759 434.201 351.631 434.663 351.174 434.814C350.376 435.069 349.566 435.288 348.751 435.474C348.375 435.56 347.97 435.682 347.588 435.717C347.606 435.717 349.005 435.485 348.173 435.607C347.999 435.63 347.826 435.665 347.652 435.688C346.865 435.803 346.073 435.896 345.287 435.971C343.69 436.116 342.094 436.174 340.498 436.191C340.18 436.191 339.578 436.156 340.983 436.191C340.804 436.191 340.625 436.191 340.451 436.191C340.093 436.191 339.74 436.191 339.381 436.18C338.537 436.168 337.693 436.151 336.842 436.127C335.992 436.104 335.13 436.081 334.274 436.064C330.92 435.983 327.56 435.913 324.205 435.85C315.57 435.688 306.935 435.56 298.294 435.427C289.029 435.288 279.769 435.155 270.504 435.005C262.985 434.883 255.461 434.762 247.942 434.582C247.253 434.565 246.565 434.548 245.877 434.53C244.5 434.496 243.182 434.663 241.915 435.254C240.99 435.682 239.741 436.515 239.295 437.505C238.925 438.326 238.775 439.31 239.434 440.062C240.093 440.815 241.221 441.295 242.245 441.318L242.239 441.33Z" fill="#1E063A"/>
<path d="M163.575 436.093C156.913 436.249 150.244 436.37 143.581 436.492C132.76 436.683 121.945 436.833 111.123 436.932C99.9261 437.036 88.7232 437.088 77.526 436.984C72.9685 436.943 68.411 436.874 63.8592 436.729C62.9165 436.7 61.9796 436.666 61.0368 436.631C60.6204 436.613 60.1982 436.596 59.7818 436.579C59.1803 436.55 61.0426 436.637 60.4469 436.608C60.337 436.608 60.2271 436.596 60.123 436.59C59.8917 436.579 59.6661 436.567 59.4347 436.556C58.0235 436.48 56.6123 436.394 55.2069 436.261C54.0849 436.156 52.9744 435.994 51.8697 435.809C51.1641 435.688 50.4585 435.555 49.7587 435.416C49.348 435.335 48.9374 435.248 48.5326 435.155C48.3243 435.109 48.1103 435.063 47.9021 435.016C47.7575 434.982 47.6187 434.953 47.4799 434.918C48.0236 435.045 48.1046 435.063 47.7344 434.976C44.403 434.16 41.0948 433.234 37.908 431.955C37.2313 431.683 36.5546 431.394 35.8953 431.082C35.5656 430.925 35.2359 430.757 34.9063 430.584L34.7501 430.503C34.484 430.358 34.5477 430.393 34.9352 430.607C34.8368 430.48 34.4378 430.318 34.299 430.237C32.6333 429.241 31.0312 428.153 29.4927 426.973C26.6009 424.751 23.9578 422.211 21.6385 419.398C20.4818 417.992 19.406 416.522 18.4113 414.995L18.7409 415.498C13.206 406.917 10.5628 396.871 10.1695 386.722C10.0481 383.637 10.1117 380.547 10.2736 377.469L10.2389 378.071C10.4472 374.205 10.8809 370.392 11.841 366.636C12.7491 363.083 14.0446 359.634 15.6698 356.353C16.0573 355.567 16.4679 354.791 16.8959 354.027C17.1099 353.645 17.3297 353.263 17.5495 352.882C17.243 353.397 17.6941 352.65 17.723 352.61C17.8618 352.384 18.0006 352.158 18.1452 351.938C19.1458 350.364 20.21 348.819 21.3783 347.367C21.9046 346.713 22.454 346.076 23.0324 345.463C23.3042 345.174 23.5818 344.884 23.8652 344.607C23.9809 344.497 24.0966 344.387 24.2065 344.271C24.4841 344.005 24.4378 344.051 24.0503 344.41C24.166 344.3 24.2875 344.196 24.4031 344.086C25.6466 342.963 26.9653 341.933 28.3534 340.99C28.5211 340.88 28.683 340.77 28.8508 340.654C29.3308 340.33 27.8965 341.245 28.6252 340.799C28.9664 340.591 29.3077 340.377 29.6489 340.174C30.4123 339.729 31.1874 339.306 31.9739 338.907C32.3325 338.728 32.6969 338.554 33.0613 338.38C31.5402 339.121 32.8588 338.479 33.2406 338.317C34.0561 337.969 34.8831 337.64 35.716 337.339C35.9415 337.258 36.1729 337.177 36.4042 337.096C37.2949 336.783 35.2475 337.466 35.8953 337.258C36.2828 337.136 36.6645 337.015 37.0578 336.899C37.9138 336.65 38.7755 336.419 39.6431 336.216C39.8397 336.17 40.0364 336.124 40.233 336.083C41.1873 335.863 38.8623 336.355 39.8281 336.164C40.2272 336.089 40.6205 336.008 41.0196 335.938C41.8929 335.782 42.7778 335.655 43.6569 335.545C44.056 335.499 44.4609 335.464 44.8599 335.412C43.1884 335.626 44.6459 335.435 45.045 335.406C45.8258 335.354 46.6008 335.325 47.3816 335.313C48.0988 335.302 48.8102 335.319 49.5273 335.342C50.3602 335.366 48.4516 335.273 49.2844 335.331C49.429 335.342 49.5736 335.348 49.7124 335.36C50.1462 335.389 50.5742 335.423 51.0022 335.464C52.5117 335.609 54.0155 335.834 55.4961 336.141C55.7101 336.187 55.9183 336.234 56.1323 336.274C56.7222 336.396 55.9241 336.234 55.8662 336.21C56.2306 336.343 56.6412 336.401 57.0172 336.5C57.7806 336.702 58.5383 336.928 59.2902 337.177C60.8749 337.703 62.4307 338.328 63.9344 339.063C64.3162 339.248 64.6921 339.439 65.0622 339.642L65.2473 339.74C65.5249 339.891 65.496 339.873 65.1606 339.688C65.1779 339.671 65.6753 339.983 65.7042 340.006C66.4214 340.429 67.1212 340.886 67.8037 341.366C70.4815 343.264 72.8297 345.608 74.6342 348.356L74.3045 347.853C75.282 349.369 76.0801 350.978 76.6874 352.679C76.9534 353.42 77.8788 353.651 78.5497 353.75C79.718 353.923 81.1466 353.726 82.2686 353.402C83.3907 353.078 84.7151 352.639 85.6636 351.84C86.1495 351.435 87.0112 350.723 86.7452 349.982C82.714 338.768 71.2797 332.819 60.123 330.997C53.7899 329.967 47.2197 330.256 40.9502 331.552C33.4141 333.109 26.1729 335.898 19.8687 340.365C14.1718 344.404 9.9729 349.89 6.65308 355.977C3.33326 362.065 1.29163 368.5 0.562886 375.252C-0.940865 389.244 0.302621 404.018 7.55533 416.36C10.7421 421.777 14.8485 426.585 19.8051 430.451C22.2458 432.355 24.889 434.114 27.6825 435.456C30.1637 436.648 32.801 437.528 35.4383 438.292C40.0711 439.64 44.8657 440.774 49.6835 441.162C52.7373 441.411 55.8026 441.526 58.8679 441.63C66.8436 441.902 74.8251 441.949 82.8007 441.96C92.4016 441.978 102.002 441.914 111.603 441.81C120.591 441.717 129.579 441.584 138.561 441.428C144.703 441.324 150.845 441.208 156.988 441.069C157.815 441.052 158.642 441.034 159.463 441.011C160.776 440.982 162.181 440.664 163.396 440.184C164.252 439.842 165.576 439.229 166.143 438.425C167.462 436.567 165.004 436.041 163.581 436.075L163.575 436.093Z" fill="#1E063A"/>
<path d="M65.6697 332.229C65.7218 332.096 65.7796 331.969 65.8317 331.841L65.4962 332.617C66.0862 331.263 66.7918 329.967 67.6073 328.734C67.9948 328.15 68.4054 327.583 68.8392 327.027C68.9722 326.859 69.1052 326.697 69.2383 326.535C69.6258 326.055 69.0358 326.772 69.0069 326.801C69.3077 326.506 69.5679 326.171 69.8571 325.864C70.3429 325.355 70.8461 324.863 71.3724 324.394C71.6327 324.157 71.8987 323.931 72.1706 323.705C72.4655 323.457 73.7206 322.606 72.4251 323.48C73.0092 323.086 73.5702 322.664 74.1659 322.282C74.4609 322.091 74.7617 321.912 75.0682 321.738C75.4499 321.518 76.89 320.847 75.2359 321.622C75.8721 321.321 76.4968 321.009 77.1503 320.737C77.4742 320.604 77.8039 320.477 78.1277 320.349C78.3302 320.274 79.0531 320.025 78.0699 320.367C77.0288 320.725 77.9947 320.401 78.2145 320.332C78.8854 320.124 79.5621 319.944 80.2503 319.794C81.4938 319.522 78.8681 320.025 80.1289 319.817C80.5453 319.747 80.9617 319.69 81.3782 319.638C81.7252 319.597 82.078 319.562 82.425 319.539C82.5638 319.528 82.7084 319.522 82.8472 319.51C83.7205 319.452 81.5517 319.539 82.4308 319.533C83.2232 319.528 84.0097 319.539 84.7963 319.603C85.1549 319.632 85.5077 319.678 85.8663 319.707C84.3568 319.585 85.6407 319.684 86.0109 319.747C86.7859 319.881 87.5609 320.048 88.3186 320.251C88.7003 320.355 89.0762 320.465 89.4579 320.581C89.6314 320.633 89.7992 320.691 89.9669 320.749C90.6899 320.98 89.1919 320.453 89.8454 320.708C90.6494 321.021 91.4475 321.35 92.2225 321.726C93.7783 322.479 95.2532 323.381 96.6412 324.406L95.9646 323.902C98.9026 326.101 101.384 328.856 103.194 332.056L102.824 331.396C102.928 331.587 103.032 331.772 103.131 331.963C103.593 332.831 104.125 333.213 105.109 333.456C106.265 333.739 107.746 333.612 108.874 333.282C110.001 332.952 111.343 332.449 112.222 331.546C112.714 331.043 113.599 330.042 113.188 329.266C111.054 325.233 108.191 322.004 104.519 319.313C101.054 316.773 96.9536 315.014 92.7431 314.181C82.7084 312.196 72.2747 315.188 64.3742 321.559C60.4702 324.707 57.5148 328.786 55.6004 333.398C55.2765 334.173 56.0862 335.007 56.6588 335.319C57.5784 335.823 58.9896 335.88 59.9902 335.742C62.2747 335.423 64.7386 334.469 65.6755 332.218L65.6697 332.229Z" fill="#1E063A"/>
<path d="M213.043 397.496C213.28 390.257 210.082 383.516 205.42 378.123C200.481 372.417 193.899 368.245 186.884 365.566C178.052 362.186 168.492 361.099 159.116 362.227C154.368 362.8 149.533 363.98 145.149 365.919C140.84 367.828 136.705 370.334 133.691 374.037C128.648 380.235 127.584 388.29 127.098 395.998C127.034 397.004 126.976 398.017 126.924 399.024C126.89 399.713 128.44 400.002 128.775 400.048C129.949 400.204 131.366 400.008 132.488 399.684C133.61 399.36 134.929 398.926 135.883 398.144C136.519 397.624 136.93 397.184 136.976 396.327C137.023 395.413 137.075 394.499 137.133 393.59L137.098 394.175C137.509 387.74 138.284 381.022 141.684 375.397L141.308 376.011C142.182 374.599 143.2 373.285 144.385 372.122L144.553 371.96C144.831 371.7 144.779 371.746 144.385 372.105C144.385 372.018 144.744 371.786 144.819 371.723C145.143 371.451 145.473 371.185 145.814 370.93C146.12 370.699 146.438 370.473 146.757 370.259C147.011 370.085 147.734 369.715 146.6 370.34C146.803 370.23 146.999 370.097 147.196 369.981C147.902 369.57 148.688 369.049 149.469 368.795C149.463 368.795 148.266 369.321 148.96 369.032C149.174 368.939 149.388 368.847 149.608 368.76C150.042 368.581 150.481 368.413 150.921 368.251C151.36 368.089 152.783 367.69 150.932 368.228C151.343 368.106 151.754 367.973 152.164 367.857C152.575 367.742 153.003 367.626 153.425 367.522C153.905 367.4 155.704 367.082 153.818 367.412C154.657 367.267 155.49 367.094 156.334 366.972C156.837 366.897 157.346 366.833 157.855 366.775C158.023 366.758 158.197 366.741 158.364 366.723C156.751 366.914 158.023 366.758 158.382 366.735C159.232 366.671 160.082 366.631 160.932 366.619C161.441 366.607 161.956 366.607 162.465 366.613C162.633 366.613 162.806 366.613 162.974 366.619C163.142 366.619 163.315 366.625 163.483 366.631C162.806 366.602 162.696 366.602 163.147 366.619C165.021 366.717 166.889 366.903 168.746 367.198C169.59 367.331 170.429 367.493 171.268 367.661C172.106 367.828 170.516 367.481 171.378 367.684C171.545 367.724 171.713 367.759 171.875 367.8C172.419 367.927 172.957 368.066 173.489 368.21C177.341 369.258 181.1 370.71 184.616 372.608L183.98 372.267C189.787 375.432 195.01 379.818 198.694 385.35L198.37 384.864C201.372 389.43 203.153 394.701 202.968 400.199C202.945 400.893 204.472 401.177 204.819 401.223C205.993 401.379 207.41 401.182 208.532 400.858C210.128 400.401 212.956 399.522 213.02 397.502L213.043 397.496Z" fill="#1E063A"/>
<path d="M148.393 363.853C142.771 358.003 135.559 354.322 127.612 352.835C119.665 351.348 110.944 352.719 103.575 356.214C99.3242 358.228 95.4838 360.977 92.1813 364.321C91.5336 364.981 91.0824 366.121 91.3311 367.047C91.5798 367.973 92.5341 368.714 93.4248 368.98C95.9118 369.72 98.7284 368.899 100.533 367.076C100.967 366.636 101.4 366.162 101.881 365.78C101.857 365.797 100.972 366.567 101.528 366.104C101.649 366.005 101.765 365.901 101.886 365.797C102.152 365.571 102.43 365.351 102.702 365.132C103.714 364.333 104.772 363.598 105.865 362.927C105.998 362.846 106.137 362.771 106.265 362.684C106.259 362.684 105.09 363.349 105.761 362.985C106.033 362.834 106.305 362.684 106.583 362.533C107.132 362.238 107.693 361.966 108.26 361.7C108.827 361.434 109.399 361.191 109.983 360.965C110.388 360.803 111.545 360.45 109.775 361.029C110.111 360.919 110.44 360.797 110.77 360.693C111.996 360.3 113.245 359.976 114.506 359.727C114.657 359.698 114.819 359.675 114.963 359.64C114.981 359.64 113.5 359.877 114.286 359.762C114.593 359.715 114.905 359.669 115.212 359.623C115.831 359.542 116.45 359.478 117.074 359.432C117.699 359.386 118.318 359.357 118.942 359.351C119.07 359.351 119.278 359.322 119.411 359.351C119.411 359.351 118.057 359.322 118.821 359.351C119.174 359.362 119.521 359.374 119.873 359.391C121.157 359.461 122.436 359.611 123.708 359.831C123.864 359.86 124.015 359.889 124.171 359.918C124.356 359.953 125.073 360.103 124.281 359.935C123.54 359.779 124.09 359.895 124.275 359.935C124.46 359.976 124.657 360.022 124.842 360.074C125.524 360.242 126.201 360.439 126.866 360.647C128.277 361.098 129.659 361.642 131.001 362.267L130.035 361.81C133.002 363.216 135.75 365.027 138.196 367.226L137.479 366.572C138.057 367.099 138.613 367.643 139.156 368.204C140.862 369.975 143.864 369.923 145.958 368.847C146.958 368.332 148.098 367.608 148.555 366.526C148.907 365.693 149.087 364.582 148.381 363.853H148.393Z" fill="#1E063A"/>
<path d="M290.25 73L294 85H279L290.25 73Z" fill="#51CFA2"/>
<rect x="238" y="35" width="55" height="55" rx="27.5" fill="#51CFA2"/>
<rect width="32" height="32" transform="translate(249 46)" fill="#51CFA2"/>
<path d="M265 70V63M265 63C265.691 63 266.361 62.9126 267 62.748M265 63C264.309 63 263.639 62.9126 263 62.748M268 72.7192C267.028 72.9036 266.025 73 265 73C263.975 73 262.972 72.9036 262 72.7192M267 75.896C266.343 75.9648 265.675 76 265 76C264.325 76 263.657 75.9648 263 75.896M268 70V69.7444C268 68.4339 268.878 67.3134 270.011 66.6557C272.994 64.925 275 61.6968 275 58C275 52.4772 270.523 48 265 48C259.477 48 255 52.4772 255 58C255 61.6968 257.006 64.925 259.989 66.6557C261.122 67.3134 262 68.4339 262 69.7444V70" stroke="white" stroke-width="1.77778" stroke-linecap="round" stroke-linejoin="round"/>
</g>
<defs>
<filter id="filter0_f_280_1539" x="50" y="131" width="369" height="369" filterUnits="userSpaceOnUse" color-interpolation-filters="sRGB">
<feFlood flood-opacity="0" result="BackgroundImageFix"/>
<feBlend mode="normal" in="SourceGraphic" in2="BackgroundImageFix" result="shape"/>
<feGaussianBlur stdDeviation="25" result="effect1_foregroundBlur_280_1539"/>
</filter>
<radialGradient id="paint0_radial_280_1539" cx="0" cy="0" r="1" gradientUnits="userSpaceOnUse" gradientTransform="translate(540 59.85) rotate(144.148) scale(314.24)">
<stop stop-color="#51CFA2"/>
<stop offset="0.5147" stop-color="#A9F27D" stop-opacity="0.65"/>
<stop offset="1" stop-color="white" stop-opacity="0"/>
</radialGradient>
<radialGradient id="paint1_radial_280_1539" cx="0" cy="0" r="1" gradientUnits="userSpaceOnUse" gradientTransform="translate(321.178 216.867) rotate(128.811) scale(264.669)">
<stop stop-color="#51CFA2"/>
<stop offset="1" stop-color="#A9F27D"/>
</radialGradient>
<radialGradient id="paint2_radial_280_1539" cx="0" cy="0" r="1" gradientUnits="userSpaceOnUse" gradientTransform="translate(386 159) rotate(148.554) scale(162.929 158.955)">
<stop stop-color="#51CFA2"/>
<stop offset="1" stop-color="#A9F27D"/>
</radialGradient>
<radialGradient id="paint3_radial_280_1539" cx="0" cy="0" r="1" gradientUnits="userSpaceOnUse" gradientTransform="translate(386 159) rotate(148.554) scale(162.929 158.955)">
<stop stop-color="#51CFA2"/>
<stop offset="1" stop-color="#A9F27D"/>
</radialGradient>
<radialGradient id="paint4_radial_280_1539" cx="0" cy="0" r="1" gradientUnits="userSpaceOnUse" gradientTransform="translate(386 159) rotate(148.554) scale(162.929 158.955)">
<stop stop-color="#51CFA2"/>
<stop offset="1" stop-color="#A9F27D"/>
</radialGradient>
<radialGradient id="paint5_radial_280_1539" cx="0" cy="0" r="1" gradientUnits="userSpaceOnUse" gradientTransform="translate(360.267 379.479) rotate(132.898) scale(72.4808 74.0058)">
<stop stop-color="#51CFA2"/>
<stop offset="1" stop-color="#A9F27D"/>
</radialGradient>
<radialGradient id="paint6_radial_280_1539" cx="0" cy="0" r="1" gradientUnits="userSpaceOnUse" gradientTransform="translate(19.9844 352.002) rotate(79.2157) scale(53.4439 47.2065)">
<stop stop-color="#51CFA2"/>
<stop offset="1" stop-color="#A9F27D"/>
</radialGradient>
<clipPath id="clip0_280_1539">
<rect width="540" height="500" fill="white"/>
</clipPath>
</defs>
</svg>
