                        <svg  viewBox="0 0 200 160" fill="none" xmlns="http://www.w3.org/2000/svg">
                        <g clip-path="url(#clip0_232_2793)">
                        <g opacity="0.5" filter="url(#filter0_f_232_2793)">
                        <ellipse cx="100" cy="80" rx="80" ry="60" fill="#A9F27D"/>
                        </g>
                        <g clip-path="url(#clip1_232_2793)">
                        <g clip-path="url(#clip2_232_2793)">
                        <path d="M49.2118 121.847C56.7583 116.483 64.2991 111.125 71.8456 105.761C72.6143 105.217 73.3829 104.667 74.1684 104.145C74.9932 103.595 73.7588 104.375 74.6117 103.864C74.7856 103.758 74.9651 103.651 75.1447 103.55C75.3242 103.449 75.5038 103.348 75.6833 103.247C75.8629 103.152 76.048 103.056 76.2276 102.961C76.5362 102.81 76.5979 102.782 76.4127 102.871C76.0256 103.045 76.9513 102.652 76.8896 102.681C77.49 102.428 77.0523 102.613 76.9121 102.658C77.1758 102.574 77.4395 102.518 77.7032 102.439C78.2755 102.265 76.9457 102.535 77.9501 102.394C78.1689 102.366 78.3821 102.333 78.6009 102.299C79.6165 102.153 78.0679 102.299 79.0947 102.254C79.6445 102.226 80.1944 102.209 80.7442 102.204C85.1991 102.192 89.598 102.546 94.0417 102.804C103.204 103.331 112.361 104.033 121.501 104.902C123.773 105.121 126.04 105.346 128.306 105.581C130.36 105.795 132.565 105.839 134.574 106.356C136.055 106.737 137.536 107.657 138.03 109.24C138.238 109.907 138.271 110.58 137.94 111.22C137.946 111.209 137.379 111.899 137.665 111.59C137.34 111.938 137.575 111.602 137.716 111.579C137.413 111.742 137.452 111.725 137.845 111.54C137.738 111.585 137.626 111.63 137.519 111.669C137.07 111.837 138.232 111.248 137.575 111.635C137.272 111.708 137.261 111.714 137.542 111.652C137.822 111.596 137.811 111.596 137.503 111.652C137.07 111.719 136.633 111.781 136.195 111.82C134.854 111.955 134.091 112.017 132.919 112.118C130.382 112.337 127.846 112.539 125.31 112.724C120.177 113.1 115.037 113.408 109.898 113.655C108.585 113.717 107.07 114.087 106.015 114.923C105.387 115.423 104.927 116.315 105.942 116.696C116.266 120.54 126.865 124.439 137.951 125.219C143.994 125.645 149.863 125.017 155.777 123.76C157.073 123.485 158.369 123.188 159.665 122.896C160.31 122.75 160.961 122.604 161.606 122.458C161.932 122.385 162.251 122.318 162.577 122.245C162.975 122.161 163.009 122.155 162.672 122.223C162.891 122.178 163.104 122.133 163.323 122.094C164.513 121.858 165.702 121.645 166.903 121.477C168.474 121.252 169.102 121.179 170.69 121.134C171.745 121.106 172.424 121.056 173.518 121.392C174.505 121.695 175.397 122.284 175.953 123.171C176.435 123.934 176.665 124.922 176.363 125.791C176.306 125.954 176.228 126.128 176.138 126.263C176.155 126.234 175.644 126.84 175.897 126.594C175.717 126.773 175.493 126.919 175.291 127.07C175.717 126.756 174.876 127.312 174.78 127.368C173.714 127.957 172.62 128.49 171.52 129.012C171.509 129.012 170.578 129.449 171.128 129.197C170.842 129.326 170.555 129.455 170.269 129.584C169.602 129.881 168.928 130.173 168.255 130.454C167.195 130.897 166.123 131.318 165.046 131.716C164.457 131.935 163.867 132.148 163.278 132.35C162.981 132.451 162.684 132.552 162.386 132.653C162.005 132.782 161.988 132.788 162.347 132.67C162.15 132.732 161.949 132.799 161.752 132.861C159.261 133.646 156.736 134.325 154.183 134.892C154.11 134.909 153.095 135.127 153.835 134.97C153.527 135.032 153.224 135.094 152.915 135.156C152.298 135.273 151.681 135.391 151.064 135.498C149.723 135.733 148.382 135.935 147.035 136.104C146.412 136.182 145.79 136.255 145.167 136.323C144.853 136.356 144.544 136.384 144.23 136.418C143.209 136.519 144.819 136.379 143.792 136.457C142.541 136.553 141.29 136.637 140.039 136.682C138.787 136.727 137.531 136.755 136.279 136.749C135.651 136.749 135.028 136.738 134.4 136.721C133.771 136.704 133.025 136.676 132.61 136.654C122.252 136.087 112.007 133.141 101.583 134.022C95.6576 134.522 90.0019 136.238 84.9915 139.481C80.8676 142.152 77.4002 145.648 73.5905 148.717C71.666 150.271 69.6686 151.685 67.789 152.79C66.7566 153.396 65.6962 153.957 64.6189 154.485C63.738 154.917 65.1744 154.26 64.2711 154.642C63.9961 154.759 63.7212 154.883 63.4463 154.995C62.8011 155.264 62.1502 155.5 61.4994 155.741C60.871 155.943 61.3703 155.786 61.4994 155.741C61.2132 155.831 60.9327 155.921 60.6465 156.005C60.0742 156.173 59.4963 156.314 58.9184 156.454C57.9646 156.695 59.5973 156.347 58.6267 156.516C58.3293 156.566 58.0375 156.622 57.7402 156.673C57.4709 156.718 57.2015 156.757 56.9266 156.791C56.8032 156.807 55.6586 156.908 56.3768 156.858C53.9641 157.032 52.4324 156.97 49.9917 156.493C46.0025 155.713 41.7608 153.536 39.0396 150.237C37.6144 148.509 36.9187 146.327 37.5415 144.133C37.8164 143.168 38.2597 142.298 38.8825 141.513C39.567 140.648 40.2795 140.149 41.037 139.717C41.7944 139.285 40.5096 139.88 41.368 139.566C41.469 139.526 42.3948 139.206 41.6261 139.448C41.9123 139.358 42.1984 139.291 42.4846 139.206C43.4103 138.937 41.8169 139.291 42.7707 139.139C43.0681 139.094 43.3598 139.038 43.6572 138.999C43.6965 138.999 44.6784 138.892 44.0331 138.948C44.6784 138.892 45.3236 138.875 45.9632 138.87C46.6926 138.87 45.4246 138.774 46.1596 138.887C46.3896 138.92 46.6197 138.937 46.8441 138.976C46.8609 138.976 47.5791 139.156 47.1583 139.038C47.3771 139.1 47.5903 139.167 47.8035 139.246C48.4095 139.476 49.0211 139.796 49.4307 140.43C50.3003 141.787 49.296 143.51 48.4151 144.688C48.1626 145.025 47.8877 145.361 47.5791 145.653C47.9663 145.283 47.5342 145.67 47.4557 145.721C47.7699 145.519 48.0336 145.395 48.3815 145.277C47.5174 145.58 48.965 145.277 48.0448 145.35C47.0405 145.434 48.6227 145.378 47.6072 145.384C46.8553 145.384 46.1091 145.401 45.3629 145.384C34.7417 145.148 23.9915 142.59 13.6678 139.723C11.0756 138.999 8.48345 138.258 5.8969 137.518C4.4325 137.097 2.62023 137.462 1.31854 138.225C0.690132 138.595 -0.875265 139.947 0.645246 140.385C12.0238 143.639 23.481 146.994 35.3028 148.156C38.3438 148.453 41.4241 148.661 44.4764 148.61C47.7699 148.56 51.3271 147.825 53.6948 145.378C54.9909 144.037 56.2982 141.978 56.2814 140.054C56.2645 137.983 54.1773 136.676 52.4044 136.182C49.7617 135.447 46.917 135.593 44.2351 136.008C40.9865 136.513 37.6986 137.591 35.0447 139.582C33.0697 141.058 31.3921 143.269 30.9152 145.732C30.4158 148.324 31.3023 150.641 32.9519 152.633C36.1444 156.499 41.0763 158.693 45.8959 159.635C51.2878 160.69 57.0052 160.101 62.2119 158.446C67.7666 156.678 72.8836 153.862 77.5068 150.321C81.7037 147.112 85.3675 143.168 89.8392 140.323C89.5811 140.486 90.1703 140.127 90.2488 140.082C90.5462 139.902 90.8492 139.734 91.1521 139.566C91.4158 139.42 91.6796 139.285 91.9433 139.15C92.0779 139.083 92.2126 139.016 92.3472 138.954C91.9545 139.145 92.4202 138.926 92.5829 138.853C93.144 138.612 93.7106 138.41 94.2773 138.197C94.6476 138.056 94.1932 138.225 94.1427 138.241C94.3334 138.185 94.5242 138.124 94.715 138.068C95.0516 137.972 95.3883 137.877 95.7249 137.793C95.8708 137.759 96.0167 137.72 96.1625 137.686C96.213 137.675 96.6956 137.563 96.3084 137.647C95.8876 137.742 96.5048 137.607 96.6058 137.591C96.7517 137.563 96.8975 137.534 97.049 137.512C97.7392 137.394 98.4349 137.304 99.1306 137.226C99.1474 137.226 99.6412 137.175 99.3214 137.203C99.0016 137.232 99.4953 137.192 99.5178 137.187C99.8207 137.164 100.118 137.147 100.421 137.131C101.128 137.097 101.835 137.074 102.548 137.074C104.012 137.074 104.966 137.114 106.29 137.209C107.614 137.304 108.983 137.445 110.324 137.607C113.085 137.933 115.834 138.354 118.583 138.741C129.894 140.34 141.256 140.385 152.489 138.101C158.302 136.917 164.002 135.273 169.512 133.068C172.239 131.98 174.915 130.757 177.524 129.421C179.65 128.333 182.658 126.801 182.972 124.125C183.269 121.594 181.407 119.546 179.168 118.677C176.273 117.549 172.906 117.874 169.888 118.177C166.869 118.48 163.744 119.131 160.714 119.799C159.255 120.119 157.802 120.461 156.343 120.781C156.018 120.854 155.693 120.921 155.373 120.994C155.356 120.994 154.817 121.112 155.165 121.039C155.513 120.966 154.974 121.078 154.952 121.084C154.194 121.235 153.437 121.381 152.674 121.51C151.967 121.634 151.26 121.74 150.547 121.836C150.222 121.881 149.891 121.92 149.56 121.959C149.397 121.976 149.229 121.993 149.066 122.01L148.735 122.043C148.943 122.026 148.937 122.021 148.724 122.043C147.299 122.15 145.868 122.195 144.437 122.178C141.789 122.144 138.916 121.836 136.145 121.37C130.411 120.41 124.839 118.699 119.357 116.797C116.619 115.849 113.904 114.839 111.182 113.829L107.227 116.865C112.192 116.629 117.158 116.331 122.123 115.972C124.547 115.798 126.966 115.608 129.389 115.4C131.813 115.193 134.226 115.12 136.582 114.693C138.939 114.267 141.767 113.459 143.528 111.568C144.819 110.182 145.06 108.23 144.112 106.586C142.967 104.599 140.947 103.724 138.793 103.247C136.532 102.742 134.164 102.624 131.864 102.383C121.978 101.356 112.069 100.526 102.149 99.9032C97.0659 99.5834 91.9825 99.3141 86.8936 99.0953C84.3575 98.9831 81.8215 98.9101 79.2966 99.2748C76.553 99.6732 73.9159 100.588 71.4977 101.946C69.0795 103.303 66.9418 104.942 64.7255 106.513C62.5093 108.084 60.1416 109.773 57.8468 111.4C53.2628 114.659 48.6788 117.914 44.0948 121.174C43.775 121.398 43.2757 121.92 43.3991 122.38C43.5225 122.84 44.2183 123.031 44.6054 123.076C46.1764 123.261 47.9214 122.756 49.2062 121.841L49.2118 121.847Z" fill="#1E063A"/>
                        <path d="M120.519 103.679L120.878 105.834C120.973 106.389 121.001 107.007 121.203 107.54C121.613 108.628 122.741 108.869 123.767 109.026C125.922 109.352 128.093 109.537 130.259 109.717C132.425 109.896 134.635 110.059 136.818 110.306C137.783 110.418 138.782 110.682 139.752 110.654C140.443 110.631 141.2 110.423 141.716 109.947C141.84 109.834 141.957 109.705 142.03 109.554C142.143 109.324 142.115 109.481 141.913 109.582C142.367 109.352 143.225 108.83 142.765 108.23C142.35 107.68 141.099 107.927 140.605 108.168C140.067 108.437 139.511 108.723 139.141 109.212C139.085 109.284 139.029 109.357 138.989 109.442C138.759 109.902 141.43 108.92 140.426 108.701C139.556 108.51 138.641 108.454 137.755 108.353C135.786 108.134 133.811 107.988 131.841 107.826C129.99 107.674 128.133 107.534 126.292 107.276C125.596 107.18 124.62 107.248 124.385 106.451C124.042 105.29 123.964 103.988 123.762 102.793C123.56 101.598 120.3 102.417 120.508 103.663L120.519 103.679Z" fill="#1E063A"/>
                        </g>
                        </g>
                        <path d="M84.4722 71.0641L77.9346 86.9999L62.1136 73.8838L84.4722 71.0641Z" fill="#A9F27D"/>
                        <rect x="33" y="3" width="75.3528" height="75.3528" rx="37.6764" fill="#A9F27D"/>
                        <path fill-rule="evenodd" clip-rule="evenodd" d="M72.7488 25.8077C72.7423 24.8619 73.5037 24.0898 74.4495 24.0833L88.9807 23.9828C89.4349 23.9796 89.8718 24.157 90.1951 24.476C90.5185 24.7949 90.702 25.2292 90.7051 25.6834L90.8057 40.2147C90.8122 41.1605 90.0508 41.9325 89.105 41.939C88.1592 41.9456 87.3872 41.1842 87.3806 40.2384L87.3087 29.8415L85.4017 31.7751C81.0959 36.1409 78.6735 41.6535 78.1239 47.3145C78.0709 47.8605 77.7596 48.348 77.2866 48.6258C76.8136 48.9035 76.2362 48.9379 75.7336 48.7183L64.5599 43.8358L56.5178 62.2403C56.1391 63.107 55.1295 63.5025 54.2628 63.1238C53.3961 62.7451 53.0005 61.7355 53.3792 60.8688L62.107 40.8951C62.2889 40.4789 62.6286 40.152 63.0515 39.9863C63.4744 39.8206 63.9458 39.8296 64.362 40.0115L75.0324 44.6741C76.0306 39.081 78.6732 33.7196 82.963 29.37L84.87 27.4364L74.4732 27.5083C73.5274 27.5149 72.7554 26.7535 72.7488 25.8077Z" fill="#1E063A"/>
                        <circle cx="117" cy="70" r="21" fill="#1E063A"/>
                        <path d="M106.031 78.0938C112.182 78.0938 118.14 78.9164 123.803 80.4576C124.62 80.6802 125.438 80.0722 125.438 79.2245V78.0938M107.719 62.0625V62.9063C107.719 63.3722 107.341 63.75 106.875 63.75H106.031M106.031 63.75V63.3281C106.031 62.6291 106.598 62.0625 107.297 62.0625H126.281M106.031 63.75V73.875M126.281 62.0625V62.9063C126.281 63.3722 126.659 63.75 127.125 63.75H127.969M126.281 62.0625H126.703C127.402 62.0625 127.969 62.6291 127.969 63.3281V74.2969C127.969 74.9959 127.402 75.5625 126.703 75.5625H126.281M127.969 73.875H127.125C126.659 73.875 126.281 74.2528 126.281 74.7188V75.5625M126.281 75.5625H107.719M107.719 75.5625H107.297C106.598 75.5625 106.031 74.9959 106.031 74.2969V73.875M107.719 75.5625V74.7188C107.719 74.2528 107.341 73.875 106.875 73.875H106.031M120.375 68.8125C120.375 70.6765 118.864 72.1875 117 72.1875C115.136 72.1875 113.625 70.6765 113.625 68.8125C113.625 66.9485 115.136 65.4375 117 65.4375C118.864 65.4375 120.375 66.9485 120.375 68.8125ZM123.75 68.8125H123.758V68.8209H123.75V68.8125ZM110.25 68.8125H110.258V68.8209H110.25V68.8125Z" stroke="#A9F27D" stroke-width="1.6875" stroke-linecap="round" stroke-linejoin="round"/>
                        <path d="M127.084 26.2051L126 30L124.916 26.2051C124.346 24.2118 122.788 22.6538 120.795 22.0843L117 21L120.795 19.9157C122.788 19.3462 124.346 17.7882 124.916 15.7949L126 12L127.084 15.7949C127.654 17.7882 129.212 19.3462 131.205 19.9157L135 21L131.205 22.0843C129.212 22.6538 127.654 24.2118 127.084 26.2051Z" stroke="#A9F27D" stroke-width="2" stroke-linecap="round" stroke-linejoin="round"/>
                        <path d="M138.345 16.6194L138 18L137.655 16.6194C137.252 15.0071 135.993 13.7482 134.381 13.3452L133 13L134.381 12.6548C135.993 12.2518 137.252 10.9929 137.655 9.38062L138 8L138.345 9.38062C138.748 10.9929 140.007 12.2518 141.619 12.6548L143 13L141.619 13.3452C140.007 13.7482 138.748 15.0071 138.345 16.6194Z" stroke="#A9F27D" stroke-width="2" stroke-linecap="round" stroke-linejoin="round"/>
                        <path d="M136.526 32.423L136 34L135.474 32.423C135.176 31.5272 134.473 30.8243 133.577 30.5257L132 30L133.577 29.4743C134.473 29.1757 135.176 28.4728 135.474 27.577L136 26L136.526 27.577C136.824 28.4728 137.527 29.1757 138.423 29.4743L140 30L138.423 30.5257C137.527 30.8243 136.824 31.5272 136.526 32.423Z" stroke="#A9F27D" stroke-width="2" stroke-linecap="round" stroke-linejoin="round"/>
                        <path d="M35.3452 85.6194L35 87L34.6548 85.6194C34.2518 84.0071 32.9929 82.7482 31.3806 82.3452L30 82L31.3806 81.6548C32.9929 81.2518 34.2518 79.9929 34.6548 78.3806L35 77L35.3452 78.3806C35.7482 79.9929 37.0071 81.2518 38.6194 81.6548L40 82L38.6194 82.3452C37.0071 82.7482 35.7482 84.0071 35.3452 85.6194Z" stroke="#A9F27D" stroke-width="2" stroke-linecap="round" stroke-linejoin="round"/>
                        </g>
                        <defs>
                        <filter id="filter0_f_232_2793" x="0" y="0" width="200" height="160" filterUnits="userSpaceOnUse" color-interpolation-filters="sRGB">
                        <feFlood flood-opacity="0" result="BackgroundImageFix"/>
                        <feBlend mode="normal" in="SourceGraphic" in2="BackgroundImageFix" result="shape"/>
                        <feGaussianBlur stdDeviation="10" result="effect1_foregroundBlur_232_2793"/>
                        </filter>
                        <clipPath id="clip0_232_2793">
                        <rect width="200" height="160" fill="white"/>
                        </clipPath>
                        <clipPath id="clip1_232_2793">
                        <rect width="183" height="160" fill="white"/>
                        </clipPath>
                        <clipPath id="clip2_232_2793">
                        <rect width="183" height="61.1627" fill="white" transform="translate(0 99)"/>
                        </clipPath>
                        </defs>
                        </svg>