<?xml version="1.0" encoding="UTF-8" standalone="no"?><!DOCTYPE svg PUBLIC "-//W3C//DTD SVG 1.1//EN" "http://www.w3.org/Graphics/SVG/1.1/DTD/svg11.dtd"><svg width="100%" height="100%" viewBox="0 0 564 359" version="1.1" xmlns="http://www.w3.org/2000/svg" xmlns:xlink="http://www.w3.org/1999/xlink" xml:space="preserve" xmlns:serif="http://www.serif.com/" style="fill-rule:evenodd;clip-rule:evenodd;stroke-linecap:round;stroke-linejoin:round;"><path id="whiteBg" d="M58.508,181.126c49.417,-8.353 73.208,-25.772 44.816,-61.649c48.509,14.157 62.216,-2.159 50.303,-40.906c32.432,20.697 62.748,36.524 66.646,-8.431c29.993,43.219 50.908,31.767 63.422,-30.271c5.193,34.631 17.614,54.083 32.78,56.438c11.313,1.757 24.899,-4.118 34.456,-24.201c-1.539,32.08 17.694,36.411 77.987,-14.108c-36.45,80.657 -2.908,116.476 76.487,122.921c-70.079,7.074 -101.167,30.603 -50.189,64.208c-64.408,-15.032 -90.018,-4.334 -58.967,43.941c-57.377,-35.601 -78.538,-33.833 -75.369,-6.959c-23.313,-23.248 -39.213,-11.712 -47.206,36.927c-13.617,-63.077 -38.782,-56.376 -55.738,-37.168c-1.458,-24.008 -20.302,-33.133 -80.597,11.818c32.61,-55.471 14.097,-75.657 -35.6,-63.887c34.531,-23.756 13.829,-42.337 -43.231,-48.673Z" style="fill:#fff;"/><path id="yellowBg" d="M61.96,187.945c49.417,-8.354 73.208,-25.772 44.815,-61.649c48.51,14.156 62.217,-2.159 50.304,-40.907c32.432,20.698 62.747,36.524 66.645,-8.43c29.994,43.219 50.908,31.766 63.422,-30.272c5.194,34.632 17.614,54.083 32.781,56.439c11.313,1.757 24.898,-4.119 34.456,-24.202c-1.539,32.08 17.693,36.412 77.986,-14.108c-36.449,80.658 -2.907,116.477 76.488,122.922c-70.079,7.073 -101.167,30.603 -50.19,64.207c-64.407,-15.032 -90.017,-4.334 -58.966,43.941c-57.377,-35.6 -78.538,-33.832 -75.369,-6.958c-23.314,-23.249 -39.214,-11.712 -47.206,36.927c-13.617,-63.077 -38.782,-56.376 -55.738,-37.169c-1.459,-24.007 -20.302,-33.133 -80.598,11.818c32.61,-55.471 14.097,-75.656 -35.599,-63.886c34.531,-23.756 13.828,-42.338 -43.231,-48.673Z" style="fill:#ffd907;"/><g id="outline"><path d="M102.357,230.697c9.643,-5.775 15.378,-11.543 17.728,-16.972c2.709,-6.26 1.264,-12.221 -3.778,-17.515c-2.088,-2.192 -4.872,-4.282 -8.355,-6.127c-3.786,-2.004 -8.421,-3.747 -13.819,-5.201c-5.199,-1.4 -11.113,-2.511 -17.713,-3.353c-5.483,-0.7 -11.405,-1.167 -17.791,-1.486c-0.598,-0.066 -1.137,0.365 -1.204,0.963c-0.066,0.598 0.365,1.137 0.963,1.203c6.218,1.076 11.947,2.305 17.251,3.58c6.246,1.5 11.808,3.142 16.715,4.862c3.948,1.383 7.422,2.855 10.46,4.343c3.737,1.831 6.755,3.705 8.962,5.78c4.318,4.061 5.192,8.77 2.134,14.314c-2.334,4.231 -6.489,8.853 -12.788,13.813c-0.496,0.341 -0.621,1.02 -0.28,1.516c0.34,0.495 1.019,0.621 1.515,0.28Z"/><path d="M138.278,294.238c5.049,-7.586 9.052,-14.491 12.023,-20.82c1.605,-3.419 2.893,-6.66 3.898,-9.726c1.711,-5.217 2.581,-9.928 2.723,-14.105c0.127,-3.761 -0.363,-7.12 -1.373,-10.052c-0.907,-2.634 -2.238,-4.945 -3.964,-6.909c-3.595,-4.088 -8.853,-6.818 -15.683,-7.905c-4.146,-0.659 -8.883,-0.751 -14.178,-0.208c-6.044,0.621 -12.793,2.043 -20.236,4.226c-0.585,0.138 -0.948,0.726 -0.809,1.311c0.139,0.585 0.726,0.948 1.311,0.809c13.532,-2.509 24.566,-2.687 32.837,-0.719c7.45,1.772 12.339,5.482 14.37,11.572c0.761,2.283 1.17,4.862 1.186,7.782c0.02,3.702 -0.545,7.888 -1.697,12.613c-2.107,8.648 -6.025,18.973 -12.287,31.026c-0.304,0.519 -0.131,1.187 0.388,1.492c0.518,0.305 1.186,0.131 1.491,-0.387Z"/><path d="M219.024,281.802c-0.05,-13.952 -6.108,-23.371 -21.384,-22.715c-2.579,0.11 -5.435,0.568 -8.581,1.392c-3.576,0.936 -7.554,2.334 -11.889,4.361c-3.413,1.595 -7.042,3.599 -10.921,5.984c-4.713,2.899 -9.769,6.377 -15.229,10.482c-4.52,3.399 -9.258,7.237 -14.333,11.506c-0.482,0.359 -0.581,1.043 -0.222,1.525c0.36,0.482 1.043,0.582 1.525,0.222c7.945,-5.251 15.176,-9.589 21.715,-13.313c5.423,-3.089 10.357,-5.675 14.859,-7.842c2.676,-1.288 5.189,-2.423 7.551,-3.426c1.775,-0.755 3.459,-1.442 5.064,-2.046c4.996,-1.88 9.204,-2.923 12.801,-3.152c10.977,-0.7 15.596,6.513 16.869,17.154c0.036,0.6 0.553,1.058 1.154,1.021c0.6,-0.036 1.058,-0.553 1.021,-1.153Z"/><path d="M274.739,318.806c-1.083,-7.474 -2.338,-13.985 -3.88,-19.674c-1.326,-4.894 -2.835,-9.145 -4.479,-12.827c-1.795,-4.018 -3.757,-7.361 -5.834,-10.071c-2.904,-3.787 -6.032,-6.397 -9.164,-8.063c-5.492,-2.919 -11.085,-3.134 -16.421,-1.283c-6.524,2.263 -12.668,7.596 -17.841,14.259c-0.398,0.45 -0.355,1.14 0.095,1.538c0.451,0.398 1.14,0.355 1.538,-0.096c4.471,-4.45 9.396,-8.012 14.403,-9.97c5.075,-1.985 10.192,-2.02 15.093,1.012c2.39,1.479 4.668,3.704 6.98,6.696c1.855,2.401 3.727,5.267 5.575,8.714c1.801,3.359 3.614,7.205 5.404,11.651c2.156,5.357 4.347,11.466 6.401,18.574c0.127,0.588 0.707,0.962 1.295,0.835c0.588,-0.126 0.962,-0.707 0.835,-1.295Z"/><path d="M321.649,281.338c-5.838,-6.759 -11.379,-10.961 -16.566,-12.705c-5.468,-1.838 -10.59,-0.99 -15.231,2.221c-2.231,1.544 -4.363,3.706 -6.272,6.531c-2.059,3.047 -3.887,6.889 -5.445,11.499c-1.452,4.296 -2.659,9.264 -3.641,14.932c-0.793,4.577 -1.394,9.57 -1.895,15.044c-0.098,0.593 0.305,1.154 0.898,1.252c0.594,0.097 1.155,-0.306 1.252,-0.899c1.257,-5.261 2.606,-10.019 3.956,-14.385c1.622,-5.246 3.323,-9.805 5.061,-13.769c1.411,-3.218 2.885,-5.98 4.363,-8.36c1.775,-2.859 3.567,-5.104 5.555,-6.679c3.707,-2.939 7.925,-3.453 12.91,-1.617c4.092,1.507 8.596,4.265 13.517,8.478c0.426,0.425 1.116,0.424 1.541,-0.002c0.424,-0.426 0.423,-1.117 -0.003,-1.541Z"/><path d="M396.824,288.142c-7.379,-5.256 -14.071,-9.848 -20.318,-13.646c-5.168,-3.141 -9.967,-5.764 -14.419,-7.884c-3.654,-1.74 -7.076,-3.138 -10.252,-4.202c-6.709,-2.248 -12.327,-3.156 -16.821,-3.045c-12.817,0.316 -17.802,8.254 -15.216,22.872c0.07,0.597 0.612,1.025 1.21,0.955c0.597,-0.071 1.025,-0.613 0.954,-1.21c-0.69,-11.563 2.952,-17.773 12.932,-17.094c3.993,0.271 8.824,1.624 14.734,3.8c2.986,1.1 6.239,2.392 9.779,3.89c4.421,1.87 9.273,4.036 14.592,6.563c6.54,3.108 13.766,6.617 21.676,10.853c0.511,0.317 1.183,0.159 1.5,-0.352c0.317,-0.511 0.16,-1.183 -0.351,-1.5Z"/><path d="M455.463,244.066c-9.064,-2.635 -17.33,-4.747 -24.849,-6.168c-6.277,-1.186 -11.998,-1.918 -17.139,-2.169c-7.022,-0.344 -12.99,0.179 -17.771,1.52c-4.878,1.368 -8.602,3.614 -11.152,6.536c-3.396,3.891 -4.935,9.049 -3.98,15.592c1.147,7.849 5.92,17.888 14.761,30.28c0.325,0.506 1,0.653 1.506,0.327c0.505,-0.325 0.652,-1 0.326,-1.506c-5.834,-10.131 -9.296,-18.532 -10.692,-25.352c-1.38,-6.743 -0.564,-11.704 2.713,-15.081c1.96,-2.019 4.775,-3.352 8.318,-4.332c4.275,-1.183 9.553,-1.748 15.832,-1.775c4.95,-0.022 10.476,0.237 16.59,0.818c7.52,0.714 15.866,1.803 25.042,3.432c0.586,0.137 1.172,-0.228 1.309,-0.814c0.136,-0.585 -0.228,-1.172 -0.814,-1.308Z"/><path d="M505.296,179.835c-10.151,0.525 -19.488,1.378 -27.927,2.706c-6.773,1.066 -12.944,2.409 -18.454,4.017c-5.711,1.667 -10.722,3.611 -14.932,5.82c-5.876,3.082 -10.254,6.678 -13.038,10.532c-4.828,6.683 -5.346,14.28 -0.271,22.447c4.038,6.499 11.823,13.448 23.942,20.68c0.502,0.331 1.178,0.192 1.509,-0.311c0.331,-0.502 0.192,-1.178 -0.31,-1.509c-10.761,-7.807 -17.514,-14.913 -20.835,-21.311c-3.2,-6.167 -2.725,-11.529 0.981,-16.193c2.463,-3.1 6.262,-5.818 11.147,-8.398c3.906,-2.063 8.478,-4.022 13.699,-5.841c5.241,-1.826 11.089,-3.546 17.527,-5.122c8.193,-2.006 17.258,-3.854 27.181,-5.348c0.598,-0.061 1.035,-0.596 0.974,-1.194c-0.06,-0.598 -0.595,-1.035 -1.193,-0.975Z"/><path d="M427.925,57.549c-6.599,13.363 -11.202,25.514 -13.869,36.577c-1.429,5.925 -2.291,11.535 -2.629,16.836c-0.537,8.424 0.26,16.079 2.27,22.975c1.505,5.163 3.708,9.908 6.562,14.227c2.144,3.246 4.664,6.252 7.542,9.012c6.04,5.791 13.625,10.572 22.661,14.312c14.627,6.054 33.077,9.41 54.855,10.518c0.599,0.048 1.126,-0.399 1.174,-0.998c0.049,-0.6 -0.398,-1.126 -0.998,-1.175c-21.132,-2.359 -38.842,-6.783 -52.791,-13.395c-6.899,-3.269 -12.837,-7.087 -17.788,-11.514c-3.54,-3.165 -6.548,-6.648 -9.049,-10.457c-2.497,-3.803 -4.48,-7.931 -5.912,-12.436c-1.981,-6.233 -2.927,-13.149 -2.795,-20.833c0.163,-9.512 1.915,-20.138 5.422,-32.008c1.933,-6.543 4.345,-13.452 7.331,-20.744c0.247,-0.548 0.003,-1.194 -0.545,-1.441c-0.548,-0.248 -1.194,-0.004 -1.441,0.544Z"/><path d="M349.843,72.053c-0.739,6.793 -0.441,12.416 0.971,16.69c2.185,6.613 6.953,10.19 14.536,10.249c4.206,0.033 9.414,-1.17 15.658,-3.843c1.787,-0.765 3.66,-1.663 5.609,-2.712c2.502,-1.347 5.141,-2.929 7.913,-4.759c4.516,-2.979 9.405,-6.58 14.69,-10.856c6.245,-5.054 12.973,-11.06 20.398,-17.989c0.46,-0.386 0.521,-1.074 0.135,-1.535c-0.386,-0.461 -1.074,-0.522 -1.535,-0.135c-8.052,6.043 -15.39,11.144 -22.009,15.571c-5.511,3.685 -10.518,6.825 -15.071,9.489c-2.73,1.598 -5.288,3.019 -7.682,4.282c-1.819,0.959 -3.536,1.833 -5.168,2.606c-5.24,2.481 -9.54,3.889 -13.121,4.148c-6.174,0.446 -9.759,-2.732 -11.548,-8.776c-1,-3.38 -1.534,-7.5 -1.6,-12.325c0.029,-0.601 -0.435,-1.112 -1.036,-1.141c-0.601,-0.029 -1.112,0.436 -1.14,1.036Z"/><path d="M282.617,40.03c0.88,9.357 2.29,17.641 4.287,24.848c1.7,6.134 3.806,11.467 6.225,15.983c2.624,4.899 5.638,8.856 8.916,11.815c4.279,3.862 9.033,6.045 13.949,6.727c6.123,0.721 12.81,-0.414 19.114,-4.575c6.282,-4.145 12.231,-11.234 16.807,-22.254c0.258,-0.543 0.027,-1.194 -0.516,-1.452c-0.543,-0.259 -1.194,-0.028 -1.452,0.515c-4.209,7.78 -8.96,13.153 -13.82,16.722c-6.488,4.765 -13.206,6.015 -19.171,4.852c-3.724,-0.64 -7.155,-2.586 -10.416,-5.521c-2.827,-2.546 -5.509,-5.84 -8.005,-9.925c-2.494,-4.081 -4.832,-8.873 -6.952,-14.424c-2.602,-6.816 -4.954,-14.657 -6.811,-23.634c-0.089,-0.595 -0.644,-1.005 -1.239,-0.916c-0.595,0.089 -1.005,0.645 -0.916,1.239Z"/><path d="M219.378,70.762c3.764,6.157 7.4,11.273 10.966,15.387c3.273,3.776 6.487,6.684 9.604,8.788c5.044,3.403 9.936,4.656 14.494,4.137c3.722,-0.423 7.299,-2.078 10.604,-5.028c2.393,-2.135 4.661,-4.988 6.735,-8.557c2.719,-4.679 5.172,-10.613 7.283,-17.803c2.276,-7.749 4.119,-16.947 5.699,-27.602c0.119,-0.589 -0.263,-1.164 -0.853,-1.283c-0.589,-0.119 -1.165,0.263 -1.284,0.852c-2.144,8.327 -4.441,15.658 -6.751,22.102c-3.036,8.471 -6.218,15.24 -9.564,20.365c-1.862,2.851 -3.764,5.151 -5.739,6.912c-2.229,1.987 -4.516,3.263 -7.008,3.671c-4.291,0.702 -8.935,-0.946 -14.183,-4.705c-5.533,-3.964 -11.623,-10.035 -18.213,-18.479c-0.343,-0.494 -1.022,-0.617 -1.516,-0.274c-0.494,0.343 -0.617,1.023 -0.274,1.517Z"/><path d="M153.041,79.489c5.471,4.054 10.82,7.97 16.105,11.349c3.955,2.53 7.832,4.754 11.597,6.555c3.703,1.772 7.295,3.138 10.703,3.962c4.352,1.051 8.429,1.252 12.051,0.543c5.426,-1.062 10.014,-4.023 13.171,-9.678c2.775,-4.971 4.466,-12.102 4.69,-21.986c0.052,-0.599 -0.392,-1.127 -0.991,-1.179c-0.599,-0.052 -1.128,0.392 -1.18,0.991c-1.095,7.158 -2.818,12.603 -4.976,16.721c-2.951,5.631 -6.893,8.301 -11.721,8.917c-2.889,0.369 -6.044,-0.038 -9.481,-0.854c-3.073,-0.73 -6.348,-1.785 -9.792,-3.134c-3.722,-1.457 -7.628,-3.188 -11.68,-5.142c-5.585,-2.693 -11.41,-5.684 -17.324,-8.902c-0.507,-0.323 -1.181,-0.175 -1.504,0.332c-0.324,0.507 -0.175,1.182 0.332,1.505Z"/><path d="M103.019,120.523c6.967,2.564 13.196,4.437 18.815,5.597c3.022,0.623 5.849,1.022 8.498,1.23c4.452,0.35 8.387,0.128 11.81,-0.568c2.985,-0.607 5.595,-1.61 7.828,-2.935c1.943,-1.153 3.615,-2.558 4.997,-4.201c2.951,-3.509 4.735,-8.037 5.17,-13.552c0.274,-3.483 0.053,-7.362 -0.728,-11.632c-0.897,-4.906 -2.493,-10.296 -4.74,-16.212c-0.177,-0.574 -0.787,-0.898 -1.362,-0.721c-0.575,0.177 -0.898,0.787 -0.721,1.362c2.606,10.752 3.269,19.6 2.07,26.512c-1.018,5.866 -3.605,10.065 -8.103,12.663c-1.7,0.981 -3.638,1.774 -5.869,2.341c-2.93,0.745 -6.297,1.143 -10.162,1.21c-7.298,0.125 -16.19,-0.796 -26.893,-3.186c-0.577,-0.168 -1.183,0.164 -1.351,0.741c-0.169,0.578 0.163,1.183 0.741,1.351Z"/><path d="M58.69,182.2c8.03,-0.852 15.387,-1.926 22.017,-3.426c5.327,-1.205 10.155,-2.66 14.44,-4.372c4.397,-1.756 8.229,-3.785 11.407,-6.088c4.066,-2.947 7.106,-6.341 9.061,-10.059c2.769,-5.269 3.505,-11.24 1.641,-17.92c-1.797,-6.442 -6.025,-13.59 -13.078,-21.534c-0.373,-0.471 -1.059,-0.551 -1.53,-0.178c-0.472,0.373 -0.552,1.059 -0.179,1.531c4.569,6.515 7.492,12.35 9.078,17.583c2.087,6.888 1.506,12.582 -1.417,17.429c-1.728,2.865 -4.293,5.365 -7.522,7.722c-2.827,2.063 -6.14,4.008 -9.95,5.824c-3.954,1.884 -8.379,3.668 -13.286,5.341c-6.318,2.154 -13.322,4.197 -21.045,5.999c-0.593,0.1 -0.993,0.663 -0.893,1.256c0.1,0.593 0.663,0.993 1.256,0.892Z"/></g><g id="font"><path d="M418.157,215.239c-5.354,-1.388 -10.311,-8.527 -15.665,-6.742c-4.958,1.586 -8.924,14.278 -8.726,19.235l0,1.19c0,0.595 0.199,1.388 0.199,2.379c0.198,1.785 0.595,4.363 1.388,6.941c0.595,2.181 2.181,6.345 5.75,9.518c2.182,1.785 5.156,3.371 8.924,3.569c3.768,0.199 6.94,-0.991 9.122,-2.379c3.767,-2.181 6.742,-5.354 8.526,-8.725c1.785,-3.173 8.329,-11.7 7.139,-16.657c-0.991,-6.148 -10.311,-6.742 -16.657,-8.329Zm-26.968,-131.868c-3.57,-3.768 -7.734,-5.751 -12.295,-5.751c-2.181,0 -4.363,0.397 -6.544,1.388c-4.362,1.983 -9.32,4.363 -13.286,8.329c-5.552,5.354 -10.708,10.906 -15.665,16.459c-2.578,2.776 -4.958,5.552 -7.734,8.13c-1.785,-2.975 -4.957,-4.958 -9.518,-5.751c-2.975,-0.595 -5.949,-0.793 -9.122,-0.793l-0.198,-0c-6.742,-0 -10.907,2.38 -13.088,7.139c-2.776,-1.785 -6.346,-2.578 -9.32,-2.975c-1.586,-0.198 -2.578,-0.396 -3.768,-0.396c-8.328,-0 -10.708,6.543 -11.898,10.113l0,0.198c-2.577,7.932 -5.354,15.666 -8.13,23.598c-0.793,-5.156 -3.371,-10.114 -12.096,-10.114c-1.785,0 -3.966,0.199 -5.751,0.397c-7.138,0.793 -11.898,4.363 -14.674,10.708c-0.991,2.38 -2.181,4.759 -3.172,7.337c-0.992,2.38 -2.182,4.958 -3.173,7.337c0.198,-2.379 0.198,-4.759 0.198,-6.94c0.198,-8.13 -4.362,-12.89 -12.294,-13.088l-1.587,0c-4.759,0 -8.923,0.595 -12.294,1.586c-6.941,1.983 -13.683,4.363 -20.623,6.544c-1.388,0.397 -2.776,0.992 -3.966,1.388l-4.165,1.388c-4.759,1.587 -9.716,3.372 -14.674,4.958c-1.784,0.595 -3.569,1.19 -5.155,1.785c-1.19,0.396 -2.38,0.595 -3.57,0.396c-1.388,-0.198 -2.379,-1.19 -2.379,-2.578l-0,-4.561c-7.536,2.38 -9.915,19.037 -9.519,20.227c1.785,7.337 8.924,12.889 16.459,12.889c1.19,0 2.38,-0.198 3.569,-0.396c1.785,-0.397 3.57,-0.794 5.355,-1.388l-0,17.252c-0,13.88 2.181,16.657 16.26,18.64c1.586,0.198 2.974,0.396 4.164,0.396c2.975,0 6.148,-5.156 8.725,-8.923l4.958,-7.536c0.198,-1.189 -4.164,1.983 -4.164,0.397c0.198,-9.32 0.594,-17.847 1.784,-30.34l0.793,-0.396l3.372,30.934c0.793,5.354 4.164,9.122 9.121,9.915l3.371,0.595c3.57,0.595 7.337,1.19 11.105,1.785c0.595,0.198 1.19,0.198 1.586,0.198c4.363,0 7.734,-2.379 10.114,-6.345l5.75,-9.915l0,-0.199l0.199,0.992c1.586,8.725 7.535,10.708 10.113,11.303c4.164,0.793 8.527,1.388 14.079,1.983c0.595,0.198 0.991,0.198 1.586,0.198c2.975,0 12.89,-7.337 16.062,-14.674c6.346,-14.674 8.131,-23.796 13.881,-40.453c-0.198,3.57 -0.595,7.139 -0.793,10.51l-1.388,18.045l0,4.759c-0.595,15.269 3.173,19.434 18.442,20.822l2.776,-0c3.966,-0 6.94,-6.544 9.32,-8.924c0.198,-0.396 1.19,-2.181 1.19,-2.578l1.983,-3.767l-1.388,-10.312c0.793,-6.147 1.388,-12.294 2.181,-18.442c0.397,9.717 0.595,19.037 -0.595,28.357c-0.793,5.949 2.181,11.105 7.734,12.889c3.569,1.19 7.337,1.983 11.303,2.38c0.595,0.198 1.189,0.198 1.983,0.198c3.371,0 12.294,-7.733 17.252,-17.252l-6.346,-13.484c12.889,-7.932 23.201,-18.243 30.935,-30.538c4.957,-7.932 10.906,-18.838 11.501,-33.116l-0,-0.396c-1.19,-12.096 -5.949,-23.003 -14.872,-32.521Zm52.152,-6.346c-4.957,-1.784 -10.312,-0.595 -14.079,2.578l3.767,-13.286l-17.45,29.943c0,0 -23.597,72.379 -23.597,84.674c-0,10.113 8.725,15.467 13.484,17.648c4.759,4.363 11.7,5.156 17.45,1.785c5.949,-3.57 7.337,-8.329 12.295,-15.666c-0,-1.388 -4.958,-5.155 -4.363,-8.328c1.19,-6.346 3.173,-14.873 5.751,-24.589c5.156,-19.037 11.699,-41.048 16.459,-55.325c2.379,-8.131 -1.785,-16.658 -9.717,-19.434Zm-71.784,48.583c-1.586,3.966 -3.371,7.337 -5.552,10.51l0.793,-10.311c0.396,-0.397 0.991,-0.794 1.586,-1.19l0.199,-0.198l0.198,-0c1.586,-1.19 2.974,-2.38 4.362,-3.371c-0.594,1.586 -0.991,2.974 -1.586,4.56Z" style="fill-rule:nonzero;"/><g><path d="M194.675,203.341c-1.19,0 -2.578,-0.198 -4.164,-0.396c-14.079,-1.983 -16.261,-4.759 -16.261,-18.64l0,-17.252c-1.784,0.595 -3.569,0.991 -5.354,1.388c-1.19,0.198 -2.379,0.396 -3.569,0.396c-7.734,0 -14.674,-5.552 -16.459,-12.889c-0.198,-1.19 -1.586,-7.734 6.147,-10.113l0.199,-0.198l7.535,-2.578c7.139,-2.38 14.277,-4.958 21.614,-7.337l4.165,-1.388c8.13,-2.578 16.26,-5.553 24.589,-7.932c3.569,-0.992 7.535,-1.587 12.294,-1.587l1.587,0c7.733,0.198 12.294,4.958 12.294,13.088c0,2.379 0,4.759 -0.198,6.94c2.181,-4.759 4.362,-9.716 6.345,-14.674c2.777,-6.544 7.536,-10.113 14.674,-10.708c1.983,-0.198 3.966,-0.396 5.751,-0.396c8.725,-0 11.303,5.155 12.096,10.113c2.776,-7.932 5.354,-15.666 8.13,-23.598c1.19,-3.569 3.57,-10.311 11.898,-10.311c1.19,-0 2.182,0.198 3.768,0.396c4.561,0.595 10.113,1.983 13.088,6.941c2.974,4.759 1.784,10.311 0.396,14.674c-8.13,26.572 -16.855,50.368 -26.373,72.18c-3.173,7.337 -8.924,8.527 -11.898,8.527c-0.595,0 -0.992,0 -1.587,-0.198c-5.354,-0.595 -9.915,-1.19 -14.079,-1.983c-2.578,-0.595 -8.527,-2.578 -10.113,-11.303l-0.198,-0.992l-0,0.199c-1.983,3.371 -3.768,6.544 -5.751,9.915c-2.181,3.966 -5.751,6.345 -10.113,6.345c-0.595,0 -1.19,0 -1.587,-0.198c-3.767,-0.595 -7.535,-1.19 -11.104,-1.785l-3.371,-0.595c-4.958,-0.793 -8.329,-4.561 -9.122,-9.915l-3.371,-30.934c-0.198,0.198 -0.595,0.198 -0.793,0.397c-1.19,12.492 -1.587,21.019 -1.785,30.339c0,1.587 -0.198,2.975 -0.595,4.164c-0.198,0.397 -0.198,0.794 -0.198,1.19c0.396,3.966 -0.595,10.708 -8.527,10.708Z" style="fill-rule:nonzero;"/><path d="M361.84,196.996c-0.594,-0 -1.189,-0 -1.983,-0.199c-3.966,-0.396 -7.733,-1.189 -11.303,-2.379c-5.354,-1.587 -8.526,-6.941 -7.733,-12.89c1.388,-10.708 0.991,-21.217 0.595,-32.322c-0.199,-4.164 -0.397,-8.527 -0.397,-12.89c-0.198,-4.56 -0.198,-9.121 -0.198,-13.682c-0,-4.164 -0.198,-8.329 -0.198,-12.691c-0.199,-4.759 1.586,-8.725 4.56,-11.898c2.578,-2.578 5.156,-5.552 7.734,-8.329c4.957,-5.552 10.311,-11.104 15.666,-16.458c3.966,-3.768 8.923,-6.346 13.286,-8.329c2.181,-0.991 4.362,-1.388 6.543,-1.388c4.363,0 8.725,1.983 12.295,5.751c8.923,9.518 13.682,20.424 14.277,32.719l0,0.396c-0.595,14.08 -6.345,24.986 -11.501,33.116c-7.734,12.096 -18.045,22.408 -30.934,30.538c-0.199,4.561 -0.595,9.32 -0.794,13.683c-0.198,2.379 -0.198,4.362 -0.396,6.742c-0.397,9.122 -6.148,10.51 -9.519,10.51Zm14.674,-85.07c-0.198,3.371 -0.594,6.94 -0.793,10.311c2.182,-3.172 3.966,-6.544 5.553,-10.509c0.595,-1.587 0.991,-2.975 1.388,-4.561c-1.388,1.189 -2.776,2.379 -4.363,3.371c-0.595,0.595 -1.19,0.793 -1.785,1.388Z" style="fill-rule:nonzero;"/><path d="M328.13,197.194c-0.793,0 -1.785,-0.198 -2.975,-0.198c-15.269,-1.388 -18.838,-5.553 -18.441,-20.822l-0,-4.759l1.388,-18.045c1.189,-15.864 2.379,-31.926 3.569,-47.988c0.793,-9.32 5.354,-13.683 14.476,-13.683l0.198,0c3.371,0 6.346,0.199 9.122,0.794c8.328,1.586 12.294,6.94 11.303,15.467c-0.595,3.768 -0.793,7.535 -1.388,11.501c-0.397,3.371 -0.794,6.544 -1.19,10.113c-1.587,14.08 -3.371,28.159 -4.958,42.238l-1.586,14.079l0,0.198c0,0.397 0,0.595 -0.198,0.992c-0.199,2.776 -1.19,10.113 -9.32,10.113Z" style="fill-rule:nonzero;"/><path d="M301.161,102.209c-5.75,-0.793 -7.139,0.198 -8.923,5.751c-6.148,18.243 -12.493,36.288 -18.839,54.334c-0.396,0.991 -0.793,1.983 -1.189,2.974l-0,-29.15c-0,-10.113 -0.992,-10.708 -11.303,-9.716c-4.76,0.594 -7.536,2.577 -9.519,6.94c-4.957,11.501 -10.113,22.804 -15.269,34.107c-0.793,1.587 -1.983,3.173 -2.974,4.759c-0.198,-0.198 -0.595,-0.198 -0.793,-0.396l-0,-3.371c0.198,-10.113 0.396,-20.028 0.595,-30.142c-0,-4.56 -1.587,-6.543 -6.148,-6.742c-3.966,-0.198 -8.328,0.199 -12.096,1.19c-9.518,2.776 -19.037,5.949 -28.555,9.122c-9.716,3.371 -19.433,6.742 -29.15,10.113c-0.991,0.198 -2.578,0.397 -1.983,2.578c1.19,5.156 7.337,8.923 12.493,7.734c4.363,-0.992 8.725,-2.38 13.088,-3.57l-0,25.581c-0,10.708 -0,10.708 10.906,12.492c5.354,0.794 5.751,0.595 6.346,-4.759c0.198,-1.586 0.595,-3.172 0.595,-4.759c0.198,-9.518 0.595,-18.64 1.983,-31.926c0.198,-2.578 0.595,-2.379 1.586,-2.974c3.371,-1.587 6.742,-3.371 10.51,-5.156l4.362,39.858c0.199,2.181 1.388,3.966 3.768,4.362c4.759,0.794 9.518,1.587 14.278,2.38c2.379,0.198 4.164,-0.793 5.354,-2.974c2.974,-5.355 6.147,-10.709 9.121,-15.864c1.587,-2.975 3.371,-5.949 5.156,-9.32c1.19,6.543 2.181,12.294 3.371,18.243c0.595,2.975 1.983,5.552 5.156,6.147c4.362,0.794 8.923,1.388 13.286,1.983c3.371,0.397 5.552,-1.189 6.94,-4.561c10.114,-23.399 18.64,-47.195 26.176,-71.585c2.776,-9.122 0.595,-12.295 -8.329,-13.683Z" style="fill:#fff;fill-rule:nonzero;"/><path d="M408.837,102.407c-0.595,11.303 -4.759,20.822 -10.51,29.944c-7.535,11.897 -17.252,21.217 -28.951,28.554c-1.983,1.19 -2.776,2.578 -2.975,4.76c-0.198,6.94 -0.793,13.682 -1.19,20.623c-0.198,3.767 -1.189,4.759 -4.759,4.362c-3.371,-0.396 -6.742,-0.991 -10.113,-2.181c-2.578,-0.793 -3.569,-3.173 -3.371,-5.751c1.983,-15.269 0.397,-30.934 0.198,-46.203c-0.198,-8.725 -0.198,-17.45 -0.396,-26.374c-0,-2.974 0.793,-5.354 2.974,-7.535c7.734,-8.13 15.269,-16.657 23.399,-24.589c3.173,-2.975 7.337,-5.156 11.502,-6.941c4.362,-1.983 8.328,-0.793 11.699,2.777c7.536,8.328 11.898,17.648 12.493,28.554Zm-40.453,35.892c9.122,-6.147 15.269,-14.277 18.839,-24.39c1.388,-3.768 2.181,-7.734 2.577,-11.7c0.199,-4.164 -2.181,-5.75 -5.75,-3.767c-4.561,2.776 -8.527,6.345 -12.691,9.716c-0.397,0.397 -0.595,1.19 -0.793,1.587c-0.794,9.518 -1.587,19.036 -2.182,28.554Z" style="fill:#fff;fill-rule:nonzero;"/><path d="M313.059,171.415c1.586,-21.416 3.371,-43.625 4.958,-65.835c0.594,-6.147 2.379,-7.932 8.328,-7.932c2.776,0 5.354,0.199 8.13,0.794c4.958,0.793 6.742,3.371 6.148,8.526c-0.794,7.139 -1.785,14.278 -2.578,21.417c-2.182,18.838 -4.363,37.676 -6.743,56.316c0,0.397 0,0.793 -0.198,1.19c-0.595,4.759 -0.793,4.958 -5.552,4.363c-11.898,-1.19 -13.088,-2.38 -12.691,-14.278c0.198,-0.991 0.198,-2.379 0.198,-4.561Z" style="fill:#fff;fill-rule:nonzero;"/><path d="M450.876,63.144c7.932,2.777 12.097,11.303 9.519,19.434c-4.561,14.475 -11.303,36.288 -16.459,55.325c-2.578,9.518 -4.561,18.045 -5.751,24.589c-0.198,0.595 -0.198,1.388 -0.396,1.983c-0.397,2.578 -0.397,5.156 -0.199,7.733c0.397,5.553 -2.181,11.303 -7.337,14.278c-7.138,4.164 -16.26,1.785 -20.424,-5.552c-1.983,-3.371 -2.38,-6.544 -2.578,-8.131c-0.199,-1.983 -0.199,-3.767 -0,-5.354c0.198,-3.172 0.793,-6.94 1.388,-10.708c1.388,-7.535 3.767,-17.053 6.345,-26.968c5.156,-19.83 12.097,-42.238 16.856,-56.912c2.776,-8.13 11.303,-12.493 19.036,-9.717Z" style="fill:#fff;stroke:#000;stroke-width:4.98px;"/><path d="M403.681,213.653l0,0.793c0,0.595 0.199,1.388 0.199,2.181c0.198,1.785 0.595,4.165 1.388,6.544c0.595,1.983 1.983,5.751 5.155,8.329c1.785,1.586 4.363,2.776 7.536,2.974c3.173,0.198 5.75,-0.793 7.733,-1.983c3.372,-1.983 5.949,-4.759 7.734,-7.733c1.586,-2.777 2.975,-6.941 1.983,-11.105c-0.991,-4.958 -4.759,-8.725 -10.311,-10.113c-4.561,-1.19 -9.915,-0.397 -15.071,1.189c-3.966,1.388 -6.544,4.958 -6.346,8.924Zm0,-0l0,-0Z" style="fill:#fff;fill-rule:nonzero;stroke:#000;stroke-width:4.98px;stroke-miterlimit:10;"/></g><g><path d="M186.532,229.576l-6.526,14.977l-2.739,0l-6.547,-14.977l3.017,-0l4.985,11.554l5.029,-11.554l2.781,-0Z" style="fill-rule:nonzero;"/><path d="M199.349,242.221l-0,2.332l-11.233,0l-0,-14.977l10.933,-0l0,2.332l-8.152,-0l0,3.894l7.232,0l0,2.29l-7.232,-0l0,4.129l8.452,0Z" style="fill-rule:nonzero;"/><path d="M215.76,229.576l0,14.977l-2.289,0l-8.259,-10.142l-0,10.142l-2.76,0l-0,-14.977l2.289,-0l8.259,10.142l0,-10.142l2.76,-0Z" style="fill-rule:nonzero;"/><path d="M222.821,231.929l-4.964,0l0,-2.353l12.71,-0l0,2.353l-4.964,0l0,12.624l-2.782,0l0,-12.624Z" style="fill-rule:nonzero;"/><path d="M238.826,244.767c-2.068,0 -3.68,-0.581 -4.835,-1.743c-1.156,-1.163 -1.734,-2.828 -1.734,-4.997l0,-8.451l2.782,-0l0,8.344c0,2.939 1.27,4.408 3.809,4.408c2.525,0 3.787,-1.469 3.787,-4.408l-0,-8.344l2.739,-0l-0,8.451c-0,2.169 -0.574,3.834 -1.723,4.997c-1.148,1.162 -2.756,1.743 -4.825,1.743Z" style="fill-rule:nonzero;"/><path d="M259.068,244.553l-3.06,-4.386c-0.128,0.014 -0.321,0.021 -0.578,0.021l-3.38,0l-0,4.365l-2.782,0l0,-14.977l6.162,-0c1.298,-0 2.429,0.214 3.392,0.641c0.963,0.428 1.701,1.042 2.214,1.841c0.514,0.798 0.771,1.747 0.771,2.845c-0,1.127 -0.275,2.097 -0.824,2.91c-0.549,0.813 -1.337,1.42 -2.364,1.819l3.444,4.921l-2.995,0Zm-0.064,-9.65c-0,-0.955 -0.314,-1.69 -0.942,-2.204c-0.627,-0.513 -1.548,-0.77 -2.76,-0.77l-3.252,0l-0,5.97l3.252,-0c1.212,-0 2.133,-0.26 2.76,-0.781c0.628,-0.521 0.942,-1.259 0.942,-2.215Z" style="fill-rule:nonzero;"/><path d="M276.143,242.221l-0,2.332l-11.234,0l0,-14.977l10.934,-0l0,2.332l-8.152,-0l-0,3.894l7.232,0l-0,2.29l-7.232,-0l-0,4.129l8.452,0Z" style="fill-rule:nonzero;"/><path d="M289.794,244.767c-1.156,0 -2.272,-0.164 -3.349,-0.492c-1.077,-0.328 -1.929,-0.763 -2.557,-1.305l0.963,-2.161c0.614,0.485 1.366,0.881 2.258,1.187c0.891,0.307 1.786,0.461 2.685,0.461c1.113,-0 1.943,-0.179 2.493,-0.535c0.549,-0.357 0.823,-0.828 0.823,-1.413c0,-0.428 -0.153,-0.781 -0.46,-1.059c-0.306,-0.278 -0.695,-0.495 -1.166,-0.652c-0.471,-0.157 -1.112,-0.336 -1.925,-0.535c-1.142,-0.271 -2.065,-0.542 -2.771,-0.813c-0.707,-0.271 -1.313,-0.696 -1.819,-1.274c-0.507,-0.577 -0.76,-1.358 -0.76,-2.342c0,-0.828 0.225,-1.58 0.674,-2.258c0.45,-0.677 1.127,-1.216 2.033,-1.615c0.906,-0.4 2.015,-0.599 3.327,-0.599c0.913,-0 1.812,0.114 2.696,0.342c0.885,0.228 1.648,0.556 2.29,0.984l-0.878,2.161c-0.656,-0.385 -1.34,-0.677 -2.054,-0.877c-0.713,-0.2 -1.405,-0.3 -2.075,-0.3c-1.099,0 -1.915,0.186 -2.45,0.557c-0.535,0.371 -0.803,0.863 -0.803,1.476c0,0.428 0.154,0.778 0.461,1.049c0.306,0.271 0.695,0.485 1.166,0.642c0.47,0.156 1.112,0.335 1.925,0.534c1.113,0.257 2.026,0.525 2.739,0.803c0.713,0.278 1.323,0.702 1.83,1.273c0.506,0.571 0.759,1.341 0.759,2.311c0,0.827 -0.224,1.576 -0.674,2.246c-0.449,0.671 -1.13,1.206 -2.043,1.605c-0.913,0.4 -2.026,0.599 -3.338,0.599Z" style="fill-rule:nonzero;"/><path d="M301.434,231.929l-4.964,0l-0,-2.353l12.71,-0l-0,2.353l-4.965,0l0,12.624l-2.781,0l-0,-12.624Z" style="fill-rule:nonzero;"/><path d="M317.439,244.767c-2.069,0 -3.681,-0.581 -4.836,-1.743c-1.155,-1.163 -1.733,-2.828 -1.733,-4.997l-0,-8.451l2.781,-0l0,8.344c0,2.939 1.27,4.408 3.809,4.408c2.525,0 3.787,-1.469 3.787,-4.408l0,-8.344l2.739,-0l0,8.451c0,2.169 -0.574,3.834 -1.722,4.997c-1.149,1.162 -2.757,1.743 -4.825,1.743Z" style="fill-rule:nonzero;"/><path d="M327.88,229.576l6.548,-0c1.598,-0 3.017,0.31 4.258,0.93c1.241,0.621 2.204,1.498 2.888,2.632c0.685,1.134 1.028,2.443 1.028,3.926c-0,1.484 -0.343,2.793 -1.028,3.927c-0.684,1.134 -1.647,2.011 -2.888,2.632c-1.241,0.62 -2.66,0.93 -4.258,0.93l-6.548,0l0,-14.977Zm6.42,12.624c1.098,-0 2.064,-0.211 2.899,-0.631c0.834,-0.421 1.476,-1.02 1.926,-1.798c0.449,-0.777 0.674,-1.679 0.674,-2.707c-0,-1.027 -0.225,-1.929 -0.674,-2.706c-0.45,-0.778 -1.092,-1.377 -1.926,-1.798c-0.835,-0.42 -1.801,-0.631 -2.899,-0.631l-3.638,0l0,10.271l3.638,-0Z" style="fill-rule:nonzero;"/><rect x="345.554" y="229.576" width="2.782" height="14.978" style="fill-rule:nonzero;"/><path d="M359.377,244.767c-1.527,0 -2.903,-0.331 -4.13,-0.995c-1.227,-0.663 -2.189,-1.583 -2.888,-2.76c-0.699,-1.177 -1.049,-2.493 -1.049,-3.948c0,-1.455 0.35,-2.77 1.049,-3.947c0.699,-1.177 1.661,-2.097 2.888,-2.76c1.227,-0.664 2.603,-0.995 4.13,-0.995c1.526,-0 2.903,0.331 4.129,0.995c1.227,0.663 2.19,1.579 2.889,2.749c0.699,1.17 1.048,2.489 1.048,3.958c0,1.47 -0.349,2.789 -1.048,3.959c-0.699,1.17 -1.662,2.086 -2.889,2.749c-1.226,0.664 -2.603,0.995 -4.129,0.995Zm-0,-2.439c0.998,0 1.897,-0.225 2.696,-0.674c0.799,-0.449 1.426,-1.077 1.883,-1.883c0.456,-0.806 0.684,-1.708 0.684,-2.707c0,-0.998 -0.228,-1.9 -0.684,-2.706c-0.457,-0.806 -1.084,-1.434 -1.883,-1.883c-0.799,-0.45 -1.698,-0.674 -2.696,-0.674c-0.999,-0 -1.897,0.224 -2.696,0.674c-0.799,0.449 -1.427,1.077 -1.883,1.883c-0.457,0.806 -0.685,1.708 -0.685,2.706c0,0.999 0.228,1.901 0.685,2.707c0.456,0.806 1.084,1.434 1.883,1.883c0.799,0.449 1.697,0.674 2.696,0.674Z" style="fill-rule:nonzero;"/></g></g></svg>