                        <svg viewBox="0 0 200 160" fill="none" xmlns="http://www.w3.org/2000/svg">
                            <g clip-path="url(#clip0_231_2318)">
                            <g opacity="0.5" filter="url(#filter0_f_231_2318)">
                            <ellipse cx="100" cy="80" rx="80" ry="60" fill="#A9F27D"/>
                            </g>
                            <path d="M75.213 138L59 77.241L79.1435 64.8916L105.183 58.4699L139.083 56L159.717 60.9398L172 69.3373L159.717 138H75.213Z" fill="url(#paint0_radial_231_2318)"/>
                            <path d="M51.7998 40.3999L54.7998 49.9999H42.7998L51.7998 40.3999Z" fill="#A9F27D"/>
                            <rect x="10" y="10" width="44" height="44" rx="22" fill="#A9F27D"/>
                            <path fill-rule="evenodd" clip-rule="evenodd" d="M32.001 18C32.5533 18 33.001 18.4477 33.001 19V22C33.001 22.5523 32.5533 23 32.001 23C31.4487 23 31.001 22.5523 31.001 22V19C31.001 18.4477 31.4487 18 32.001 18ZM23.5157 21.5147C23.9062 21.1242 24.5394 21.1242 24.9299 21.5147L27.0512 23.636C27.4418 24.0266 27.4418 24.6597 27.0512 25.0503C26.6607 25.4408 26.0275 25.4408 25.637 25.0503L23.5157 22.9289C23.1252 22.5384 23.1252 21.9052 23.5157 21.5147ZM40.4863 21.5147C40.8768 21.9052 40.8768 22.5384 40.4863 22.9289L38.3649 25.0503C37.9744 25.4408 37.3413 25.4408 36.9507 25.0503C36.5602 24.6597 36.5602 24.0266 36.9507 23.636L39.072 21.5147C39.4626 21.1242 40.0957 21.1242 40.4863 21.5147ZM31.3988 27.5091C31.8146 27.3976 32.255 27.5648 32.4922 27.924L39.4617 38.4798C39.6845 38.8174 39.6821 39.2559 39.4556 39.5909C39.229 39.926 38.823 40.0916 38.4267 40.0105L35.6304 39.4383L37.0233 44.6369C37.1663 45.1704 36.8497 45.7187 36.3162 45.8617C35.7827 46.0046 35.2344 45.688 35.0915 45.1546L33.6985 39.956L31.5633 41.8496C31.2606 42.1179 30.8262 42.1776 30.4624 42.0007C30.0987 41.8238 29.8773 41.4452 29.9016 41.0415L30.6594 28.4151C30.6852 27.9854 30.9831 27.6205 31.3988 27.5091ZM20.001 30C20.001 29.4477 20.4487 29 21.001 29H24.001C24.5533 29 25.001 29.4477 25.001 30C25.001 30.5523 24.5533 31 24.001 31H21.001C20.4487 31 20.001 30.5523 20.001 30ZM39.001 30C39.001 29.4477 39.4487 29 40.001 29H43.001C43.5533 29 44.001 29.4477 44.001 30C44.001 30.5523 43.5533 31 43.001 31H40.001C39.4487 31 39.001 30.5523 39.001 30ZM27.0512 34.9498C27.4418 35.3403 27.4418 35.9734 27.0512 36.364L24.9299 38.4853C24.5394 38.8758 23.9062 38.8758 23.5157 38.4853C23.1252 38.0948 23.1252 37.4616 23.5157 37.0711L25.637 34.9498C26.0275 34.5592 26.6607 34.5592 27.0512 34.9498Z" fill="#1E063A"/>
                            <g clip-path="url(#clip1_231_2318)">
                            <path d="M77.2799 159.116C70.8398 154.652 64.882 149.215 59.612 143.448C51.18 134.207 42.7301 121.895 44.3647 108.744C45.5259 99.3966 49.8312 90.5399 56.0481 83.5224C63.9263 74.6301 74.5467 68.684 85.6494 64.7735C92.9917 62.1843 100.602 60.4612 108.284 59.2917C117.243 57.9346 126.425 57.1757 135.491 57.3096C147.21 57.4793 158.903 60.0148 168.165 67.7198C174.623 73.0944 179.036 80.478 181.439 88.4686C183.055 93.8344 183.823 99.5126 183.752 105.119C183.707 108.557 183.073 111.958 182.394 115.315C179.956 127.404 175.722 139.859 167.844 149.537C165.754 152.108 163.395 154.438 160.751 156.438C160.099 156.929 161.931 157.527 162.154 157.581C162.922 157.777 164.235 158.027 164.95 157.492C175.811 149.278 181.706 135.823 185.163 123.02C186.521 118.003 187.816 112.708 188.111 107.485C188.379 102.727 187.896 97.8788 186.905 93.2362C185.199 85.2277 181.76 77.5942 176.195 71.5142C168.317 62.8986 157.205 58.4078 145.826 56.6579C137.233 55.3365 128.506 55.5776 119.86 56.1936C111.213 56.8096 102.192 57.9882 93.5723 60.0595C80.7456 63.1396 68.0172 68.1572 57.8077 76.7103C50.2064 83.076 44.3201 91.4416 41.4885 100.977C39.8718 106.414 39.2466 111.976 40.4613 117.574C41.8905 124.127 45.1418 130.127 49.0363 135.528C55.2978 144.207 63.2832 151.795 71.8491 158.188C72.3494 158.563 72.8496 158.929 73.3587 159.286C74.1894 159.866 75.3416 160.063 76.3331 160.018C76.7172 160 78.1106 159.715 77.2799 159.143V159.116Z" fill="#1E063A"/>
                            <path d="M135.393 20.5885C135.358 20.0439 135.402 20.9456 135.411 21.1331C135.429 21.767 135.429 22.3919 135.411 23.0258C135.349 24.6418 135.188 26.2846 134.705 27.8291C134.518 28.4362 134.009 29.1237 134.062 29.7397C134.08 29.9094 134.17 30.0969 134.214 30.2576C134.482 31.2039 134.697 32.1682 134.857 33.1413C135.286 35.7394 135.527 39.016 133.955 41.3016C133.062 42.6051 131.561 43.5961 130.382 44.6228C128.908 45.8996 127.408 47.1495 125.773 48.2298C124.139 49.3101 122.424 50.1672 120.557 50.5689C119.038 50.8993 117.6 50.6939 116.1 50.4172C114.206 50.069 112 49.5065 110.383 48.703C110.115 48.569 109.847 48.4351 109.588 48.2833C109.258 48.0959 109.999 48.5423 109.445 48.1941C109.329 48.1226 109.213 48.0423 109.097 47.9709C108.981 47.8994 108.4 47.4709 108.722 47.712C108.436 47.4887 108.159 47.2566 107.891 47.0156C107.846 46.9799 107.578 46.7209 107.828 46.962C107.721 46.8549 107.614 46.7477 107.507 46.6317C107.266 46.3727 107.025 46.1138 106.801 45.8371C106.506 45.471 105.988 44.7389 105.658 44.1854C104.783 42.739 104.104 41.1498 103.568 39.5428C103.237 38.5428 102.951 37.534 102.71 36.5161C102.389 35.1769 101.647 34.3556 100.45 33.6681C100.37 33.6235 100.29 33.5788 100.2 33.5342C99.9234 33.3824 100.584 33.7752 100.013 33.4181C99.4411 33.061 98.923 32.7217 98.396 32.3378C97.7082 31.8468 96.7078 31.1057 96.3952 30.2665C95.8861 28.9184 97.0205 26.9899 97.8065 25.9542C98.9855 24.4097 100.665 23.5794 102.487 23.0258C103.764 22.633 100.879 19.4278 99.5483 19.8385C97.3331 20.517 95.2251 21.6598 93.9835 23.6776C92.9116 25.4186 92.2239 27.4006 93.1617 29.329C94.6802 32.4807 98.0923 34.802 101.111 36.409L99.0213 34.1591C100.182 39.1499 102.165 44.105 105.89 47.7387C108.641 50.4261 112.018 52.1849 115.742 53.0867C117.386 53.4795 119.163 53.9348 120.852 53.9884C123.451 54.0687 125.907 53.1224 128.105 51.7921C130.463 50.3636 132.553 48.578 134.625 46.7656C136.331 45.2746 137.805 44.0782 138.403 41.8016C139.27 38.5339 138.662 34.6502 137.635 31.4629L137.546 32.0343C139.109 29.1505 139.198 25.5257 138.975 22.3116C138.886 21.0795 135.286 18.6957 135.42 20.5349L135.393 20.5885Z" fill="#1E063A"/>
                            <path d="M119.127 25.1686C119.913 28.2309 120.69 31.3022 121.476 34.3645C121.583 34.7931 121.699 35.2305 121.806 35.6591L123.619 34.6502H119.377C118.832 34.6502 117.992 34.8466 117.662 35.3287C117.331 35.8109 117.956 35.9805 118.332 35.9805H122.574C122.985 35.9805 124.566 35.668 124.388 34.9716C123.602 31.9093 122.824 28.838 122.038 25.7757C121.931 25.3472 121.815 24.9097 121.708 24.4811C121.502 23.6955 118.912 24.3651 119.118 25.1775L119.127 25.1686Z" fill="#1E063A"/>
                            <path d="M112.652 23.1235V28.0339C112.652 28.6678 113.278 28.9892 113.858 28.9267C114.198 28.891 114.564 28.7928 114.832 28.5696C115.037 28.4 115.278 28.141 115.278 27.8554V22.9449C115.278 22.311 114.653 21.9896 114.073 22.0521C113.733 22.0878 113.367 22.186 113.099 22.4092C112.894 22.5789 112.652 22.8378 112.652 23.1235Z" fill="#1E063A"/>
                            <path d="M126.595 23.1235V28.0339C126.595 28.6678 127.22 28.9892 127.801 28.9267C128.14 28.891 128.506 28.7928 128.774 28.5696C128.98 28.4 129.221 28.141 129.221 27.8554V22.9449C129.221 22.311 128.596 21.9896 128.015 22.0521C127.676 22.0878 127.309 22.186 127.041 22.4092C126.836 22.5789 126.595 22.8378 126.595 23.1235Z" fill="#1E063A"/>
                            <path d="M108.857 36.2926C108.66 38.7657 109.75 41.5512 111.965 42.8101C113.189 43.5065 114.627 43.7207 116.02 43.7207C116.628 43.7207 117.324 43.5422 117.851 43.2297C117.95 43.1672 118.209 43.0333 118.164 42.8904C118.119 42.7476 117.816 42.7476 117.717 42.7476C116.69 42.7476 115.556 42.5601 114.564 42.0423C113.796 41.6405 113.135 41.0602 112.653 40.337C111.894 39.2031 111.527 37.8282 111.447 36.4711C111.429 36.1855 111.42 35.8908 111.447 35.5962C111.474 35.2837 110.187 35.5694 110.062 35.5962C109.759 35.6855 108.892 35.864 108.857 36.2837V36.2926Z" fill="#1E063A"/>
                            <path d="M104.656 54.3098V42.5783C104.656 41.1855 102.03 41.5337 102.03 42.7568C102.03 46.1852 102.03 49.6047 102.03 53.0331V54.4883C102.03 55.8811 104.656 55.5329 104.656 54.3098Z" fill="#1E063A"/>
                            <path d="M123.746 63.1484V52.3276C123.746 51.6758 123.121 51.3901 122.54 51.4258C122.013 51.4615 121.12 51.8544 121.12 52.4972V63.318C121.12 63.9698 121.745 64.2555 122.326 64.2198C122.853 64.184 123.746 63.7912 123.746 63.1484Z" fill="#1E063A"/>
                            <path d="M105.326 16.1507C106.683 13.6241 108.541 10.8474 110.962 9.2404C111.489 8.8922 112.07 8.55293 112.722 8.63329C113.74 8.74935 114.705 9.64216 115.455 10.2761C116.982 11.5706 118.268 13.142 119.93 14.2758C122.368 15.9454 125.307 16.1597 128.183 15.9454C128.639 15.9097 129.577 15.6061 129.648 15.0615C129.728 14.4722 128.907 14.4633 128.523 14.4901C125.852 14.6865 123.387 14.2312 121.305 12.4813C119.555 11.0082 118.09 9.24932 116.152 7.99047C112.025 5.31204 107.666 9.32968 105.281 12.4634C104.415 13.6062 103.602 14.8115 102.914 16.0793C102.324 17.1685 104.915 16.9096 105.326 16.1507Z" fill="#1E063A"/>
                            <path d="M134.787 53.0775C137.762 52.2918 140.736 51.2383 143.46 49.8098C144.934 49.042 146.685 48.0331 147.471 46.4975C148.328 44.8279 147.587 42.5245 146.077 41.4888C144.023 40.0871 139.986 40.5603 139.637 43.4798C139.369 45.7475 140.593 48.301 141.861 50.1044C143.237 52.0597 145.291 53.5239 147.766 53.381C150.401 53.2293 153.313 51.6043 155.278 49.9169C157.243 48.2295 158.413 45.8279 157.01 43.4352C155.608 41.0424 153.116 39.3015 151.124 37.5069C149.132 35.7124 146.881 33.6411 145.702 31.0876C144.621 28.7485 144.38 25.9451 143.737 23.4631C142.889 20.1597 141.79 16.9099 140.263 13.8565C138.565 10.4549 136.35 7.26754 133.394 4.8391C130.053 2.09818 126.025 0.553625 121.746 0.125078C120.487 8.48672e-05 119.227 -0.0177713 117.968 0.0357972C117.432 0.0536533 116.53 0.196502 116.262 0.750043C116.021 1.25894 116.467 1.55357 116.967 1.53571C121.023 1.36608 125.024 2.09818 128.552 4.16057C131.482 5.87476 133.867 8.38355 135.743 11.1959C138.985 16.0528 140.682 21.7578 141.924 27.4093C142.103 28.2396 142.263 29.0788 142.469 29.9091C142.996 32.0519 144.22 33.9178 145.675 35.5517C147.373 37.4444 149.347 39.0515 151.222 40.7657C152.821 42.2209 155.447 44.2476 155.019 46.6939C154.626 48.9884 152.151 50.4616 150.204 51.3186C149.213 51.7561 148.346 52.1222 147.274 51.7204C146.274 51.3454 145.452 50.5776 144.773 49.7652C143.433 48.1581 142.362 45.9172 142.228 43.8012C142.201 43.3548 142.263 42.9798 142.371 42.5513C142.371 42.5334 142.665 42.0335 142.469 42.2477C142.505 42.212 142.79 42.2477 142.924 42.2656C144.13 42.5245 145.032 43.6941 145.175 45.0779C145.363 46.8635 144.032 47.7831 142.63 48.5956C140.12 50.0509 137.235 51.024 134.439 51.7561C134.055 51.8543 133.179 52.2204 133.322 52.765C133.465 53.3096 134.43 53.1757 134.796 53.0775H134.787Z" fill="#1E063A"/>
                            <path d="M111.527 0.312747C105.167 2.00015 98.37 5.79458 94.5917 11.2764C91.4833 15.7851 89.3395 20.9009 86.1418 25.356C83.5872 28.9272 79.791 31.2039 77.022 34.5876C73.8868 38.4267 71.9128 43.0693 72.8507 48.069C73.5652 51.8902 75.8162 54.7829 79.6749 55.7472C83.9623 56.8185 89.5986 56.4168 92.4748 52.6402C93.886 50.7831 94.5202 48.3636 94.3237 46.0513C94.1451 43.9621 93.1804 41.0783 90.8312 40.5694C88.482 40.0605 86.4902 42.239 86.0436 44.3996C85.5969 46.5602 86.6599 48.3101 88.7054 48.9261C90.9384 49.5957 93.3322 49.8189 95.6546 49.9885C97.977 50.1582 100.451 50.2921 102.8 49.9707C103.372 49.8903 104.167 49.5779 104.221 48.8993C104.265 48.2744 103.56 47.9262 103.015 48.0065C99.4329 48.4886 95.5742 48.1226 92.0281 47.5244C90.7687 47.3101 89.0448 47.1941 88.6696 45.7209C88.491 45.0067 88.6071 44.2299 88.9019 43.5693C89.0448 43.2479 89.2324 42.9532 89.4825 42.6943C89.7951 42.3729 89.7415 42.4622 89.9827 42.605C91.778 43.6585 91.9031 46.8905 91.6083 48.6404C91.3136 50.3903 90.4471 52.1134 88.9376 53.1312C87.2405 54.2651 85.0431 54.3454 83.0781 54.2115C81.4524 54.0955 79.791 53.7651 78.4333 52.8098C75.709 50.8814 74.914 46.8012 75.2981 43.6853C75.8162 39.4356 78.5852 35.7126 81.6042 32.8288C82.8458 31.6503 84.2482 30.6682 85.4808 29.4897C86.8564 28.1773 88.0176 26.6952 89.0626 25.1149C91.7423 21.0794 93.8414 16.6958 96.4407 12.6156C99.7992 7.357 106.105 3.75006 112.027 2.17871C113.635 1.75017 113.144 -0.0979444 111.527 0.330603V0.312747Z" fill="#1E063A"/>
                            </g>
                            <rect x="72.2373" y="96" width="96.4068" height="63.2" rx="8" fill="#A9F27D"/>
                            <path d="M108.658 116.353C108.658 113.395 111.056 110.997 114.014 110.997H116.556V119.22H108.658V116.353Z" fill="#1E063A"/>
                            <path d="M123.798 111.003V119.22H135.148C137.417 119.22 139.256 117.381 139.256 115.112C139.256 112.843 137.417 111.003 135.148 111.003H123.798Z" fill="#1E063A"/>
                            <path d="M123.815 123.895L123.815 131.539C123.815 134.437 122.727 135.971 120.148 135.971C117.627 135.971 116.481 134.437 116.481 131.596L116.481 123.981L108.746 123.981L108.746 131.937C108.746 137.847 111.955 143.132 120.32 143.132C128.8 143.132 131.951 137.96 131.951 131.88L131.951 123.895H123.815Z" fill="#1E063A"/>
                            </g>
                            <defs>
                            <filter id="filter0_f_231_2318" x="0" y="0" width="200" height="160" filterUnits="userSpaceOnUse" color-interpolation-filters="sRGB">
                            <feFlood flood-opacity="0" result="BackgroundImageFix"/>
                            <feBlend mode="normal" in="SourceGraphic" in2="BackgroundImageFix" result="shape"/>
                            <feGaussianBlur stdDeviation="10" result="effect1_foregroundBlur_231_2318"/>
                            </filter>
                            <radialGradient id="paint0_radial_231_2318" cx="0" cy="0" r="1" gradientUnits="userSpaceOnUse" gradientTransform="translate(149.4 69.9866) rotate(114.663) scale(72.9999 86.7857)">
                            <stop stop-color="#A9F27D"/>
                            <stop offset="1" stop-color="#30BB89"/>
                            </radialGradient>
                            <clipPath id="clip0_231_2318">
                            <rect width="200" height="160" fill="white"/>
                            </clipPath>
                            <clipPath id="clip1_231_2318">
                            <rect width="148.364" height="160" fill="white" transform="translate(39.8184)"/>
                            </clipPath>
                            </defs>
                        </svg>