                        <svg viewBox="0 0 200 160" fill="none" xmlns="http://www.w3.org/2000/svg">
                        <g clip-path="url(#clip0_232_2751)">
                        <g opacity="0.5" filter="url(#filter0_f_232_2751)">
                        <ellipse cx="100" cy="80" rx="80" ry="60" fill="#A9F27D"/>
                        </g>
                        <path d="M22.4415 112.325L15.5 91.5L34 76.2115L53.7546 70L73.6319 70.7308L88.0429 73.2885L94 77.5L88.2597 107.552C86.618 116.147 79.5796 122.677 70.8858 123.67L68 124L47 126H41.4152C32.8066 126 25.1638 120.491 22.4415 112.325Z" fill="url(#paint0_radial_232_2751)"/>
                        <g clip-path="url(#clip1_232_2751)">
                        <path d="M65.6873 64.1203C65.7561 61.6554 65.6486 59.1904 65.3646 56.7426C65.3388 56.5103 64.8269 56.4673 64.7021 56.4587C64.2633 56.4286 63.7514 56.5146 63.3341 56.6351C62.9169 56.7555 62.4307 56.9018 62.0608 57.1685C61.8715 57.3019 61.5962 57.4782 61.6263 57.7449C61.9102 60.1927 62.0178 62.6577 61.9489 65.1227C61.9317 65.7379 65.6572 65.2431 65.6873 64.1203Z" fill="#1E063A"/>
                        <path d="M44.6292 62.9539C44.9131 58.3294 44.883 53.692 44.569 49.0718C44.5346 48.5641 43.7602 48.3017 43.3645 48.2759C41.5663 48.1555 39.9746 48.0737 38.3528 47.3897C37.9828 47.2349 37.1569 46.7143 36.7955 46.3616C36.2922 45.8712 35.8964 45.3205 35.6985 44.6666C35.5006 44.0127 35.492 43.5438 35.6555 42.8469C35.7458 42.4512 35.5652 43.0147 35.72 42.6404C35.7932 42.4641 35.8792 42.2963 35.9738 42.1328C35.8276 42.3866 36.0642 42.0296 36.0814 42.0038C36.219 41.8661 36.2104 41.8661 36.0599 41.9952C36.133 41.9349 36.2104 41.8747 36.2879 41.8231C36.0341 42.0038 36.4556 41.7499 36.503 41.7284C36.1201 41.8919 36.7869 41.6682 36.8772 41.651C36.5331 41.7155 36.9805 41.651 37.0837 41.6424C37.3418 41.6166 37.5999 41.6037 37.8581 41.6037C37.5999 41.6037 38.2409 41.6166 38.2065 41.6123C38.4474 41.6252 38.6883 41.6424 38.9292 41.6682C39.411 41.7198 39.8068 41.7844 40.2327 41.8919C41.1404 42.1156 42.2374 41.9091 42.8784 41.1821C43.4075 40.5841 43.2741 39.685 42.4224 39.4742C39.0798 38.6569 33.582 38.4547 32.1107 42.4253C31.5687 43.888 31.6978 45.385 32.4377 46.753C33.212 48.1856 34.6316 49.1406 36.09 49.7773C37.9441 50.5903 40.0391 50.7366 42.0352 50.8699L40.8307 50.0741C41.1275 54.4706 41.1189 58.8844 40.8522 63.2809C40.7962 64.1757 41.8158 64.5026 42.5557 64.4166C43.2956 64.3306 44.5733 63.8703 44.6292 62.9583V62.9539Z" fill="#1E063A"/>
                        <path d="M53.9649 51.4122C57.5741 53.1888 61.4673 54.7332 65.5369 54.8623C69.3054 54.9827 73.0652 53.8944 76.055 51.5584C78.6964 49.4935 80.6752 46.7618 81.8539 43.6258C83.0671 40.395 83.4284 36.5965 82.2411 33.3012C81.5571 31.4041 80.387 29.8081 78.7824 28.595C78.0253 28.0228 77.1778 27.6012 76.2873 27.2872C75.7797 27.1065 75.2592 27.0033 74.7257 26.9215C74.2439 26.8484 73.7578 26.8699 73.2803 26.7968L74.0546 27.0119C74.1536 27.2356 74.1665 27.2399 74.0977 27.0377L74.0675 26.8871C74.0331 26.7365 74.003 26.5817 73.96 26.4311C73.874 26.1343 73.7664 25.8418 73.6374 25.5621C73.3534 24.9556 73.005 24.3748 72.5705 23.8629C71.7402 22.8864 70.6476 22.1034 69.4731 21.6087C66.208 20.2321 62.603 20.7225 59.3637 21.9098C58.7658 22.1292 57.8796 22.9423 58.4173 23.6091C58.9938 24.3189 60.2241 24.0134 60.921 23.7596C60.6027 23.8758 60.9984 23.7338 61.0759 23.708C61.2006 23.6693 61.3211 23.6306 61.4458 23.5919C61.7254 23.5101 62.0094 23.437 62.2933 23.3725C62.4181 23.3424 62.5471 23.3165 62.6719 23.2907C62.3621 23.3467 62.6891 23.2907 62.7364 23.2864C63.0547 23.2434 63.3774 23.2047 63.7 23.1832C63.8291 23.1746 63.9581 23.166 64.0872 23.166C63.8205 23.166 64.2248 23.1746 64.2851 23.1746C64.5733 23.1832 64.8615 23.209 65.1454 23.2391C65.3605 23.2649 65.3777 23.2692 65.666 23.3381C65.9542 23.4069 66.2381 23.4929 66.522 23.5876C66.6726 23.6349 66.6726 23.6392 66.8963 23.7424C67.12 23.8457 67.3179 23.9532 67.5201 24.0737C67.9245 24.3146 68.2686 24.5598 68.5783 24.848C69.2193 25.4503 69.7657 26.1644 70.0754 26.9904C70.2217 27.3818 70.2647 27.7948 70.4023 28.1863C70.6906 29.0036 71.5423 29.2101 72.3253 29.2273C73.1641 29.2488 73.8266 29.3994 74.5752 29.7737C76.1841 30.5781 77.4961 31.959 78.2318 33.6325C79.8579 37.3192 79.2513 41.8018 77.5177 45.2648C76.6659 46.9683 75.7582 48.2202 74.4246 49.4978C74.2568 49.657 74.089 49.8119 73.917 49.9624C73.8395 50.0313 73.7621 50.0958 73.6847 50.1603C73.9084 49.9753 73.7019 50.1431 73.6589 50.1775C73.276 50.4701 72.8845 50.754 72.4758 51.0078C72.4027 51.0551 71.7875 51.4122 72.1704 51.2014C71.994 51.3003 71.8134 51.3907 71.6284 51.481C71.4219 51.5799 71.2154 51.6746 71.0046 51.7649C70.91 51.8036 70.8153 51.8424 70.7207 51.8811C70.6518 51.9112 70.5787 51.937 70.5056 51.9628C70.7293 51.8854 70.7723 51.8725 70.6303 51.9198C70.3851 51.9972 70.1442 52.0747 69.899 52.1435C69.8001 52.1693 69.7011 52.1951 69.6022 52.2209C69.5506 52.2338 69.0602 52.3414 69.2494 52.3027C69.4645 52.2596 69.0731 52.3328 69.0257 52.3371C68.8365 52.3672 68.6429 52.393 68.4536 52.4102C68.1352 52.4446 67.8169 52.4661 67.4943 52.479C67.1716 52.4919 67.7137 52.479 67.3953 52.479C67.2017 52.479 67.0125 52.479 66.8189 52.4661C66.5005 52.4532 66.1779 52.4317 65.8596 52.4016C65.2014 52.3371 64.7798 52.2682 64.1818 52.1435C61.6308 51.6014 59.2261 50.5948 56.8944 49.4462C56.0642 49.0375 54.9801 49.2268 54.2316 49.7387C53.711 50.0958 53.1303 51.0078 53.9649 51.4208V51.4122Z" fill="#1E063A"/>
                        <path d="M50.6258 35.616C57.199 32.7595 63.0797 28.1608 67.0331 22.1425C68.9561 19.2172 70.4402 16.0037 71.2662 12.5923C72.0362 9.43041 72.5266 5.33071 69.9584 2.8184C67.0719 -0.00793524 62.0903 0.86965 58.7004 2.1215C56.8334 2.8098 54.9319 3.85946 53.6801 5.44686C52.8197 6.53954 51.9163 8.70339 53.5683 9.56807C54.7341 10.1789 56.386 9.80897 57.5303 9.30565C58.4036 8.91848 59.2338 8.37214 59.7673 7.56769C60.5889 6.32444 60.8599 4.6381 60.1931 3.2615C58.3003 -0.631709 52.9316 -0.455331 49.46 0.723386C45.5022 2.06988 42.5942 5.0941 40.7099 8.7464C38.8257 12.3987 37.6599 16.7092 36.9802 20.8347C36.8038 21.8973 36.6705 22.9684 36.5629 24.0396C36.4898 24.7881 37.6341 24.715 38.1202 24.6333C38.6063 24.5515 39.101 24.4096 39.5398 24.1687C39.7764 24.0396 40.2453 23.7772 40.2754 23.4804C40.654 19.6259 41.4757 15.823 42.749 12.1664C43.8331 9.05614 45.3 5.79961 47.8769 3.64007C48.5609 3.06791 49.004 2.76248 49.7181 2.39252C49.7912 2.3538 49.8686 2.31939 49.9461 2.27637C50.1999 2.14301 49.7138 2.3624 49.9805 2.25916C50.1655 2.19033 50.3461 2.10859 50.5268 2.03976C50.8839 1.9021 50.3074 2.09139 50.6774 1.99244C50.7892 1.96233 51.3958 1.82467 50.9871 1.9021C51.1807 1.86769 51.3743 1.84618 51.5679 1.80746C51.8475 1.75154 51.3184 1.81606 51.6023 1.79886C51.6883 1.79886 51.7701 1.79025 51.8561 1.78595C51.968 1.78165 52.0798 1.78595 52.196 1.78165C52.2003 1.78165 52.4541 1.79025 52.2992 1.78165C52.1443 1.77305 52.3981 1.79025 52.4067 1.79025C52.5358 1.80316 52.6649 1.81606 52.7939 1.83757C53.379 1.91931 54.0587 2.1258 54.6437 2.45274C55.8482 3.11954 56.7215 4.27674 56.8033 5.66625C56.8377 6.27282 56.6957 6.89229 56.4376 7.44293C56.3301 7.66663 56.2225 7.8172 56.0547 8.01939C56.0332 8.0452 55.8526 8.23448 55.9601 8.13124C56.059 8.03659 55.8999 8.17856 55.8956 8.18286C55.8267 8.2732 55.659 8.2689 55.93 8.17856C55.7149 8.25169 55.9085 8.19146 56.016 8.15275C55.6934 8.2689 56.0935 8.12693 56.1365 8.11833C56.3086 8.07531 56.5796 8.11403 56.7301 8.0581C56.9409 7.98067 56.842 8.14844 56.7775 8.0409C56.7516 8.00218 56.6742 7.96346 56.6398 7.92474C56.4591 7.72686 56.4032 7.43863 56.3903 7.18052C56.3602 6.56965 56.6484 5.97599 57.0055 5.49848C57.4485 4.90482 57.9218 4.48323 58.5412 4.07456C58.3562 4.19501 58.7778 3.9369 58.8338 3.91108C59.0058 3.81644 59.1779 3.73041 59.35 3.64007C59.0704 3.78633 59.5221 3.56693 59.6081 3.52822C59.8146 3.44218 60.0211 3.36474 60.2319 3.28731C60.3093 3.2572 60.391 3.23139 60.4685 3.20557C60.3996 3.23139 60.0942 3.31742 60.4513 3.21418C60.6276 3.16256 60.8083 3.11093 60.9847 3.06361C61.0879 3.0378 61.63 2.91735 61.1826 3.00769C61.3934 2.96467 61.6042 2.92595 61.8193 2.89584C61.9784 2.87433 62.1376 2.85282 62.3011 2.83561C61.9483 2.87863 62.4645 2.83131 62.5549 2.82701C62.7399 2.8184 62.9291 2.8184 63.1141 2.82271C62.8818 2.82271 63.411 2.84422 63.4927 2.85282C64.822 2.99908 66.0824 3.62716 66.9514 4.78007C68.7539 7.16761 68.1473 10.7253 67.4762 13.3924C66.7492 16.2704 65.5705 19.0537 64.0046 21.5746C62.4387 24.0955 60.4341 26.5218 58.2874 28.4749C57.1603 29.4987 55.9687 30.4537 54.7212 31.327C54.4157 31.5421 54.1017 31.7486 53.792 31.9551C53.792 31.9551 53.5726 32.097 53.6973 32.0196C53.8393 31.9293 53.5596 32.1057 53.5338 32.1229C53.3532 32.2347 53.1725 32.3466 52.9875 32.4584C52.325 32.8585 51.6496 33.2327 50.9613 33.5898C50.6516 33.749 50.3418 33.9038 50.0321 34.0544C49.9848 34.0759 49.6837 34.2222 49.8815 34.1275C50.0665 34.0415 49.8256 34.1534 49.8041 34.162C49.6105 34.248 49.4169 34.334 49.219 34.4201C48.8706 34.5706 47.6015 35.1686 48.1651 35.7149C48.6942 36.2269 50.0536 35.8741 50.6086 35.6332L50.6258 35.616Z" fill="#1E063A"/>
                        <path d="M35.8105 34.6913C33.6897 32.1102 32.3776 28.8236 32.326 25.4638C32.3045 23.9194 32.4551 22.3277 33.3197 21.0716C33.2036 21.2393 33.5004 20.8565 33.5391 20.8134C33.5822 20.7661 33.965 20.3919 33.7499 20.5768C33.922 20.4263 34.107 20.3015 34.2877 20.1682C34.7179 19.8627 33.9865 20.3101 34.4554 20.0649C34.8125 19.8799 35.1696 19.7079 35.5438 19.5573C35.6514 19.5143 35.7589 19.4713 35.8665 19.4325C35.7231 19.4842 35.7231 19.4842 35.8665 19.4325C36.0816 19.3594 36.3009 19.282 36.516 19.2088C37.2259 18.9679 38.297 18.37 38.0475 17.4451C37.8152 16.5847 36.5376 16.447 35.8406 16.6836C34.2963 17.2085 32.696 17.7548 31.4097 18.7916C30.1235 19.8283 29.2932 21.2135 28.863 22.8224C28.4672 24.298 28.4887 25.8596 28.635 27.3695C28.7813 28.8795 29.1426 30.3464 29.7019 31.7445C30.3601 33.3965 31.2548 34.9494 32.3819 36.3218C32.9627 37.0273 34.1715 36.9756 34.92 36.5885C35.5309 36.2701 36.4214 35.427 35.8105 34.687V34.6913Z" fill="#1E063A"/>
                        <path d="M68.6948 40.6273C69.3444 40.0638 69.9122 39.4185 70.4199 38.7259C70.8974 38.0763 71.5427 37.203 71.3964 36.3556C71.2716 35.6242 70.5661 35.1984 70.0757 34.7166C69.5208 34.1745 69.0562 33.5507 68.6776 32.8753C68.5184 32.5914 67.9162 32.4882 67.6495 32.471C67.1806 32.4409 66.6041 32.5441 66.1782 32.7506C65.8126 32.927 65.3824 33.1636 65.1931 33.5378C65.0296 33.8605 65.0468 34.0885 65.2232 34.4068C65.5544 35.0048 65.9545 35.5554 66.4277 36.0544C66.8407 36.4889 67.4258 36.8374 67.7183 37.3751L67.5763 37.1084C67.6236 37.2202 67.6538 37.3235 67.6624 37.4439L67.6538 37.1428C67.6538 37.203 67.6279 37.2762 67.6366 37.3364C67.6968 37.2116 67.7054 37.1944 67.6667 37.2762C67.6538 37.3063 67.6365 37.3407 67.6193 37.3708C67.5505 37.5042 67.4774 37.6332 67.3999 37.7623C67.2279 38.0548 67.0386 38.3344 66.8364 38.6055C66.8149 38.6313 66.6643 38.8335 66.7805 38.6829C66.8966 38.5323 66.7418 38.7259 66.7202 38.756C66.6127 38.8851 66.4966 39.0098 66.3804 39.1346C66.1481 39.3798 65.9029 39.6121 65.6448 39.8315C65.4168 40.0294 65.2146 40.4209 65.3006 40.7306C65.3867 41.0403 65.748 41.264 66.0492 41.3372C66.9784 41.5566 67.985 41.2425 68.6948 40.6273Z" fill="#1E063A"/>
                        <path d="M58.7005 34.1315V36.0673C58.6661 36.248 58.7005 36.4115 58.7952 36.5577C58.8597 36.7255 58.9716 36.8588 59.1393 36.9492C59.3157 37.0653 59.505 37.1342 59.7115 37.16C59.9395 37.2202 60.1675 37.2374 60.4041 37.2073C60.8945 37.1514 61.415 37.0094 61.8108 36.6997L62.1377 36.4072C62.3184 36.2179 62.4303 35.9985 62.4733 35.7447V33.8088C62.5077 33.6281 62.4733 33.4647 62.3787 33.3184C62.3141 33.1506 62.2023 33.0173 62.0345 32.9269C61.8581 32.8108 61.6688 32.7419 61.4623 32.7161C61.2343 32.6559 61.0063 32.6387 60.7697 32.6688C60.2793 32.7247 59.7588 32.8667 59.363 33.1764L59.0361 33.469C58.8554 33.6582 58.7436 33.8776 58.7005 34.1315Z" fill="#1E063A"/>
                        <path d="M57.272 43.5142C57.3279 44.9769 57.5043 46.8224 58.967 47.601C59.8144 48.0527 60.7996 48.1302 61.7374 48.2549C62.6752 48.3797 63.5442 48.4786 64.4518 48.556C65.3079 48.6292 66.4006 48.3711 67.0975 47.8462C67.2739 47.7129 67.5922 47.4935 67.5191 47.2268C67.446 46.96 67.0459 46.9213 66.8437 46.9041C65.7897 46.8138 64.7401 46.6933 63.6904 46.5428C63.5657 46.5256 63.4409 46.504 63.3119 46.4868C63.2946 46.4868 62.9032 46.4137 63.1699 46.4653C62.9462 46.418 62.7139 46.375 62.4988 46.2846C62.2278 46.1685 61.875 45.833 61.6556 45.5361L61.7718 45.6953C61.1222 44.7532 61.0577 43.6132 61.0147 42.5076C61.006 42.2624 60.464 42.1936 60.3393 42.185C59.9005 42.1419 59.3842 42.2237 58.9627 42.3441C58.5411 42.4646 58.0593 42.6194 57.6936 42.8948C57.4828 43.0539 57.2591 43.2217 57.272 43.5142Z" fill="#1E063A"/>
                        <path d="M70.1226 28.8446C70.0108 29.1544 69.9936 29.4598 69.9893 29.7868C69.9893 30.032 70.0194 30.2729 70.0968 30.5052C70.1398 30.6471 70.2216 30.7418 70.3506 30.802C70.484 30.9052 70.6388 30.9655 70.8109 30.9827C71.026 31.0214 71.2454 31.03 71.4605 31.0042C71.71 30.9999 71.9595 30.9569 72.2004 30.888L72.6908 30.7246C72.9705 30.6127 73.2243 30.4665 73.4566 30.2772C73.6545 30.0922 73.9384 29.8126 73.8394 29.5071C73.762 29.2748 73.7276 29.0339 73.7319 28.7887V29.0382C73.7319 28.8016 73.7749 28.5693 73.8566 28.3499C73.904 28.2123 73.8825 28.0918 73.7964 27.9886C73.7362 27.8552 73.6372 27.7649 73.4867 27.7218C73.3103 27.6444 73.1296 27.6057 72.9403 27.6057C72.7167 27.5756 72.4886 27.5799 72.2606 27.6186C71.7745 27.6917 71.2626 27.8294 70.8453 28.0918C70.5442 28.2811 70.2517 28.5005 70.1269 28.8489L70.1226 28.8446Z" fill="#1E063A"/>
                        <path d="M90.0268 125.474C93.8727 125.813 97.7358 125.951 101.547 126.601C105.273 127.237 109.269 128.468 112.293 131.027C115.786 133.983 117.778 138.366 119.009 142.685C119.348 143.873 119.637 145.073 119.895 146.282C120.015 146.837 120.127 147.392 120.239 147.947C120.334 148.42 120.514 148.975 120.42 149.31C120.316 149.676 120.11 150.046 120.032 150.412C119.998 150.588 120.097 150.36 120.153 150.3C120.484 149.96 121.039 149.796 121.508 149.728C121.977 149.659 121.775 149.706 121.654 149.71C121.482 149.71 121.504 149.71 121.71 149.715C121.628 149.71 121.547 149.702 121.469 149.693C121.388 149.685 121.306 149.672 121.224 149.663C120.841 149.62 121.353 149.702 121.138 149.65C120.97 149.612 120.811 149.56 120.652 149.504C120.622 149.495 120.342 149.349 120.54 149.47C120.501 149.444 120.445 149.418 120.411 149.384C120.183 149.177 119.968 148.953 119.77 148.717C118.097 146.729 117.615 144.01 116.505 141.718C115.309 139.253 114.074 136.74 112.315 134.619C112.138 134.404 111.558 134.409 111.338 134.417C110.861 134.43 110.319 134.551 109.88 134.731C109.48 134.895 108.336 135.398 108.813 135.975C110.478 137.984 111.631 140.388 112.767 142.72C113.902 145.052 114.38 147.422 115.812 149.47C116.406 150.317 117.025 150.975 118.049 151.233C119.404 151.573 120.845 151.565 122.162 151.066C122.76 150.838 123.388 150.515 123.698 149.93C123.891 149.564 124.033 149.13 124.132 148.73C124.244 148.256 124.158 147.856 124.068 147.383C123.93 146.678 123.788 145.976 123.637 145.275C122.566 140.311 120.932 135.42 117.602 131.488C114.771 128.141 110.65 126.33 106.456 125.37C101.831 124.308 97.1077 124.153 92.3971 123.736C91.5152 123.658 90.4656 123.903 89.7515 124.445C89.1836 124.876 89.2568 125.405 90.0268 125.474Z" fill="#1E063A"/>
                        <path d="M115.159 153.423C112.788 147.852 109.605 142.587 106.447 137.437C105.858 136.474 102.36 137.876 102.709 138.44C105.866 143.593 109.05 148.854 111.42 154.425C111.674 155.019 113.021 154.675 113.459 154.55C113.743 154.468 115.399 153.978 115.163 153.423H115.159Z" fill="#1E063A"/>
                        <path d="M95.306 142.225C97.6161 145.026 100.085 147.71 102.228 150.648C104.159 153.294 105.785 156.215 106.267 159.497L108.418 158.065C108.048 158.112 108.289 158.073 108.362 158.077C108.435 158.082 107.855 158.069 108.035 158.077C107.949 158.073 107.609 158.017 107.437 157.979C106.895 157.854 106.366 157.63 105.867 157.385C104.766 156.847 103.763 156.124 102.804 155.367C100.649 153.672 98.7173 151.715 96.5922 149.986C91.8171 146.105 86.001 143.516 79.9267 142.548C73.0867 141.455 66.2338 142.638 59.5401 144.071C53.0271 145.464 46.6044 146.875 39.9063 146.832C33.2083 146.789 26.6566 145.624 20.4274 143.395C14.8608 141.403 9.62111 138.293 6.79908 132.899C0.883994 121.597 5.7107 108.339 12.2022 98.449C18.2206 89.286 26.5361 81.6889 36.267 76.6299C45.9978 71.5708 56.6923 69.45 67.6707 70.504C79.2556 71.6182 90.4792 76.0362 99.6853 83.1644C104.185 86.649 108.147 91.5574 113.916 92.9082C119.629 94.2461 125.6 91.3423 129.351 87.1308C133.472 82.4976 134.793 76.3029 134.978 70.2631C135.184 63.5693 134.062 56.9315 134.083 50.2421C134.1 44.2797 135.292 38.3431 138.63 33.3185C140.037 31.1976 141.74 29.2833 143.732 27.6959C144.636 26.9732 145.586 26.3322 146.597 25.7729C147.169 25.4589 147.539 25.2739 148.09 25.0373C148.352 24.9255 148.615 24.8179 148.882 24.719C149.015 24.6674 149.148 24.62 149.282 24.5727C149.927 24.3404 148.946 24.6674 149.604 24.4652C151.725 23.807 153.807 23.5747 156.195 23.8457L155.614 23.6091C155.691 23.7166 155.631 23.5274 155.636 23.6478C155.636 23.6994 155.683 23.7812 155.696 23.8328C155.704 23.8715 155.709 24.0952 155.717 23.9662C155.726 23.8371 155.687 24.0608 155.674 24.1038C155.657 24.1726 155.623 24.2372 155.597 24.3017C155.67 24.1296 155.653 24.22 155.575 24.3189C155.498 24.4178 155.106 24.848 155.343 24.6243C154.977 24.9771 154.564 25.2782 154.151 25.5708C153.906 25.7471 154.306 25.4761 154.044 25.6439C153.923 25.7213 153.803 25.7988 153.682 25.8762C153.381 26.0655 153.076 26.2505 152.77 26.4354C150.082 28.0443 147.294 29.507 144.786 31.3998C143.461 32.3979 142.175 33.5508 141.254 34.9403C140.785 35.6458 141.663 35.8953 142.231 35.8953C142.992 35.8953 144.248 35.6114 144.709 34.9102C145.289 34.0326 145.952 33.3443 146.722 32.6818C147.552 31.972 148.546 31.2622 149.342 30.7502C151.286 29.4898 153.334 28.4014 155.313 27.2012C156.685 26.3709 158.578 25.3729 159.296 23.8414C159.529 23.3424 159.555 22.7272 159.176 22.2884C158.741 21.7808 157.619 21.8668 157.004 21.8281C156.268 21.7851 155.532 21.7808 154.797 21.8195C148.619 22.1551 142.863 24.9169 138.518 29.2747C134.173 33.6325 131.433 39.5476 130.672 45.7294C129.76 53.1631 131.102 60.5967 131.265 68.0304C131.416 74.8016 130.508 82.1277 125.755 87.3243C124.821 88.3439 123.741 89.2645 122.55 89.97C121.96 90.3185 121.509 90.5465 120.881 90.7874C120.334 90.9939 119.926 91.1057 119.349 91.1917C116.592 91.6004 113.74 90.2754 111.451 88.6364C108.771 86.7178 106.452 84.3474 103.88 82.2954C101.307 80.2434 98.5238 78.3764 95.6458 76.7374C84.2157 70.2243 70.8541 67.3937 57.7678 68.5939C45.1718 69.7511 33.0534 74.8962 23.1763 82.7428C18.3066 86.6102 13.9488 91.1616 10.318 96.2163C6.40331 101.667 3.07365 107.81 1.42603 114.344C-0.217287 120.862 -0.0495138 128.098 3.1941 134.112C6.44202 140.143 12.4044 143.438 18.7067 145.525C25.9166 147.916 33.5611 149.009 41.1539 148.721C48.7467 148.433 56.2234 146.342 63.7732 144.97C67.3997 144.311 71.0907 143.86 74.7817 144.096C78.1458 144.311 81.4668 145.107 84.5857 146.368C87.7045 147.628 90.7288 149.401 93.3658 151.586C95.6888 153.509 97.801 155.686 100.249 157.458C102.516 159.097 105.007 160.293 107.867 159.91C108.452 159.833 110.152 159.377 110.018 158.478C109.528 155.131 107.833 152.145 105.88 149.435C103.708 146.411 101.174 143.67 98.8077 140.801C98.0678 139.902 94.48 141.193 95.3189 142.208L95.306 142.225Z" fill="#1E063A"/>
                        <path d="M157.386 29.2189C153.062 31.6882 148.98 34.5877 145.203 37.8399C144.6 38.3561 144.824 39.0186 145.564 39.1907C146.442 39.3886 147.534 39.0616 148.21 38.4809C151.797 35.3878 155.574 32.7293 159.713 30.3632C160.255 30.0535 160.797 29.2748 160.035 28.8791C159.274 28.4833 158.1 28.8145 157.386 29.2232V29.2189Z" fill="#1E063A"/>
                        <path d="M150.825 43.0063C153.746 40.5069 156.822 38.1882 160.036 36.0759C160.763 35.5984 161.52 35.1209 162.294 34.652C162.47 34.5445 162.642 34.4412 162.823 34.3466C162.901 34.3036 162.978 34.2648 163.055 34.2261C163.275 34.1186 162.866 34.2218 163.107 34.2089C163.374 34.196 162.995 34.1788 163.025 34.2261C162.991 34.1745 163.348 34.2175 163.012 34.2175C162.969 34.2175 162.862 34.2089 162.819 34.2175C162.698 34.2605 162.952 34.282 162.892 34.239C163.051 34.3638 163.012 34.282 163.025 34.5746C163.03 34.7596 163 34.9359 162.952 35.1166C162.845 35.5253 162.651 35.8953 162.406 36.2394C161.924 36.9191 161.326 37.5257 160.724 38.1021C158.409 40.3305 155.626 42.0728 153.221 44.2194C150.645 46.5209 148.666 49.2182 147.577 52.5221C146.347 56.2475 146.171 60.2396 146.175 64.1285C146.175 64.391 146.721 64.5071 146.867 64.5286C147.302 64.5931 147.835 64.52 148.248 64.3996C148.842 64.2275 149.913 63.8833 149.909 63.1262C149.905 59.4911 150.094 55.7958 151.182 52.2984C151.703 50.6249 152.43 49.0117 153.449 47.5835C154.469 46.1553 155.635 45.0239 156.921 43.9398C159.631 41.6641 162.634 39.7282 165.043 37.1084C165.662 36.4373 166.265 35.6802 166.579 34.8112C166.729 34.3939 166.794 33.9293 166.751 33.4862C166.695 32.9313 166.252 32.6947 165.757 32.5441C163.43 31.8386 161.012 33.2066 159.111 34.3982C155.17 36.8632 151.41 39.5992 147.878 42.6234C147.702 42.774 147.401 43.0364 147.478 43.316C147.556 43.5956 147.947 43.686 148.171 43.7161C148.993 43.8365 150.171 43.5569 150.817 43.0063H150.825Z" fill="#1E063A"/>
                        <path d="M89.9547 40.0728L86.0001 52.7273H101.818L89.9547 40.0728Z" fill="#A9F27D"/>
                        <rect width="58.0002" height="58" rx="29" transform="matrix(-1 0 0 1 145.055 0)" fill="#A9F27D"/>
                        <path d="M115.001 13.1816V17.1362M126.186 17.8147L123.39 20.611M130.819 28.9999H126.864M126.186 40.185L123.39 37.3887M115.001 40.8635V44.8181M106.612 37.3887L103.816 40.185M103.137 28.9999H99.1826M106.612 20.611L103.816 17.8147M121.592 28.9999C121.592 32.6399 118.641 35.5908 115.001 35.5908C111.361 35.5908 108.41 32.6399 108.41 28.9999C108.41 25.3598 111.361 22.4089 115.001 22.4089C118.641 22.4089 121.592 25.3598 121.592 28.9999Z" stroke="#1E063A" stroke-width="2.34344" stroke-linecap="round" stroke-linejoin="round"/>
                        </g>
                        </g>
                        <defs>
                        <filter id="filter0_f_232_2751" x="0" y="0" width="200" height="160" filterUnits="userSpaceOnUse" color-interpolation-filters="sRGB">
                        <feFlood flood-opacity="0" result="BackgroundImageFix"/>
                        <feBlend mode="normal" in="SourceGraphic" in2="BackgroundImageFix" result="shape"/>
                        <feGaussianBlur stdDeviation="10" result="effect1_foregroundBlur_232_2751"/>
                        </filter>
                        <radialGradient id="paint0_radial_232_2751" cx="0" cy="0" r="1" gradientUnits="userSpaceOnUse" gradientTransform="translate(89.1362 80.1269) rotate(121.783) scale(34.08 47.8362)">
                        <stop stop-color="#A9F27D"/>
                        <stop offset="1" stop-color="#30BB89"/>
                        </radialGradient>
                        <clipPath id="clip0_232_2751">
                        <rect width="200" height="160" fill="white"/>
                        </clipPath>
                        <clipPath id="clip1_232_2751">
                        <rect width="183" height="160" fill="white"/>
                        </clipPath>
                        </defs>
                        </svg>