<?xml version="1.0" encoding="UTF-8" standalone="no"?>
<!DOCTYPE svg PUBLIC "-//W3C//DTD SVG 1.1//EN" "http://www.w3.org/Graphics/SVG/1.1/DTD/svg11.dtd">
<svg width="100%" height="100%" viewBox="0 0 412 139" version="1.1" xmlns="http://www.w3.org/2000/svg" xmlns:xlink="http://www.w3.org/1999/xlink" xml:space="preserve" xmlns:serif="http://www.serif.com/" style="fill-rule:evenodd;clip-rule:evenodd;stroke-linejoin:round;stroke-miterlimit:2;">
    <g transform="matrix(1,0,0,1,-26.93,-26.93)">
        <path d="M198.69,47.2C198.69,36.013 189.607,26.93 178.42,26.93L47.2,26.93C36.013,26.93 26.93,36.013 26.93,47.2L26.93,145.55C26.93,156.737 36.013,165.82 47.2,165.82L178.42,165.82C189.607,165.82 198.69,156.737 198.69,145.55L198.69,47.2Z" style="fill:rgb(81,207,162);"/>
        <path d="M111.19,53.85L103.42,53.85C97.15,53.85 92.08,58.93 92.08,65.19L92.08,73.87L111.19,73.87L111.19,53.85Z" style="fill:white;fill-rule:nonzero;"/>
        <rect x="53.87" y="73.87" width="29.65" height="18.04" style="fill:white;"/>
        <path d="M150.26,53.85L129.31,53.85L129.31,73.87L149.4,73.87C156.7,73.87 160.56,76.56 160.56,82.89C160.56,89.22 156.7,91.91 149.54,91.91L129.31,91.91L129.31,110.45C129.31,117.56 126.61,121.32 120.25,121.32C113.89,121.32 111.2,117.57 111.19,110.62L111.19,91.91L92.08,91.91L92.08,110.62C92.08,117.57 89.25,121.32 83.02,121.32C76.79,121.32 73.96,117.56 73.96,110.45L73.96,53.84L53.86,53.84L53.86,111.28C53.86,126.19 61.65,138.88 82.59,138.88C90.89,138.88 97.13,136.79 101.63,133.35C106.13,136.79 112.37,138.88 120.67,138.88C141.61,138.88 149.4,126.2 149.4,111.28L149.4,110.94L150.4,110.94C165.28,110.94 178.59,103.04 178.59,82.46C178.59,61.88 165.57,53.84 150.25,53.84L150.26,53.85Z" style="fill:white;fill-rule:nonzero;"/>
        <path d="M248.83,159.03L238.9,126.53L245.22,126.53L253.35,153.25L261.61,126.53L267.93,126.53L258,159.03L248.83,159.03Z" style="fill:rgb(81,207,162);fill-rule:nonzero;"/>
        <path d="M279.93,159.7C277.43,159.7 275.23,159.16 273.33,158.09C271.43,157.02 269.94,155.53 268.86,153.64C267.78,151.75 267.25,149.59 267.25,147.15C267.25,144.49 267.78,142.17 268.83,140.2C269.88,138.23 271.34,136.7 273.18,135.61C275.03,134.52 277.16,133.97 279.57,133.97C282.13,133.97 284.3,134.57 286.09,135.78C287.88,136.98 289.21,138.68 290.06,140.86C290.92,143.04 291.22,145.61 290.96,148.56L284.89,148.56L284.89,146.3C284.89,143.82 284.5,142.03 283.71,140.94C282.92,139.85 281.63,139.3 279.84,139.3C277.75,139.3 276.21,139.94 275.22,141.21C274.24,142.48 273.74,144.36 273.74,146.84C273.74,149.11 274.23,150.87 275.22,152.11C276.21,153.35 277.66,153.97 279.57,153.97C280.77,153.97 281.8,153.71 282.66,153.18C283.52,152.65 284.17,151.89 284.62,150.9L290.76,152.66C289.84,154.89 288.39,156.62 286.41,157.85C284.43,159.08 282.27,159.7 279.92,159.7L279.93,159.7ZM271.85,148.55L271.85,143.99L288.01,143.99L288.01,148.55L271.85,148.55Z" style="fill:rgb(81,207,162);fill-rule:nonzero;"/>
        <path d="M295.32,159.03L295.32,134.65L300.78,134.65L300.78,142.73L301.55,142.73L301.55,159.03L295.32,159.03ZM311.98,159.04L311.98,147.52C311.98,146.96 311.95,146.25 311.89,145.39C311.83,144.52 311.64,143.66 311.32,142.78C311,141.9 310.49,141.18 309.77,140.59C309.06,140 308.04,139.71 306.74,139.71C306.21,139.71 305.65,139.79 305.05,139.96C304.45,140.13 303.88,140.44 303.36,140.92C302.84,141.4 302.4,142.09 302.06,143.01C301.72,143.93 301.55,145.15 301.55,146.67L298.03,145C298.03,143.07 298.42,141.27 299.21,139.58C299.99,137.89 301.17,136.53 302.74,135.5C304.31,134.46 306.3,133.94 308.69,133.94C310.6,133.94 312.16,134.26 313.36,134.91C314.56,135.56 315.5,136.38 316.17,137.37C316.84,138.36 317.32,139.4 317.6,140.47C317.89,141.55 318.06,142.53 318.12,143.42C318.18,144.31 318.21,144.95 318.21,145.36L318.21,159.04L311.98,159.04Z" style="fill:rgb(81,207,162);fill-rule:nonzero;"/>
        <path d="M321.37,139.39L321.37,134.65L338.7,134.65L338.7,139.39L321.37,139.39ZM338.7,159.03C337.02,159.35 335.36,159.49 333.75,159.45C332.13,159.41 330.69,159.13 329.42,158.59C328.15,158.06 327.18,157.2 326.52,156.01C325.92,154.9 325.6,153.77 325.57,152.61C325.54,151.46 325.52,150.15 325.52,148.69L325.52,127.88L331.66,127.88L331.66,148.33C331.66,149.28 331.67,150.13 331.69,150.89C331.71,151.65 331.87,152.26 332.15,152.71C332.69,153.57 333.56,154.03 334.74,154.11C335.93,154.19 337.25,154.12 338.69,153.93L338.69,159.03L338.7,159.03Z" style="fill:rgb(81,207,162);fill-rule:nonzero;"/>
        <path d="M353.19,159.75C351.28,159.75 349.72,159.43 348.52,158.78C347.32,158.13 346.38,157.31 345.71,156.32C345.04,155.33 344.56,154.29 344.28,153.22C344,152.15 343.82,151.16 343.76,150.27C343.7,149.38 343.67,148.74 343.67,148.33L343.67,134.65L349.9,134.65L349.9,146.16C349.9,146.72 349.93,147.43 349.99,148.29C350.05,149.16 350.24,150.02 350.55,150.9C350.87,151.77 351.38,152.5 352.1,153.09C352.82,153.68 353.83,153.97 355.13,153.97C355.66,153.97 356.22,153.89 356.82,153.72C357.42,153.55 357.99,153.24 358.51,152.76C359.03,152.28 359.47,151.59 359.81,150.66C360.15,149.73 360.32,148.52 360.32,147.02L363.84,148.69C363.84,150.62 363.45,152.42 362.67,154.11C361.89,155.8 360.71,157.16 359.14,158.19C357.57,159.23 355.58,159.75 353.19,159.75ZM361.09,159.03L361.09,150.95L360.33,150.95L360.33,134.65L366.51,134.65L366.51,159.03L361.09,159.03Z" style="fill:rgb(81,207,162);fill-rule:nonzero;"/>
        <path d="M372.82,159.03L372.82,134.65L378.24,134.65L378.24,140.61L377.65,139.84C377.97,139 378.39,138.23 378.91,137.54C379.43,136.85 380.09,136.28 380.85,135.82C381.44,135.46 382.08,135.18 382.77,134.97C383.46,134.77 384.18,134.64 384.91,134.59C385.65,134.54 386.39,134.56 387.12,134.65L387.12,140.38C386.44,140.17 385.66,140.1 384.76,140.17C383.87,140.24 383.06,140.45 382.34,140.79C381.62,141.12 381.01,141.56 380.51,142.11C380.01,142.66 379.64,143.31 379.38,144.05C379.12,144.79 379,145.63 379,146.57L379,159.03L372.81,159.03L372.82,159.03Z" style="fill:rgb(81,207,162);fill-rule:nonzero;"/>
        <path d="M402.3,159.7C399.8,159.7 397.6,159.16 395.7,158.09C393.8,157.02 392.31,155.53 391.23,153.64C390.15,151.75 389.62,149.59 389.62,147.15C389.62,144.49 390.15,142.17 391.2,140.2C392.25,138.23 393.71,136.7 395.55,135.61C397.4,134.52 399.53,133.97 401.94,133.97C404.5,133.97 406.67,134.57 408.46,135.78C410.25,136.98 411.58,138.68 412.43,140.86C413.29,143.04 413.59,145.61 413.33,148.56L407.26,148.56L407.26,146.3C407.26,143.82 406.87,142.03 406.08,140.94C405.29,139.85 404,139.3 402.21,139.3C400.12,139.3 398.58,139.94 397.59,141.21C396.61,142.48 396.11,144.36 396.11,146.84C396.11,149.11 396.6,150.87 397.59,152.11C398.58,153.35 400.03,153.97 401.94,153.97C403.14,153.97 404.17,153.71 405.03,153.18C405.89,152.65 406.54,151.89 406.99,150.9L413.13,152.66C412.21,154.89 410.76,156.62 408.78,157.85C406.8,159.08 404.64,159.7 402.29,159.7L402.3,159.7ZM394.22,148.55L394.22,143.99L410.38,143.99L410.38,148.55L394.22,148.55Z" style="fill:rgb(81,207,162);fill-rule:nonzero;"/>
        <path d="M427.94,159.7C424.87,159.7 422.39,159 420.5,157.61C418.61,156.22 417.47,154.25 417.06,151.71L423.33,150.76C423.58,151.9 424.15,152.8 425.03,153.45C425.91,154.1 427.03,154.42 428.38,154.42C429.49,154.42 430.35,154.21 430.95,153.78C431.55,153.35 431.85,152.75 431.85,151.99C431.85,151.51 431.73,151.12 431.49,150.83C431.25,150.54 430.71,150.25 429.87,149.96C429.04,149.68 427.74,149.3 425.98,148.83C423.99,148.32 422.41,147.75 421.22,147.11C420.03,146.48 419.17,145.72 418.65,144.84C418.12,143.96 417.86,142.89 417.86,141.65C417.86,140.09 418.26,138.73 419.05,137.58C419.85,136.43 420.97,135.54 422.43,134.92C423.89,134.3 425.59,133.98 427.57,133.98C429.55,133.98 431.17,134.27 432.65,134.86C434.12,135.45 435.32,136.28 436.23,137.37C437.14,138.45 437.7,139.73 437.91,141.21L431.64,142.34C431.53,141.44 431.14,140.72 430.46,140.2C429.78,139.67 428.87,139.36 427.7,139.27C426.57,139.19 425.66,139.35 424.98,139.72C424.3,140.1 423.96,140.64 423.96,141.35C423.96,141.77 424.11,142.13 424.4,142.41C424.69,142.69 425.3,142.99 426.23,143.29C427.16,143.59 428.57,143.98 430.46,144.46C432.31,144.94 433.8,145.5 434.92,146.14C436.04,146.78 436.86,147.55 437.37,148.44C437.88,149.33 438.14,150.41 438.14,151.68C438.14,154.18 437.24,156.14 435.43,157.57C433.62,159 431.12,159.72 427.94,159.72L427.94,159.7Z" style="fill:rgb(81,207,162);fill-rule:nonzero;"/>
        <rect x="241.89" y="80.11" width="6.14" height="32.52" style="fill:rgb(81,207,162);fill-rule:nonzero;"/>
        <path d="M254.76,112.63L254.76,88.24L260.18,88.24L260.18,96.32L260.95,96.32L260.95,112.62L254.76,112.62L254.76,112.63ZM269.48,112.63L269.48,98.22C269.48,96.61 269.1,95.36 268.34,94.46C267.58,93.57 266.53,93.12 265.19,93.12C263.85,93.12 262.89,93.56 262.11,94.44C261.33,95.32 260.95,96.46 260.95,97.86L258.38,96.05C258.38,94.45 258.78,93.02 259.58,91.76C260.38,90.5 261.45,89.49 262.8,88.76C264.15,88.02 265.66,87.65 267.33,87.65C269.24,87.65 270.81,88.06 272.04,88.87C273.27,89.68 274.18,90.77 274.76,92.12C275.35,93.48 275.64,94.97 275.64,96.59L275.64,112.62L269.5,112.62L269.48,112.63ZM284.15,112.63L284.15,98.22C284.15,96.61 283.77,95.36 283.01,94.46C282.25,93.57 281.2,93.12 279.86,93.12C279,93.12 278.26,93.32 277.63,93.72C277,94.12 276.51,94.68 276.15,95.39C275.8,96.1 275.62,96.93 275.62,97.86L273.05,96.14C273.05,94.47 273.44,92.99 274.23,91.71C275.02,90.43 276.08,89.43 277.41,88.72C278.74,88.01 280.22,87.65 281.85,87.65C284.63,87.65 286.74,88.48 288.16,90.12C289.58,91.76 290.3,93.93 290.3,96.59L290.3,112.62L284.16,112.62L284.15,112.63Z" style="fill:rgb(81,207,162);fill-rule:nonzero;"/>
        <path d="M296.13,123.47L296.13,88.25L301.55,88.25L301.55,104.96L302.32,104.96L302.32,123.47L296.13,123.47ZM308.14,113.31C305.72,113.31 303.69,112.74 302.07,111.62C300.44,110.49 299.22,108.96 298.4,107.01C297.58,105.07 297.17,102.88 297.17,100.44C297.17,98 297.58,95.81 298.39,93.87C299.2,91.93 300.4,90.39 301.98,89.26C303.56,88.13 305.51,87.57 307.83,87.57C310.15,87.57 312.2,88.13 313.93,89.24C315.66,90.35 317.01,91.88 317.96,93.81C318.91,95.74 319.39,97.95 319.39,100.44C319.39,102.93 318.92,105.07 317.98,107.01C317.04,108.95 315.73,110.49 314.04,111.62C312.35,112.75 310.39,113.31 308.15,113.31L308.14,113.31ZM307.15,107.85C308.48,107.85 309.56,107.52 310.4,106.86C311.24,106.2 311.87,105.31 312.27,104.18C312.67,103.06 312.88,101.81 312.88,100.44C312.88,99.07 312.67,97.85 312.25,96.73C311.83,95.61 311.18,94.71 310.29,94.04C309.41,93.37 308.28,93.03 306.92,93.03C305.64,93.03 304.6,93.34 303.81,93.96C303.02,94.58 302.44,95.44 302.08,96.56C301.72,97.68 301.54,98.97 301.54,100.44C301.54,101.91 301.72,103.21 302.08,104.32C302.44,105.43 303.03,106.3 303.85,106.92C304.67,107.54 305.76,107.85 307.14,107.85L307.15,107.85Z" style="fill:rgb(81,207,162);fill-rule:nonzero;"/>
        <path d="M331.13,113.31C329.38,113.31 327.91,112.97 326.69,112.3C325.48,111.63 324.56,110.73 323.93,109.61C323.31,108.49 323,107.25 323,105.89C323,104.76 323.17,103.73 323.52,102.8C323.87,101.87 324.43,101.04 325.2,100.33C325.97,99.62 327.02,99.02 328.33,98.53C329.23,98.2 330.31,97.91 331.56,97.65C332.81,97.39 334.22,97.15 335.8,96.92C337.38,96.69 339.12,96.43 341.01,96.14L338.8,97.36C338.8,95.92 338.45,94.85 337.76,94.18C337.07,93.5 335.91,93.16 334.28,93.16C333.38,93.16 332.44,93.38 331.46,93.81C330.48,94.25 329.8,95.02 329.4,96.14L323.85,94.38C324.47,92.36 325.63,90.72 327.33,89.46C329.03,88.19 331.35,87.56 334.29,87.56C336.44,87.56 338.35,87.89 340.02,88.55C341.69,89.21 342.96,90.36 343.81,91.98C344.29,92.88 344.58,93.79 344.67,94.69C344.76,95.59 344.81,96.6 344.81,97.72L344.81,112.62L339.43,112.62L339.43,107.61L340.2,108.65C339.01,110.29 337.73,111.48 336.35,112.21C334.97,112.94 333.23,113.31 331.12,113.31L331.13,113.31ZM332.44,108.48C333.57,108.48 334.52,108.28 335.3,107.88C336.08,107.48 336.69,107.03 337.15,106.51C337.61,106 337.92,105.57 338.09,105.22C338.41,104.56 338.59,103.78 338.64,102.9C338.7,102.02 338.72,101.28 338.72,100.7L340.52,101.15C338.7,101.45 337.22,101.7 336.1,101.91C334.97,102.11 334.06,102.3 333.37,102.46C332.68,102.63 332.07,102.81 331.54,103C330.94,103.24 330.45,103.5 330.08,103.78C329.71,104.06 329.44,104.36 329.26,104.7C329.09,105.03 329,105.4 329,105.81C329,106.37 329.14,106.84 329.42,107.24C329.7,107.64 330.1,107.94 330.61,108.16C331.12,108.38 331.73,108.48 332.44,108.48Z" style="fill:rgb(81,207,162);fill-rule:nonzero;"/>
        <path d="M361.43,113.31C358.9,113.31 356.73,112.74 354.93,111.62C353.13,110.49 351.74,108.96 350.78,107.01C349.82,105.07 349.34,102.88 349.34,100.44C349.34,98 349.84,95.77 350.84,93.82C351.84,91.87 353.25,90.35 355.07,89.24C356.89,88.12 359.04,87.57 361.53,87.57C364.41,87.57 366.82,88.3 368.77,89.75C370.72,91.2 371.97,93.19 372.51,95.7L366.37,97.33C366.01,96.07 365.38,95.08 364.48,94.37C363.58,93.66 362.57,93.31 361.44,93.31C360.14,93.31 359.08,93.62 358.25,94.25C357.42,94.87 356.81,95.73 356.42,96.8C356.03,97.88 355.83,99.09 355.83,100.45C355.83,102.57 356.3,104.29 357.24,105.61C358.18,106.93 359.58,107.59 361.43,107.59C362.82,107.59 363.87,107.27 364.59,106.64C365.31,106.01 365.85,105.11 366.21,103.93L372.49,105.24C371.8,107.83 370.49,109.82 368.56,111.22C366.63,112.62 364.26,113.32 361.43,113.32L361.43,113.31Z" style="fill:rgb(81,207,162);fill-rule:nonzero;"/>
        <path d="M374.3,92.98L374.3,88.24L391.64,88.24L391.64,92.98L374.3,92.98ZM391.64,112.62C389.96,112.94 388.3,113.08 386.69,113.04C385.07,113 383.63,112.72 382.35,112.18C381.08,111.65 380.11,110.79 379.45,109.59C378.85,108.48 378.53,107.34 378.5,106.19C378.47,105.04 378.45,103.73 378.45,102.27L378.45,81.45L384.59,81.45L384.59,101.91C384.59,102.86 384.6,103.71 384.62,104.47C384.64,105.23 384.8,105.84 385.08,106.29C385.62,107.15 386.49,107.61 387.67,107.69C388.86,107.77 390.18,107.7 391.62,107.51L391.62,112.61L391.64,112.62Z" style="fill:rgb(81,207,162);fill-rule:nonzero;"/>
        <path d="M249.16,66.22L249.16,39.4L238.89,39.4L238.89,33.66L265.57,33.66L265.57,39.4L255.3,39.4L255.3,66.22L249.15,66.22L249.16,66.22Z" style="fill:white;fill-rule:nonzero;"/>
        <path d="M271.68,66.22L264.22,41.75L270.23,41.8L274.66,56.36L279.16,41.8L284.27,41.8L288.77,56.36L293.2,41.8L299.22,41.8L291.76,66.22L287.06,66.22L281.72,50.3L276.38,66.22L271.68,66.22Z" style="fill:white;fill-rule:nonzero;"/>
        <path d="M303.75,38.41L303.75,32.98L309.9,32.98L309.9,38.41L303.75,38.41ZM303.75,66.22L303.75,41.8L309.9,41.8L309.9,66.22L303.75,66.22Z" style="fill:white;fill-rule:nonzero;"/>
        <path d="M316.64,77.08L316.64,41.8L322.07,41.8L322.07,58.53L322.84,58.53L322.84,77.07L316.65,77.07L316.64,77.08ZM328.67,66.91C326.24,66.91 324.22,66.34 322.59,65.21C320.96,64.08 319.74,62.54 318.91,60.6C318.09,58.66 317.68,56.46 317.68,54.02C317.68,51.58 318.09,49.38 318.9,47.44C319.71,45.49 320.91,43.96 322.5,42.83C324.09,41.7 326.04,41.13 328.36,41.13C330.68,41.13 332.73,41.69 334.47,42.8C336.2,43.92 337.55,45.44 338.51,47.38C339.47,49.32 339.95,51.53 339.95,54.02C339.95,56.51 339.48,58.66 338.54,60.6C337.6,62.55 336.28,64.08 334.59,65.21C332.9,66.34 330.94,66.91 328.69,66.91L328.67,66.91ZM327.68,61.44C329.01,61.44 330.09,61.11 330.94,60.44C331.78,59.78 332.41,58.88 332.82,57.76C333.22,56.64 333.43,55.39 333.43,54.02C333.43,52.65 333.22,51.42 332.8,50.3C332.38,49.18 331.73,48.28 330.84,47.61C329.96,46.94 328.83,46.6 327.46,46.6C326.18,46.6 325.14,46.91 324.35,47.53C323.56,48.15 322.98,49.02 322.62,50.13C322.26,51.24 322.08,52.54 322.08,54.02C322.08,55.5 322.26,56.8 322.62,57.91C322.98,59.02 323.57,59.89 324.39,60.51C325.21,61.13 326.31,61.44 327.68,61.44Z" style="fill:white;fill-rule:nonzero;"/>
    </g>
</svg>
