<svg width="188" height="64" viewBox="0 0 188 64" fill="none" xmlns="http://www.w3.org/2000/svg">
<g clip-path="url(#clip0_103_803)">
<path d="M69.8213 0H9.34239C4.18273 0 0 4.18181 0 9.34034V54.6597C0 59.8182 4.18273 64 9.34239 64H69.8213C74.981 64 79.1637 59.8182 79.1637 54.6597V9.34034C79.1637 4.18181 74.981 0 69.8213 0Z" fill="#51CFA2"/>
<path d="M38.8351 12.4048H35.0273C32.2659 12.4048 30.0273 14.6434 30.0273 17.4048V21.6299H38.8351V12.4048Z" fill="white"/>
<path d="M26.0777 21.6299H12.4121V29.9427H26.0777V21.6299Z" fill="white"/>
<path d="M56.8387 12.4048H47.1829V21.6299H56.4423C59.8069 21.6299 61.5859 22.8695 61.5859 25.7863C61.5859 28.7031 59.8069 29.9427 56.5069 29.9427H56.4469H47.1829V38.4859C47.1829 41.7621 45.9385 43.4947 43.0072 43.4947C40.0759 43.4947 38.8361 41.7667 38.8314 38.5642V29.9427H30.0237V38.5642C30.0237 41.7667 28.7194 43.4947 25.848 43.4947C22.9766 43.4947 21.6722 41.7621 21.6722 38.4859V12.4048H12.4082V38.8729C12.4082 45.7434 15.9986 51.5909 25.6498 51.5909C29.4752 51.5909 32.3512 50.6278 34.4253 49.0427C36.4993 50.6278 39.3753 51.5909 43.2008 51.5909C52.8519 51.5909 56.4423 45.748 56.4423 38.8729V38.7163H56.9032C63.7614 38.7163 69.8959 35.076 69.8959 25.5928C69.8959 16.1096 63.895 12.4048 56.8341 12.4048H56.8387Z" fill="white"/>
<path d="M102.168 5.86613H97.7383V3.10596H109.832V5.86613H105.403V18.0864H102.172V5.86613H102.168Z" fill="#1E063A"/>
<path d="M108.781 7.29883H111.777L113.616 13.9527L115.52 7.29883H118.239L120.143 13.9527L121.963 7.29883H124.959L121.447 18.0861H118.834L116.884 11.3677L114.893 18.0861H112.28L108.768 7.29883H108.781Z" fill="#1E063A"/>
<path d="M126.674 2.61279H129.84V5.76003H126.674V2.61279ZM126.761 7.29909H129.739V18.0863H126.761V7.29909Z" fill="#1E063A"/>
<path d="M132.605 7.29913H135.583V8.47416C136.224 7.64012 137.274 7.12402 138.666 7.12402C141.708 7.12402 143.635 9.32663 143.635 12.6904C143.635 16.0543 141.538 18.2569 138.431 18.2569C137.21 18.2569 136.164 17.8514 135.583 17.1233V22.4547H132.605V7.29913ZM138.044 15.6902C139.63 15.6902 140.676 14.4922 140.676 12.6951C140.676 10.8979 139.625 9.67683 138.044 9.67683C136.463 9.67683 135.412 10.8749 135.412 12.6951C135.412 14.5152 136.463 15.6902 138.044 15.6902Z" fill="#1E063A"/>
<path d="M98.9961 24.5054H102.227V39.4859H98.9961V24.5054Z" fill="#51CFA2"/>
<path d="M105.141 28.6983H108.118V30.219C108.694 29.2329 109.722 28.5278 111.178 28.5278C112.87 28.5278 113.962 29.2144 114.474 30.4954C115.008 29.4448 116.359 28.5278 118.092 28.5278C120.424 28.5278 121.945 30.2604 121.945 32.4216V39.4856H118.968V33.3662C118.968 31.9746 118.216 31.053 117.064 31.053C115.824 31.053 115.031 31.9746 115.031 33.3662V39.4856H112.054V33.3662C112.054 31.9746 111.303 31.053 110.151 31.053C108.911 31.053 108.118 31.9746 108.118 33.3662V39.4856H105.141V28.6983Z" fill="#51CFA2"/>
<path d="M124.682 28.6985H127.659V29.8736C128.3 29.0395 129.351 28.5234 130.742 28.5234C133.784 28.5234 135.711 30.726 135.711 34.0899C135.711 37.4537 133.614 39.6563 130.507 39.6563C129.286 39.6563 128.24 39.2508 127.659 38.5227V43.8495H124.682V28.6985ZM130.12 37.0896C131.706 37.0896 132.752 35.8916 132.752 34.0945C132.752 32.2974 131.701 31.0762 130.12 31.0762C128.539 31.0762 127.489 32.2743 127.489 34.0945C127.489 35.9146 128.539 37.0896 130.12 37.0896Z" fill="#51CFA2"/>
<path d="M137.569 36.4262C137.569 34.3065 139.155 33.0255 141.528 33.0255H143.326C143.86 33.0255 144.141 32.6845 144.141 32.2329C144.141 31.3344 143.455 30.7123 142.238 30.7123C140.934 30.7123 140.247 31.5233 140.224 32.4264H137.569C137.675 30.2653 139.431 28.5327 142.385 28.5327C145.128 28.5327 147.114 30.1179 147.114 32.5555V39.4905H144.137V37.9929C143.773 38.9974 142.574 39.6609 141.095 39.6609C139.016 39.6609 137.564 38.2693 137.564 36.4308L137.569 36.4262ZM141.874 37.4952C143.307 37.4952 144.141 36.4262 144.141 35.053V34.9055H141.98C141.058 34.9055 140.44 35.4631 140.44 36.2971C140.44 37.0022 141.04 37.4952 141.874 37.4952Z" fill="#51CFA2"/>
<path d="M149.275 34.0943C149.275 30.947 151.478 28.5278 154.843 28.5278C157.668 28.5278 159.918 30.242 160.111 32.7441H157.115C156.945 31.7811 156.023 31.076 154.931 31.076C153.304 31.076 152.382 32.3386 152.382 34.0943C152.382 35.8499 153.322 37.0894 154.972 37.0894C156.064 37.0894 156.922 36.4259 157.157 35.4628H160.176C159.876 37.859 157.627 39.6561 154.848 39.6561C151.488 39.6561 149.28 37.2369 149.28 34.0896L149.275 34.0943Z" fill="#51CFA2"/>
<path d="M166.251 25.5095V28.6982H169.14V31.1819H166.251V35.4397C166.251 36.4903 166.785 36.9787 167.749 36.9787H169.14V39.4808H167.366C164.882 39.4808 163.255 38.0662 163.255 35.5641V31.1773H161.199V28.6936H163.255V25.5049H166.251V25.5095Z" fill="#51CFA2"/>
<path d="M97.6914 45.9043H100.922L104.628 56.862L108.352 45.9043H111.583L106.19 60.8848H103.089L97.696 45.9043H97.6914Z" fill="#51CFA2"/>
<path d="M111.178 55.4706C111.178 52.7289 112.846 49.9272 116.506 49.9272C120.165 49.9272 121.838 52.7289 121.838 55.1941C121.838 55.5996 121.815 55.9222 121.797 56.1572H114.049C114.261 57.6778 115.224 58.6179 116.727 58.6179C117.925 58.6179 118.718 58.1479 118.953 57.2263H121.866C121.437 59.5579 119.382 61.0555 116.727 61.0555C113.067 61.0555 111.182 58.1893 111.182 55.4706H111.178ZM118.861 54.2726C118.773 53.0745 117.939 52.1114 116.506 52.1114C115.155 52.1114 114.344 52.775 114.086 54.2726H118.861Z" fill="#51CFA2"/>
<path d="M124.17 50.0977H127.147V51.5953C127.746 50.5447 128.945 49.9272 130.443 49.9272C132.862 49.9272 134.448 51.6829 134.448 54.1666V60.885H131.452V54.8301C131.452 53.5261 130.618 52.5814 129.378 52.5814C128.074 52.5814 127.152 53.586 127.152 54.9776V60.885H124.175V50.0977H124.17Z" fill="#51CFA2"/>
<path d="M141.081 46.9089V50.0976H143.971V52.5813H141.081V56.8391C141.081 57.8897 141.615 58.3781 142.579 58.3781H143.971V60.8802H142.196C139.712 60.8802 138.085 59.4656 138.085 56.9635V52.5767H136.029V50.093H138.085V46.9043H141.081V46.9089Z" fill="#51CFA2"/>
<path d="M156.276 60.8849H153.299V59.3873C152.699 60.4149 151.501 61.0554 150.003 61.0554C147.584 61.0554 145.998 59.2813 145.998 56.8161V50.0977H148.994V56.1525C148.994 57.4566 149.828 58.4012 151.073 58.4012C152.377 58.4012 153.299 57.3736 153.299 56.0051V50.0977H156.276V60.8849Z" fill="#51CFA2"/>
<path d="M162.12 55.641V60.8849H159.143V50.0977H162.12V51.8948C162.696 50.5446 163.512 50.0977 164.839 50.0977H166.038V52.5813H164.263C162.788 52.5813 162.125 53.8025 162.125 55.641H162.12Z" fill="#51CFA2"/>
<path d="M166.938 55.4706C166.938 52.7289 168.606 49.9272 172.265 49.9272C175.925 49.9272 177.598 52.7289 177.598 55.1941C177.598 55.5996 177.575 55.9222 177.557 56.1572H169.809C170.021 57.6778 170.984 58.6179 172.487 58.6179C173.685 58.6179 174.478 58.1479 174.713 57.2263H177.626C177.197 59.5579 175.141 61.0555 172.487 61.0555C168.827 61.0555 166.942 58.1893 166.942 55.4706H166.938ZM174.621 54.2726C174.533 53.0745 173.699 52.1114 172.265 52.1114C170.915 52.1114 170.104 52.775 169.846 54.2726H174.621Z" fill="#51CFA2"/>
<path d="M179.266 57.2493H181.834C181.963 58.2124 182.709 58.8114 183.802 58.8114C184.742 58.8114 185.364 58.3598 185.364 57.7608C185.364 55.5582 179.561 57.7193 179.561 53.1805C179.561 51.2774 181.23 49.9272 183.437 49.9272C186.028 49.9272 187.784 51.3189 187.867 53.4385H185.299C185.17 52.5169 184.313 52.0239 183.525 52.0239C182.668 52.0239 182.11 52.3879 182.11 53.0745C182.11 55.2771 187.996 52.775 187.996 57.6548C187.996 59.71 186.346 61.0601 183.802 61.0601C181.257 61.0601 179.391 59.5809 179.262 57.2493H179.266Z" fill="#51CFA2"/>
</g>
<defs>
<clipPath id="clip0_103_803">
<rect width="188" height="64" fill="white"/>
</clipPath>
</defs>
</svg>
